<svg width="297" height="297" viewBox="0 0 297 297" fill="none" xmlns="http://www.w3.org/2000/svg">
<g clip-path="url(#clip0_40000377_6483)">
<path d="M114.715 40.7447C128.783 38.0256 145.741 39.9192 160.036 40.2835L195.575 41.0009C196.774 41.0274 198.169 40.7601 199.313 40.8197C203.262 41.0255 207.279 41.0681 211.216 41.3611C213.695 41.5456 217.862 41.3142 219.941 42.6639C220.556 43.0655 221.104 43.5617 221.565 44.1343C221.277 45.699 220.949 47.344 221.014 48.9488C221.15 52.2611 221.986 55.3406 222.123 58.6886C222.304 61.7864 221.892 65.029 222.122 68.0929C222.185 68.9498 222.3 70.9289 222.469 71.7011C223.765 77.5819 223.023 83.8011 223.138 89.7895C223.164 91.1413 223.581 94.2456 223.27 95.4273C223.73 98.7358 224.259 99.1255 223.721 102.487C223.513 104.584 223.89 106.638 223.705 108.476C223.189 113.581 223.136 119.291 222.384 124.302L222.251 125.815C222.249 126.654 222.307 127.908 222.084 128.673C221.347 129.058 221.403 128.154 220.534 129.509C221.021 129.461 221.575 129.338 221.985 129.551C222.223 129.933 222.146 130.251 222.122 130.713C222.084 131.441 222.057 132.01 221.948 132.738C221.204 134.843 221.306 135.851 221.082 138.017C220.62 142.513 220.935 146.889 220.981 151.396C221.003 153.442 221.194 155.394 221.155 157.505C221.027 164.627 220.377 171.424 220.084 178.56C219.966 181.474 219.763 185.768 219.652 188.767C219.535 188.918 219.418 189.069 219.299 189.221C219.45 190.644 219.865 192.777 219.91 194.126C220.069 198.931 219.805 203.85 219.797 208.613C219.794 210.234 219.839 215.522 218.913 216.707L218.466 216.731L218.2 216.994C218.2 217.392 218.33 217.512 218.545 217.858C218.32 220.008 218.25 222.099 218.124 224.247C218.102 224.628 216.919 226.032 216.749 226.451C216.806 226.328 216.692 227.311 216.673 227.405C216.201 227.686 214.721 227.956 214.522 227.187C214.298 226.327 214.457 225.547 214.309 224.634C211.469 224.78 208.304 224.567 205.432 224.464C201.848 224.34 198.262 224.285 194.676 224.299C183.33 224.382 171.987 224.665 160.653 225.153C155.709 225.322 150.774 225.216 145.833 225.581C144.113 225.706 141.677 225.783 139.999 225.31C133.991 223.62 131.672 232.503 129.658 236.465C129.524 236.729 130.105 236.631 129.936 237.19C129.465 237.232 129.259 237.095 128.823 236.91C128.638 237.328 128.643 237.912 128.613 238.386C127.969 238.836 127.226 239.416 126.513 239.698C124.533 238.56 128.225 229.653 129.483 228.078C131.665 225.346 134.129 222.839 137.536 221.937L137.454 221.633C137.898 221.023 139.055 221.066 139.773 221.006C147.215 220.375 154.648 219.633 162.067 218.78C164.466 218.516 166.89 218.414 169.277 218.073C171.628 217.738 173.926 217.13 176.258 216.698C180.861 215.845 191.186 214.665 194.191 211.115C194.741 210.467 195.257 209.707 195.51 208.89C195.941 207.501 195.734 204.474 195.592 202.954C195.276 199.589 194.394 196.192 193.805 192.858C193.019 188.407 192.468 183.883 191.558 179.458C191.133 177.397 190.478 175.366 189.944 173.328C188.882 169.268 187.846 165.206 186.659 161.181C185.547 157.408 184.58 153.575 182.792 150.041C181.672 147.821 180.263 146.075 178.352 144.513C173.152 140.26 168.888 141.085 162.728 139.771L162.676 139.998C161.852 143.677 161.933 147.759 160.919 151.413C160.751 152.016 159.955 152.686 159.323 152.756C156.658 151.364 158.887 135.423 159.525 132.597C160.176 129.712 162.761 123.751 164.88 121.586C164.901 120.774 164.869 119.843 165.084 119.077C165.694 118.936 167.099 119.915 167.449 120.385C168.117 123.538 167.213 126.533 165.857 129.354C165.432 130.239 165.332 131.273 164.543 131.824C164.115 133.617 163.442 135.887 163.16 137.604C166.1 137.72 171.631 138.106 174.189 139.34L174.052 139.185C168.025 132.256 172.84 121.024 173.365 113.245C173.25 108.991 172.38 103.577 169.67 100.155C168.362 98.5027 166.61 97.2226 165.001 96.014C163.37 94.7896 158.444 94.2472 158.026 92.8719C158.689 90.3015 167.503 92.9709 169.059 94.4722C171.361 96.6942 173.866 99.0204 175.259 101.967C177.763 107.182 177.626 115.427 176.398 120.95C175.821 123.545 174.575 126.089 174.316 129.081C174.08 131.826 174.718 139.595 177.727 140.751C178.345 140.988 179.389 140.917 180.07 141.341C180.49 142.279 179.565 142.166 180.796 142.599C183.249 143.462 186.412 148.015 187.36 150.321C189.351 155.142 190.119 160.303 191.46 165.28C192.904 170.64 193.915 175.905 195.18 181.281C196.234 185.768 196.798 188.728 197.203 193.431C197.649 198.623 199.582 204.537 198.295 209.805C197.824 211.612 195.72 214.802 193.866 215.528C189.198 217.353 184.237 218.017 179.321 218.828C177.311 219.16 175.166 219.173 173.37 219.924C173.171 220.008 173.074 219.998 172.869 219.992L173.204 219.493C172.873 219.314 173.051 219.379 172.585 219.442C172.522 219.797 172.538 219.613 172.54 219.99C171.465 220.672 164.225 220.079 163.737 221.353C164.852 222.308 175.088 221.315 177.234 221.364C178.99 221.063 182.693 221.205 184.528 221.22C188.373 221.209 192.363 220.774 196.097 220.851L207.694 221.195C209.111 221.248 213.239 221.488 214.455 221.298L214.332 221.188L214.191 221.172C213.948 220.878 213.836 219.645 213.735 219.13C211.952 210.111 212.87 200.189 212.836 191.016C212.82 186.721 212.468 182.44 212.421 178.154C212.383 174.89 212.964 170.746 212.651 167.556C212.487 167.046 212.525 167.316 212.682 166.7C212.729 165.929 212.8 165.133 212.86 164.36C213.084 162.355 212.943 160.715 213.287 158.59C213.262 157.991 213.258 157.984 213.385 157.402C213.543 156.275 213.599 155.043 213.738 153.874C214.085 148.317 214.834 143.956 214.752 138.343L214.896 136.072C214.951 134.32 214.996 131.562 215.275 129.869C215.024 128.455 214.989 126.549 214.919 125.068C214.416 114.172 215.596 103.21 215.887 92.3171C216.104 84.1542 215.574 76.0113 215.3 67.8639C215.129 62.7702 215.751 57.5065 216.06 52.4285C216.065 51.9334 216.104 51.3072 216.07 50.8246C216.026 50.1765 215.618 49.1873 215.775 48.539C216.329 48.6311 216.273 48.7248 216.779 49.156C216.921 48.3469 217.041 47.6166 217.262 46.821C209.665 44.4549 201.823 44.723 193.96 44.7782C192.9 44.7856 193.928 43.4669 192.3 44.3541C191.192 44.9578 187.921 44.6935 186.567 44.7866C186.302 44.4267 186.186 44.1941 185.781 44.0088C185.606 44.3061 185.505 44.6376 185.079 44.6329C183.588 44.6166 182.004 44.699 180.499 44.6759C170.376 44.5197 160.271 46.29 150.17 46.7637C145.908 46.9636 141.305 46.7358 137.002 46.7717C130.54 46.8411 124.08 46.9973 117.623 47.2403C115.084 47.3138 112.416 46.8709 109.913 46.914C104.756 47.0027 99.7736 48.1623 94.9158 49.7582C94.311 51.7598 94.5587 53.1006 94.2682 54.9461C93.6259 59.026 93.1627 63.3762 92.9794 67.5167L92.5757 76.277C92.5253 77.4698 92.8341 78.9914 91.976 79.7663C92.0817 80.0981 92.1051 80.083 92.3518 80.3392C92.7706 85.5397 92.2613 90.7855 91.6659 95.9407C91.5577 96.8773 91.7752 99.7505 91.3891 100.306L91.0046 100.443C90.9112 101.233 91.7113 102.439 91.6727 103.119C91.4277 107.427 91.5909 111.708 91.456 116.012C91.4319 116.63 90.9507 116.363 91.0629 117.133C91.619 120.948 91.0906 124.774 91.2535 128.547C91.4371 132.802 91.059 136.819 90.999 141.019C90.9514 144.347 92.1394 148.382 91.9749 151.84C91.9652 156.87 92.3883 161.831 92.5936 166.826C92.7182 169.86 92.4344 170.481 92.897 173.756C93.4781 177.499 93.0423 179.831 92.6147 183.416C92.3891 186.348 92.0495 189.269 91.9886 192.21C91.8822 197.351 91.7815 202.506 91.6489 207.645L91.4654 217.477C91.4398 220.089 91.3531 223.06 91.7542 225.644L91.919 225.74C92.426 226.04 92.5813 226.072 92.8333 226.564C92.6681 227.709 91.5065 231.029 91.141 231.865C90.4774 233.155 87.1377 233.654 86.506 232.223C85.666 230.319 87.0821 227.413 87.2653 225.323C88.0418 216.462 87.1623 207.406 87.6234 198.587C87.6248 197.876 87.6848 197.079 87.7224 196.362C87.8401 193.971 87.8771 191.6 87.9741 189.217C88.132 185.343 89.0921 181.809 89.0541 177.873C88.9063 162.135 87.4264 146.461 87.3558 130.723C87.2809 114.009 88.4869 97.3634 88.297 80.6561C88.1861 70.8941 87.518 61.6509 89.7491 52.0926C88.8455 52.3714 85.9494 53.3055 86.0933 50.9144C86.187 49.3575 89.7875 48.078 91.2682 47.0846L91.4912 46.9336C90.1943 47.032 84.9361 47.8366 84.656 47.6211C81.2711 45.0145 95.7405 42.8467 97.2053 42.7271C98.5602 42.4979 100.106 42.3494 101.483 42.1863C104.589 41.766 107.706 41.4314 110.831 41.1829C111.937 40.9863 113.619 40.8132 114.715 40.7447Z" fill="black"/>
<path d="M92.8966 173.756C93.4777 177.498 93.0419 179.83 92.6143 183.415C91.6088 182.735 91.769 182.309 91.7108 181.171C91.6416 180.241 91.6464 179.327 91.6398 178.396C91.5825 177.554 91.4349 174.547 91.92 173.966C92.3729 173.954 92.4737 173.922 92.8966 173.756Z" fill="black"/>
<path d="M222.561 94.9453C222.782 95.7916 222.957 97.2217 222.578 98.016L222.704 98.2975L223.027 98.3418L223.288 98.0743C223.16 97.0818 222.921 96.319 223.27 95.4281C223.729 98.7367 224.259 99.1264 223.721 102.487C223.142 102.277 222.518 102.17 221.915 102.043C221.905 100.628 221.89 98.964 222.088 97.5689C222.163 97.0312 222.195 97.1601 222.127 96.5775L222.414 96.4516C222.61 96.0339 222.56 95.4312 222.561 94.9453Z" fill="black"/>
<path d="M215.274 129.869L215.504 130L215.607 130.555C215.857 130.326 215.788 130.429 215.934 130.126C216.143 130.614 216.181 130.808 216.592 131.151L216.897 131.204C216.966 131.755 216.77 135.042 216.667 135.504C216.167 135.682 215.393 135.997 214.896 136.073C214.95 134.32 214.995 131.562 215.274 129.869Z" fill="black"/>
<path d="M137.536 221.937L137.454 221.633C137.897 221.023 139.054 221.067 139.773 221.006L140.072 221.337L140.328 221.349C140.622 221.362 140.683 221.369 140.974 221.454L141.057 221.554L140.717 221.667L140.82 222.154C140.498 222.836 138.989 222.589 138.208 222.615L137.776 222.377L137.759 222.194L138.294 222.015L137.536 221.937Z" fill="black"/>
<path d="M213.738 153.875L214.008 154.009L213.875 154.306C214.283 154.942 214.565 155.28 214.727 156.021C213.917 156.657 213.965 156.832 213.385 157.403C213.542 156.275 213.599 155.043 213.738 153.875Z" fill="black"/>
<path d="M214.896 136.073C215.393 135.997 216.167 135.682 216.667 135.504C216.788 136.038 216.705 136.088 217.033 136.409L217.838 136.288C217.886 136.905 217.951 136.629 217.672 137.153C216.521 138.038 215.246 137.458 214.751 138.343L214.896 136.073Z" fill="black"/>
<path d="M219.796 208.613C219.793 210.234 219.838 215.522 218.913 216.706L218.466 216.731C218.637 215.687 217.58 215.589 218.145 214.859C218.601 214.96 218.427 214.847 218.71 215.164C218.671 215.69 218.602 215.768 218.776 216.235C219.319 215.363 219.128 214.539 218.988 213.577C219.402 212.827 219.287 211.787 219.205 210.96L219.364 210.91C219.507 210.484 219.367 209.494 219.344 208.962L219.796 208.613Z" fill="black"/>
<path d="M220.534 129.509C221.021 129.461 221.575 129.338 221.984 129.551C222.222 129.933 222.146 130.251 222.121 130.713C222.084 131.441 222.056 132.01 221.948 132.738C221.823 132.315 221.754 132.312 221.463 131.954C221.045 131.814 220.936 131.774 220.526 131.566C220.276 130.99 220.399 130.959 220.48 130.227C220.466 129.986 220.508 129.753 220.534 129.509Z" fill="black"/>
<path d="M220.534 129.509C221.021 129.461 221.575 129.338 221.984 129.551C222.223 129.933 222.146 130.251 222.122 130.713C221.585 130.586 221.011 130.392 220.48 130.227C220.466 129.986 220.508 129.753 220.534 129.509Z" fill="black"/>
<path d="M97.2051 42.7263C98.56 42.4972 100.106 42.3487 101.483 42.1855C100.581 43.8373 99.2516 43.8429 97.612 43.2151L97.2051 42.7263Z" fill="black"/>
<path d="M220.506 126.67C220.273 125.779 220.315 123.964 220.321 122.971L220.412 122.987C220.756 123.715 221.014 124.722 221.806 124.909C222.28 124.636 222.081 124.816 222.383 124.303L222.25 125.815C221.552 125.595 221.66 125.516 221.037 125.645C220.788 126.083 220.876 125.845 220.869 126.425L220.506 126.67Z" fill="black"/>
<path d="M177.233 221.364C178.989 221.064 182.692 221.205 184.527 221.22C184.468 221.708 184.502 221.93 184.271 222.332C182.665 222.392 182.252 221.645 181.162 221.47C180.205 221.318 178.421 221.509 177.233 221.364Z" fill="black"/>
<path d="M213.595 163.875C213.806 164.079 214.147 164.385 214.326 164.599L214.277 164.675C213.532 165.467 214.332 166.369 212.682 166.7C212.728 165.93 212.799 165.133 212.86 164.361L213.595 163.875Z" fill="black"/>
<path d="M110.831 41.1824C111.937 40.9858 113.619 40.8127 114.715 40.7441C113.907 42.0165 112.4 41.8763 111.151 41.5004L110.831 41.1824Z" fill="black"/>
<path d="M216.06 52.4286C216.064 51.9335 216.104 51.3073 216.07 50.8247C216.025 50.1766 215.618 49.1874 215.775 48.5391C216.329 48.6312 216.273 48.7249 216.779 49.1561C216.602 50.4233 216.203 51.2846 216.06 52.4286Z" fill="black"/>
<path d="M87.722 196.361C88.318 196.555 88.2931 196.531 88.6689 197.028C88.8244 198 88.4098 198.196 87.623 198.587C87.6243 197.875 87.6844 197.079 87.722 196.361Z" fill="black"/>
<path d="M143.537 222.16C144.168 222.046 148.92 221.936 149.342 222.096L149.47 222.495C149.828 222.638 149.815 222.623 150.206 222.628C149.337 222.916 146.533 223.077 145.622 222.89C144.796 222.722 143.945 223.172 143.477 222.618L143.537 222.16Z" fill="black"/>
<path d="M215.142 177.719L215.59 177.959C215.953 178.419 215.961 178.398 216.134 178.945C216.41 179.513 216.564 179.625 217.013 180.092C215.918 180.684 215.373 180.99 214.17 181.37C214.323 180.88 214.706 179.542 214.907 179.189L215.142 177.719Z" fill="black"/>
<path d="M216.011 196.841C215.823 195.532 214.562 192.874 215.291 191.953C215.693 192.309 215.774 193.444 216.38 194.207C216.027 195.129 216.026 195.857 216.011 196.841Z" fill="black"/>
<path d="M153.738 221.59C154.532 221.429 155.595 221.214 156.363 221.512C156.052 221.931 156.036 221.897 155.994 222.407C155.184 222.3 154.688 222.688 153.651 222.395L153.738 221.59Z" fill="black"/>
<path d="M145.762 43.0807C146.668 42.9673 150.315 43.0575 151.122 43.2647C150.632 43.6249 146.489 43.6186 145.639 43.5587L145.762 43.0807Z" fill="black"/>
<path d="M222.357 108.178C222.886 108.365 222.726 108.198 222.996 108.572C222.872 109.589 222.467 110.72 222.178 111.733L222.036 111.887L221.883 111.751C221.81 110.881 222.087 109.024 222.357 108.178Z" fill="black"/>
<path d="M118.053 43.4977C118.868 43.432 121.52 43.166 122.254 43.0645L122.267 43.5577C121.372 43.5688 119.589 43.5555 118.784 43.7121L118.053 43.4977Z" fill="black"/>
<path d="M118.784 43.7112C118.104 43.8954 116.605 44.2106 115.983 43.8802C116.755 43.5033 117.197 43.3724 118.053 43.4967L118.784 43.7112Z" fill="black"/>
<path d="M139.518 96.332C142.512 93.0992 150.994 89.691 155.392 92.1962C156.118 92.6092 156.478 92.9143 157.318 93.13C157.573 97.9193 157.331 98.0618 160.834 101.55C162.679 103.388 170.448 108.209 169.297 110.819C168.617 111.03 166.502 108.951 165.734 108.504C162.125 106.398 159.003 103.733 156.046 100.802C154.885 99.6507 154.347 98.4128 153.848 96.8984C149.031 100.285 143.1 102.047 137.488 103.793C133.327 110.93 131.414 128.039 139.155 133.542C140.382 134.414 145.016 134.661 145.704 136.697C145.655 141.225 142.78 146.247 141.006 150.376C140.005 152.705 136.578 152.002 136.787 150.969C137.343 148.223 138.889 144.086 140.086 141.508C138.619 141.94 137.146 142.2 135.706 142.631C131.894 143.757 128.396 145.754 125.489 148.464C123.359 150.467 123.182 151.274 120.597 153.081C120.174 154.468 119.434 155.106 118.637 156.229C112.228 165.258 109.166 176.628 107.291 187.399C106.016 194.723 104.496 201.99 105.135 209.456C105.92 222.711 119.379 215.409 121.523 217.432C121.699 217.847 121.712 217.817 121.637 218.255C120.91 219.138 117.701 219.368 116.499 219.497C101.188 221.145 100.179 211.214 101.285 198.957C101.375 197.956 101.435 196.747 101.579 195.699C98.0531 203.057 96.4513 212.74 96.1315 220.789C96.095 221.706 95.7895 224.503 96.0227 225.211L96.2924 225.42C96.5739 225.383 96.8053 225.346 97.0737 225.247C98.6521 224.675 103.792 224.899 105.814 224.843C110.359 224.718 114.933 223.739 119.458 223.858C120.436 222.364 121.081 221.526 122.529 220.479C122.625 220.409 122.934 219.319 123.149 219.174C126.853 215.043 131.423 213.1 136.693 212.03C146.742 209.988 156.714 207.914 166.639 205.39C169.142 204.752 171.825 203.981 174.329 203.295C176.449 202.713 177.872 201.927 180.253 201.428C176.64 197.278 174.79 193.282 174.45 187.681C172.751 192.882 172.117 195.833 169.388 200.622C169.745 201.16 169.978 201.504 170.269 202.076C169.301 202.58 168.055 203.296 166.993 203.448C163.138 204 159.015 204.013 155.132 204.325L139.813 205.578C137.564 205.745 135.298 206.039 133.042 206.039C130.369 206.038 127.545 205.865 124.981 205.048C124.064 204.758 123.537 204.405 123.099 203.529C120.98 199.291 123.145 191.5 124.673 187.204C125.249 185.584 126.343 182.056 127.99 181.324C128.491 181.103 129.087 181.077 129.598 181.287C130.051 181.472 130.356 181.861 130.513 182.318C131.626 185.559 124.177 201.441 126.536 203.691C127.672 204.002 129.503 203.989 130.719 203.984C133.801 203.984 136.879 203.789 139.935 203.396C142.154 203.128 144.502 202.697 146.708 202.54C152.912 202.094 159.135 201.704 165.338 201.25C165.958 198.086 167.072 196.185 168.186 193.212C169.42 189.921 170.486 185.685 172.008 182.585C171.423 180.953 170.659 178.331 169.534 177.044C168.934 176.357 167.857 176.265 167.912 175.412C168.249 175.027 168.567 174.869 169.105 174.861C169.776 174.851 171.959 175.041 172.439 175.455C173.406 176.285 173.9 178.134 174.385 179.304C174.954 180.673 175.74 181.892 176.268 183.269C177.458 187.253 178.073 191.524 179.203 195.509C179.689 197.223 181.024 199.453 181.972 200.992L184.836 200.91C188.605 203.442 181.831 203.685 180.444 204.227C176.326 205.838 172.523 207.2 168.171 208.102C165.866 208.58 163.464 209.415 161.116 209.93C157.1 210.788 153.073 211.596 149.037 212.354C144.163 213.266 139.649 213.999 134.947 215.681C134.065 215.863 133.509 216.758 132.753 217.069C131.832 217.449 130.697 217.577 129.825 218.09C126.849 219.838 125.021 222.878 123.235 225.725C121.756 228.083 120.147 230.41 119.099 232.994C118.757 233.825 118.176 237.026 117.436 237.859C114.519 238.449 114.246 235.703 114.594 233.534C115.007 230.956 116.589 229.334 117.368 226.926C113.275 227.27 109.072 227.114 104.846 227.182C103.681 227.201 94.1224 227.667 93.4028 227.003C92.1427 225.84 92.153 219.841 92.1504 218.087C92.452 211.928 93.4847 205.933 95.8479 200.213C96.4134 198.844 97.0957 197.295 97.5769 195.916C99.3518 190.827 101.69 186.109 103.959 181.243C104.861 179.308 105.028 176.302 105.838 174.256C109.185 164.263 113.144 154.368 121.195 147.166C122.424 146.067 123.955 144.752 125.321 143.892C126.795 142.57 131.76 140.36 133.803 139.904C135.093 139.343 139.658 138.362 141.242 138.334L141.452 136.785C140.09 136.322 136.548 134.975 135.584 134.119C132.19 131.1 130.546 124.661 130.233 120.314C129.893 115.591 130.252 109.324 132.217 104.969C133.002 103.228 134.706 100.959 135.907 99.5276C136.805 98.3564 138.334 97.2613 139.518 96.332Z" fill="black"/>
<path d="M125.321 143.892C126.795 142.571 131.76 140.36 133.803 139.904C132.848 140.797 130.412 141.154 129.253 141.925C129.349 142.258 129.258 142.114 129.539 142.348C130.334 142.184 130.623 141.912 131.376 142.002C130.793 142.216 130.243 142.618 129.652 142.731C129.267 142.531 128.951 142.343 128.542 142.203C127.719 142.916 127.436 144.649 126.841 144.871C126.074 144.516 125.848 144.139 125.321 143.892Z" fill="black"/>
<path d="M135.907 99.5277C136.805 98.3564 138.334 97.2614 139.518 96.332C139.015 97.3876 139.253 97.4224 139.509 98.7559L137.535 99.8513C136.96 99.7519 136.471 99.6685 135.907 99.5277Z" fill="black"/>
<path d="M227.203 225.629C227.54 225.756 228.286 226.628 228.591 226.949C228.361 227.851 227.475 231.132 227.168 231.878C226.419 233.699 226.892 241.024 226.047 241.796C225.449 241.953 218.742 242.178 218.057 242.063C203.504 239.623 188.872 241.843 174.212 242.041L151.126 242.334C143.014 242.439 134.573 242.509 126.527 243.682C117.313 245.067 108.094 246.586 98.7901 247.206C94.6147 247.485 92.9431 247.978 88.9422 246.312C88.1474 245.693 88.0062 245.264 87.5815 244.376C89.9317 244.363 92.2522 244.848 94.6021 244.745C97.2312 244.631 117.658 242.172 118.796 241.423C119.027 241.272 119.273 241.157 119.519 241.032C119.746 241.146 119.976 241.253 120.208 241.355C121.861 242.064 121.692 241.04 122.015 241.01C128.436 240.397 134.809 239.784 141.267 239.612C144.841 239.516 148.388 239.503 151.943 239.408L179.936 238.667C191.646 238.362 202.855 236.85 214.601 238.481C215.247 238.57 216.358 238.463 216.907 238.783L216.913 239.395C217.328 239.51 217.499 238.936 217.691 238.913C219.057 238.74 221.238 238.714 222.531 238.675C222.525 234.477 222.508 229.88 224.58 226.123L227.203 225.629Z" fill="black"/>
<path d="M80.8978 236.294C81.8756 236.188 82.7407 236.351 83.7144 236.482C84.4475 238.804 84.0137 242.215 84.0814 244.735C84.0925 245.15 83.6868 245.343 83.3889 245.545C82.051 245.588 80.8846 245.833 80.3875 244.288C79.8377 242.581 79.6597 237.43 80.8978 236.294Z" fill="black"/>
<path d="M146.019 112.626C145.306 113.257 142.553 117.582 142.507 118.271C142.794 118.801 143.207 119.318 142.647 119.778C142.265 120.124 141.128 120.123 140.688 120.043C137.836 119.527 139.493 116.8 140.494 115.354C141.775 113.504 143.127 111.606 145.041 110.342C145.367 110.127 145.679 110.325 145.989 110.443C146.777 111.319 146.6 111.688 146.019 112.626Z" fill="black"/>
<path d="M146.419 125.598C147.426 125.504 149.674 125.174 150.192 126.251C149.822 128.186 145.397 128.275 143.918 128.307C139.306 128.227 139.084 125.255 143.657 125.659C144.446 125.729 145.62 125.654 146.419 125.598Z" fill="black"/>
<path d="M82.2227 241.017L86.9507 230.408L94.7924 226.718H120.393L117.049 243.093L123.161 242.17L134.231 224.526L209.073 223.027H230.176L224.064 241.017L193.505 238.365L134.231 241.017L123.161 242.17L117.049 243.093L91.1022 246.437L82.2227 244.707V241.017Z" fill="black"/>
</g>
<defs>
<clipPath id="clip0_40000377_6483">
<rect width="296.138" height="296.138" fill="white"/>
</clipPath>
</defs>
</svg>
