<svg width="346" height="346" viewBox="0 0 346 346" fill="none" xmlns="http://www.w3.org/2000/svg">
<g clip-path="url(#clip0_40000713_13103)">
<path d="M189.663 106.9C193.585 130.178 216.048 145.838 239.836 141.89C263.625 137.941 279.729 115.86 275.807 92.5826C271.884 69.3049 249.421 53.6313 225.633 57.5929C201.845 61.5412 185.74 83.6224 189.663 106.9Z" fill="black"/>
<path d="M276.114 111.137C276.168 110.818 276.181 110.472 276.275 110.18C276.837 108.319 277.025 106.378 277.199 104.464C277.333 103.413 277.319 102.363 277.333 101.313C277.306 100.794 277.292 100.263 277.266 99.7442C277.252 99.4784 277.252 99.2258 277.225 98.9599L277.158 98.1756C277.105 97.6704 277.092 97.1652 277.065 96.6601C277.025 96.1283 277.011 95.5965 276.984 95.0648V94.666L276.931 94.2671L276.864 93.4695C276.784 92.406 276.596 91.3558 276.355 90.3055C276.154 89.5744 275.592 88.923 275.525 88.1652C275.485 87.8462 275.391 87.5271 275.311 87.2214C275.191 86.8092 275.084 86.3838 274.963 85.9584C274.829 85.5463 274.709 85.1209 274.575 84.7088C274.347 83.858 274.039 83.0471 273.758 82.2095C273.624 81.7841 273.45 81.3853 273.29 80.9865C273.129 80.5877 272.955 80.1756 272.781 79.7767C272.594 79.3779 272.393 78.9924 272.192 78.5936L271.884 78.0086C271.777 77.8092 271.657 77.6364 271.536 77.4503C269.849 74.6985 267.922 72.0928 265.659 69.793C263.665 67.759 261.483 65.8979 259.1 64.3425C258.778 64.1165 258.444 63.9038 258.109 63.7044C257.774 63.4917 257.453 63.279 257.118 63.0663C256.449 62.6408 255.78 62.2553 255.11 61.8432C254.428 61.471 253.745 61.0722 253.049 60.7265L251.991 60.2214C251.63 60.0618 251.282 59.889 250.907 59.7561C247.707 58.4666 244.414 57.3366 240.987 56.7915C238.323 56.3794 235.633 56.1002 232.928 56.1002C230.224 56.1002 227.44 55.9673 224.749 56.5123C224.133 56.6453 223.504 56.7649 222.902 56.9245L221.068 57.4163C219.863 57.8019 218.658 58.1874 217.507 58.6793C216.65 58.9983 215.833 59.4104 215.003 59.7694L214.696 59.9023L214.388 60.0618L213.785 60.3676C213.384 60.5803 212.969 60.7664 212.567 60.9791L211.376 61.6438C211.175 61.7502 210.974 61.8565 210.787 61.9762L210.211 62.3351L209.06 63.0397L207.935 63.7974C205.887 65.2199 203.973 66.8284 202.219 68.5832C200.72 70.0855 199.207 71.601 197.962 73.3159C196.396 75.5094 194.83 77.7029 193.638 80.1224C192.42 82.6216 191.228 85.1741 190.398 87.8595C189.823 89.7871 189.341 91.7413 189.033 93.7354C188.939 94.2273 188.899 94.7324 188.832 95.2376L188.739 95.9821C188.712 96.2346 188.698 96.4872 188.672 96.7398L188.564 98.242L188.524 99.7575C188.524 100.116 188.551 100.475 188.578 100.834C188.605 101.379 188.658 101.924 188.672 102.47C188.698 103.015 188.698 103.56 188.564 104.118C188.511 104.371 188.484 104.623 188.498 104.862C188.524 105.102 188.578 105.341 188.658 105.567C188.819 106.019 189.06 106.418 189.381 106.75C189.555 106.936 189.756 106.976 189.917 106.71C190.131 106.365 190.265 106.019 190.184 105.501L190.077 104.769C190.05 104.53 190.037 104.291 190.024 104.038C189.997 103.546 189.97 103.068 189.957 102.576C189.957 102.084 189.97 101.605 189.983 101.114V100.382L190.05 99.6512C190.091 99.146 189.997 98.6143 190.024 98.0958C190.198 95.0781 190.68 92.0736 191.563 89.2021C191.657 88.8831 191.751 88.564 191.844 88.2317C191.951 87.9126 192.045 87.5936 192.152 87.2745L192.447 86.3174C192.554 85.9983 192.674 85.6925 192.795 85.3735C192.915 85.0411 193.036 84.6955 193.156 84.3632L193.571 83.3661C193.718 83.0338 193.852 82.7014 194.026 82.3824C194.2 82.0633 194.388 81.7442 194.589 81.4385C194.963 80.827 195.352 80.2154 195.7 79.5773C195.78 79.4178 195.874 79.2583 195.954 79.0988C196.034 78.9392 196.128 78.7797 196.222 78.6202C196.396 78.3011 196.57 77.9821 196.744 77.663C196.918 77.3174 197.119 76.9983 197.333 76.6925C197.547 76.3735 197.761 76.0677 197.989 75.7487C198.457 75.1372 198.939 74.5522 199.421 73.954C199.876 73.4355 200.332 72.9171 200.72 72.3321C200.987 71.9333 201.322 71.4946 201.724 71.3085C202.058 71.1357 202.34 70.9363 202.594 70.697C202.848 70.4577 203.062 70.1918 203.263 69.886C203.491 69.5537 203.812 69.2745 204.12 68.9954C205.874 67.4134 207.775 65.9909 209.742 64.6881C211.938 63.2125 214.388 62.1357 216.837 61.1253C219.796 59.9023 222.888 59.0249 226.034 58.3469C226.958 58.1741 227.895 57.988 228.845 57.9215C229.314 57.8816 229.783 57.8284 230.264 57.8151C230.733 57.8151 231.215 57.8151 231.683 57.8019C232.152 57.7886 232.634 57.8019 233.102 57.8417C233.571 57.8683 234.053 57.8816 234.521 57.9215C235.459 58.0278 236.409 58.081 237.346 58.2273C240.666 58.6527 243.946 59.4237 247.118 60.4739C249.22 61.1386 251.175 62.149 253.156 63.0663C254.802 63.824 256.342 64.7945 257.855 65.7782C259.97 67.1874 261.898 68.889 263.571 70.8033C264.053 71.3484 264.521 71.92 265.043 72.4651C265.525 73.0367 266.061 73.5685 266.596 74.0736C268.082 75.4695 269.086 77.2642 269.997 79.0456C270.291 79.6704 270.599 80.2952 270.893 80.92C271.161 81.5581 271.469 82.1697 271.764 82.7945C272.045 83.4326 272.339 84.0574 272.607 84.6955C272.848 85.3469 273.116 85.985 273.343 86.6364C273.41 86.8358 273.477 87.0485 273.49 87.2479C273.718 89.3085 274.24 91.276 274.669 93.31C274.749 93.7354 274.776 94.1608 274.802 94.5862C274.816 94.7989 274.816 95.0116 274.802 95.2243C274.802 95.437 274.802 95.6497 274.829 95.8757C275.043 98.3351 275.057 100.808 275.017 103.28C274.963 104.238 274.91 105.208 274.762 106.165L274.669 106.883C274.642 107.122 274.602 107.362 274.561 107.601C274.481 108.08 274.401 108.558 274.334 109.037C274.28 109.436 274.173 109.834 274.066 110.233C273.959 110.619 273.852 111.018 273.731 111.403C273.598 111.775 273.45 112.161 273.316 112.546L273.102 113.118C273.035 113.304 272.942 113.49 272.875 113.676C272.098 115.644 271.322 117.611 270.358 119.512C270.197 119.831 270.023 120.164 269.849 120.483C269.675 120.802 269.461 121.108 269.274 121.427L268.671 122.357L268.029 123.248C267.734 123.647 267.453 124.059 267.145 124.444L266.235 125.628C265.592 126.385 264.99 127.17 264.307 127.901C264.08 128.14 263.865 128.393 263.638 128.632C263.397 128.858 263.142 129.071 262.875 129.27C262.674 129.416 262.5 129.576 262.326 129.749C262.246 129.828 262.152 129.922 262.072 130.015C261.991 130.094 261.898 130.187 261.817 130.267C261.483 130.613 261.148 130.972 260.76 131.291C260.438 131.557 260.09 131.809 259.769 132.062C259.434 132.314 259.113 132.58 258.765 132.82C258.417 133.059 258.082 133.311 257.748 133.564L257.239 133.936L256.717 134.295C256.329 134.561 255.954 134.827 255.552 135.08L254.334 135.784C254.133 135.904 253.932 136.01 253.718 136.13L253.089 136.449C252.674 136.662 252.259 136.888 251.844 137.1C249.836 138.124 247.721 138.948 245.566 139.639L244.24 140.051C243.799 140.198 243.343 140.291 242.902 140.41L242.232 140.57C242.005 140.623 241.777 140.676 241.55 140.716C241.094 140.796 240.639 140.876 240.184 140.942C237.373 141.314 234.548 141.501 231.724 141.394C231.027 141.394 230.358 141.235 229.662 141.168C229.381 141.142 229.086 141.128 228.805 141.115C228.524 141.088 228.243 141.075 227.949 141.062C227.386 141.022 226.811 140.995 226.248 140.876L225.418 140.743C225.204 140.729 225.003 140.703 224.789 140.676C224.588 140.636 224.374 140.597 224.173 140.543C223.772 140.45 223.357 140.344 222.955 140.238C222.473 140.131 222.005 139.998 221.536 139.865C221.282 139.839 221.028 139.786 220.773 139.719C220.532 139.653 220.278 139.56 220.037 139.48C219.555 139.294 219.06 139.134 218.578 138.975C218.35 139.001 218.123 138.921 217.895 138.828C216.851 138.456 215.847 138.004 214.829 137.552L213.892 137.1L213.21 136.794C212.982 136.688 212.768 136.568 212.54 136.449C212.099 136.21 211.643 135.997 211.202 135.744L209.89 134.986C209.676 134.867 209.461 134.734 209.247 134.601L208.605 134.202L207.975 133.803C207.761 133.67 207.56 133.524 207.36 133.391C206.945 133.112 206.53 132.846 206.128 132.554C205.338 131.955 204.535 131.371 203.799 130.693C203.116 130.108 202.487 129.47 201.858 128.831L201.617 128.592L201.389 128.34L200.934 127.834L200.479 127.329L200.251 127.077L200.037 126.811C199.475 126.119 198.886 125.428 198.377 124.697L197.975 124.152C197.842 123.979 197.708 123.793 197.587 123.607L196.851 122.49C196.623 122.171 196.436 121.825 196.235 121.493L195.633 120.483C195.271 119.792 194.896 119.114 194.548 118.409L194.388 118.289L194.187 117.89C193.946 117.784 193.879 117.585 193.933 117.359L193.651 116.774C193.303 116.428 193.17 115.936 193.009 115.471L192.741 114.873C192.46 114.62 192.38 114.288 192.393 113.929C191.898 113.012 191.523 112.015 191.309 111.004C191.215 110.433 191.068 109.861 190.934 109.289L190.84 108.864C190.813 108.718 190.8 108.571 190.773 108.425C190.733 108.133 190.72 107.854 190.72 107.561C190.72 107.402 190.68 107.215 190.613 107.069C190.452 106.684 190.131 106.644 190.05 107.043C189.93 107.601 189.783 108.146 189.729 108.718C189.689 109.01 189.689 109.316 189.729 109.622C189.769 109.941 189.836 110.26 189.943 110.619C190.01 110.818 190.064 111.018 190.131 111.217C190.198 111.416 190.265 111.616 190.332 111.815C190.465 112.214 190.586 112.613 190.693 113.025C190.8 113.437 190.934 113.836 191.041 114.248C191.162 114.66 191.255 115.072 191.362 115.484C191.416 115.684 191.496 115.896 191.59 116.096C191.751 116.508 191.911 116.907 192.085 117.319C192.246 117.718 192.447 118.116 192.621 118.515L192.888 119.114C192.969 119.313 193.062 119.512 193.17 119.712L193.759 120.895C193.946 121.294 194.16 121.679 194.388 122.051C194.602 122.437 194.83 122.823 195.044 123.195C195.285 123.567 195.526 123.926 195.767 124.298C196.008 124.67 196.249 125.029 196.53 125.375C196.904 125.867 197.239 126.385 197.601 126.877L198.109 127.515C198.297 127.741 198.511 127.967 198.738 128.167C198.953 128.379 199.207 128.566 199.435 128.765C199.676 128.964 199.903 129.15 200.117 129.363C200.224 129.47 200.332 129.576 200.425 129.682C200.532 129.789 200.626 129.908 200.72 130.028L200.746 130.081L201.255 130.639C201.55 130.746 201.764 130.919 201.844 131.238L202.674 132.022L203.116 132.421C203.29 132.594 203.464 132.753 203.638 132.913C203.692 132.926 203.718 132.966 203.745 133.006C204.16 133.311 204.575 133.617 204.977 133.936C205.392 134.242 205.807 134.548 206.208 134.854L206.824 135.319L207.453 135.771C207.882 136.063 208.283 136.382 208.725 136.662C208.779 136.688 208.832 136.728 208.859 136.768C209.006 136.874 209.153 136.981 209.287 137.087C209.327 137.087 209.354 137.087 209.381 137.127L210.198 137.619C210.198 137.619 210.291 137.659 210.331 137.698L211.349 138.23L211.884 138.523C212.032 138.602 212.165 138.696 212.313 138.775C212.366 138.775 212.42 138.815 212.46 138.842L213.504 139.334C213.504 139.334 213.611 139.347 213.665 139.36L214.107 139.573L214.548 139.772L215.445 140.158C216.034 140.424 216.65 140.636 217.252 140.862C219.89 141.833 222.621 142.631 225.418 143.003C227.949 143.335 230.505 143.548 233.062 143.441C235.284 143.335 237.52 143.229 239.729 142.936C242.754 142.524 245.633 141.527 248.511 140.597C249.274 140.344 250.01 140.051 250.773 139.772C251.509 139.453 252.259 139.174 253.022 138.908C253.397 138.762 253.798 138.602 254.16 138.403C254.521 138.204 254.869 137.964 255.124 137.619C255.271 137.433 255.592 137.273 255.833 137.14C258.042 135.837 260.117 134.335 262.125 132.74C262.553 132.394 262.955 132.035 263.37 131.663C263.758 131.277 264.133 130.865 264.481 130.453C264.628 130.28 264.802 130.108 264.963 129.935L265.445 129.416C265.78 129.057 266.114 128.712 266.436 128.353L267.386 127.249C267.707 126.89 268.002 126.505 268.296 126.119C268.591 125.734 268.899 125.362 269.18 124.963C269.729 124.165 270.304 123.381 270.786 122.543L271.161 121.932C271.295 121.732 271.416 121.52 271.523 121.307L272.219 120.031C272.446 119.659 272.62 119.26 272.821 118.861C273.009 118.462 273.223 118.077 273.397 117.678C273.517 117.066 273.745 116.521 274.16 116.043C274.468 115.378 274.735 114.7 275.03 114.022C275.11 113.729 275.177 113.424 275.405 113.211C275.632 112.52 275.873 111.842 276.061 111.137" fill="black"/>
<path d="M290.131 109.957C290.211 109.558 290.238 109.132 290.372 108.747C290.572 108.162 290.693 107.564 290.827 106.979L291.014 106.088C291.081 105.796 291.135 105.49 291.161 105.184C291.242 104.586 291.322 103.988 291.402 103.376L291.469 102.924L291.509 102.472L291.603 101.568C291.777 100.252 291.777 98.9227 291.817 97.6066C291.817 96.9419 291.791 96.2905 291.764 95.6258C291.764 95.2934 291.75 94.9611 291.737 94.642L291.67 93.6583C291.617 93.0202 291.59 92.3821 291.563 91.744C291.523 91.066 291.483 90.4013 291.443 89.7233L291.416 89.2181L291.362 88.7129L291.255 87.7159C291.148 86.3732 290.894 85.0571 290.613 83.741C290.372 82.8104 289.756 81.9729 289.635 81.029C289.568 80.6435 289.461 80.2314 289.341 79.8459C289.194 79.3141 289.046 78.7957 288.886 78.2639C288.725 77.7454 288.551 77.2137 288.39 76.6952L288.149 75.9109C288.069 75.645 287.962 75.3924 287.882 75.1265L287.319 73.5711L287.172 73.1856L287.011 72.8001L286.69 72.0423C286.463 71.5372 286.262 71.0187 286.021 70.5268C285.78 70.0349 285.526 69.5431 285.258 69.0512L284.87 68.32C284.722 68.0807 284.575 67.8547 284.428 67.6155C282.299 64.1723 279.836 60.9153 276.985 58.0305C274.455 55.4914 271.697 53.1649 268.698 51.2107C265.392 49.0305 262.005 46.9833 258.337 45.5076C254.294 43.8991 250.131 42.5298 245.82 41.8518C242.46 41.3067 239.06 41.001 235.66 41.001C232.246 41.001 228.765 40.9478 225.379 41.6258C224.602 41.7986 223.812 41.9316 223.049 42.131L220.747 42.7425C219.234 43.2078 217.708 43.6864 216.249 44.2846C215.178 44.6834 214.134 45.1753 213.089 45.6273C212.554 45.84 212.059 46.1191 211.537 46.3584C211.028 46.611 210.506 46.8503 209.997 47.1162L208.498 47.9404L207.748 48.3525L207.012 48.7912L205.539 49.6819C205.057 49.9877 204.589 50.3067 204.107 50.6258C201.496 52.3806 199.06 54.388 196.811 56.5682C194.897 58.4559 192.982 60.357 191.376 62.484C189.341 65.2092 187.36 67.9744 185.82 71.0187C184.227 74.1561 182.728 77.3865 181.671 80.7632L181.135 82.5977C181.055 82.9035 180.948 83.2092 180.881 83.515L180.667 84.4456L180.452 85.3762C180.385 85.6819 180.305 86.001 180.252 86.3067L179.917 88.1812C179.85 88.4869 179.81 88.806 179.77 89.1251L179.649 90.0689C179.569 90.6937 179.475 91.3318 179.448 91.97L179.301 93.871L179.248 95.772C179.248 96.224 179.261 96.676 179.301 97.128C179.341 97.8193 179.395 98.5106 179.408 99.1886C179.435 99.8666 179.448 100.558 179.341 101.262C179.288 101.581 179.274 101.901 179.301 102.206C179.328 102.512 179.395 102.805 179.475 103.097C179.649 103.669 179.917 104.187 180.238 104.612C180.412 104.852 180.613 104.918 180.774 104.599C180.974 104.174 181.095 103.735 181.001 103.084L180.867 102.166C180.827 101.861 180.814 101.555 180.787 101.236C180.747 100.624 180.72 99.9995 180.693 99.388C180.693 98.7765 180.693 98.1516 180.707 97.5401V96.6228L180.774 95.7056C180.827 95.0542 180.72 94.3895 180.774 93.738C181.001 89.9094 181.63 86.094 182.755 82.4382C182.875 82.0261 182.996 81.614 183.116 81.2152C183.25 80.8163 183.384 80.4042 183.518 80.0054L183.906 78.7957L184.361 77.5992C184.522 77.1738 184.683 76.7484 184.843 76.323C185.031 75.8976 185.205 75.4855 185.379 75.0601L185.66 74.422L185.807 74.1029L185.968 73.7971C186.182 73.385 186.423 72.9862 186.664 72.5874C187.628 71.0453 188.538 69.4234 189.448 67.8016C189.676 67.3762 189.957 66.9773 190.225 66.5785C190.492 66.1797 190.774 65.7809 191.068 65.3821C191.363 64.9965 191.671 64.6243 191.978 64.2388C192.286 63.8666 192.581 63.4677 192.902 63.1088C193.197 62.7765 193.491 62.4441 193.772 62.1118C194.053 61.7794 194.308 61.4205 194.589 61.0748C194.95 60.583 195.392 60.0379 195.874 59.772C196.276 59.5327 196.637 59.2802 196.958 58.9744C197.28 58.6686 197.561 58.3363 197.842 57.9773C197.989 57.7779 198.177 57.5918 198.377 57.4057C198.565 57.2196 198.766 57.0468 198.966 56.8739C201.215 54.8799 203.638 53.0985 206.168 51.45C208.993 49.6155 212.099 48.2196 215.218 46.9567C218.993 45.4279 222.929 44.3245 226.945 43.5135C228.123 43.3008 229.301 43.0748 230.506 42.9951C231.108 42.9419 231.697 42.8754 232.3 42.8621C232.902 42.8488 233.504 42.8355 234.107 42.8222C234.415 42.8222 234.709 42.809 235.004 42.8222L235.901 42.8621C236.503 42.8887 237.105 42.902 237.708 42.9419L239.502 43.0881C239.796 43.1147 240.104 43.128 240.399 43.1679L241.295 43.2742L242.875 43.4737L244.455 43.7395C245.512 43.8991 246.543 44.1383 247.587 44.3643C248.109 44.4707 248.618 44.6036 249.14 44.7366L250.68 45.1221L252.206 45.5741C252.714 45.7336 253.223 45.8666 253.732 46.0394C254.388 46.2654 255.057 46.4914 255.713 46.7307L257.641 47.5416L258.123 47.741L258.591 47.967L259.542 48.4057L260.492 48.8311C260.8 48.9773 261.108 49.1369 261.429 49.2831C263.531 50.2403 265.472 51.4766 267.413 52.7129C270.117 54.481 272.567 56.6347 274.749 59.0143C275.07 59.3466 275.365 59.7056 275.686 60.0512C275.994 60.3968 276.315 60.7558 276.65 61.1014C277.279 61.806 277.935 62.5106 278.618 63.162C280.452 64.9833 281.777 67.2033 282.982 69.4633C283.37 70.2477 283.758 71.032 284.16 71.8163C284.522 72.614 284.896 73.4116 285.285 74.196C285.633 74.9936 286.007 75.8045 286.356 76.6155C286.663 77.4397 286.985 78.2639 287.293 79.0881C287.373 79.3407 287.453 79.6066 287.493 79.8592C287.895 82.4515 288.538 84.964 289.06 87.5431C289.153 88.0748 289.207 88.6199 289.234 89.1649C289.26 89.4308 289.26 89.71 289.26 89.9892C289.26 90.2683 289.274 90.5342 289.301 90.8134C289.568 93.9508 289.582 97.0881 289.461 100.239C289.381 101.462 289.287 102.685 289.086 103.908L288.953 104.825C288.926 104.971 288.912 105.131 288.886 105.277L288.792 105.729C288.671 106.341 288.564 106.939 288.471 107.55C288.377 108.056 288.243 108.561 288.109 109.053C287.975 109.545 287.841 110.05 287.667 110.528C287.493 111.007 287.319 111.499 287.145 111.977L286.878 112.695L286.583 113.413C285.593 115.912 284.548 118.398 283.29 120.778C283.076 121.19 282.848 121.589 282.621 122.001L281.871 123.184C281.617 123.57 281.376 123.968 281.108 124.354L280.291 125.484L279.742 126.255L279.153 126.999C278.765 127.491 278.39 127.997 277.989 128.488L276.771 129.937L276.463 130.296L276.141 130.642L275.499 131.347C275.218 131.652 274.937 131.971 274.629 132.264C274.321 132.543 273.999 132.822 273.665 133.088C272.701 133.859 271.898 134.816 270.947 135.614C270.532 135.946 270.104 136.265 269.676 136.584C269.247 136.903 268.846 137.249 268.39 137.555C267.52 138.166 266.664 138.818 265.78 139.403C265.285 139.735 264.803 140.081 264.294 140.386L262.741 141.277C262.473 141.423 262.232 141.583 261.965 141.716L261.162 142.115C260.626 142.394 260.104 142.66 259.569 142.939C257.012 144.228 254.307 145.252 251.577 146.129L249.89 146.648C249.609 146.741 249.328 146.807 249.033 146.874L248.176 147.087L247.32 147.299L246.891 147.406C246.744 147.432 246.597 147.459 246.463 147.485C245.887 147.592 245.312 147.685 244.723 147.778C241.162 148.283 237.561 148.549 233.973 148.416C233.089 148.416 232.233 148.257 231.349 148.177C230.988 148.137 230.613 148.137 230.251 148.11L229.167 148.031C228.444 147.977 227.721 147.951 227.012 147.791L225.968 147.632C225.7 147.605 225.432 147.579 225.178 147.539C224.91 147.499 224.656 147.432 224.401 147.392C223.879 147.273 223.371 147.153 222.848 147.02C222.541 146.967 222.246 146.887 221.938 146.807L221.028 146.568C220.707 146.515 220.385 146.449 220.064 146.369C219.743 146.289 219.435 146.183 219.127 146.076C218.511 145.864 217.882 145.651 217.253 145.451C216.972 145.451 216.677 145.358 216.383 145.252L215.392 144.893L214.897 144.707L214.415 144.508L212.474 143.683L211.282 143.112C210.693 142.846 210.104 142.593 209.542 142.288L207.828 141.41C206.717 140.772 205.593 140.16 204.522 139.456C203.438 138.805 202.42 138.073 201.376 137.369C200.867 136.997 200.372 136.611 199.863 136.225C199.622 136.026 199.355 135.853 199.127 135.641L198.417 135.016C196.677 133.527 195.098 131.878 193.598 130.163C192.875 129.286 192.126 128.422 191.456 127.505C191.122 127.053 190.76 126.601 190.439 126.135L189.488 124.726C189.355 124.514 189.207 124.314 189.073 124.101L188.685 123.463L187.922 122.187C187.668 121.762 187.454 121.31 187.213 120.884C186.985 120.446 186.744 120.02 186.517 119.568L186.329 119.409L186.075 118.89C185.807 118.731 185.727 118.491 185.754 118.212L185.379 117.468C184.977 117.002 184.79 116.391 184.576 115.806L184.227 115.048C183.92 114.716 183.799 114.304 183.786 113.852C183.183 112.682 182.728 111.406 182.434 110.129C182.3 109.398 182.112 108.68 181.938 107.963L181.818 107.418C181.778 107.231 181.751 107.059 181.724 106.872C181.671 106.514 181.63 106.141 181.63 105.769C181.63 105.57 181.563 105.33 181.497 105.131C181.309 104.639 180.988 104.573 180.921 105.078C180.827 105.769 180.72 106.447 180.68 107.178C180.653 107.55 180.68 107.923 180.733 108.308C180.787 108.707 180.881 109.119 181.015 109.558L181.242 110.316L181.497 111.073C181.657 111.579 181.818 112.084 181.965 112.602L182.072 112.988L182.193 113.373C182.273 113.626 182.353 113.878 182.434 114.144C182.594 114.649 182.728 115.168 182.875 115.686C182.956 115.939 183.063 116.205 183.17 116.457L183.799 117.986C184.027 118.491 184.254 118.997 184.482 119.488C184.924 120.499 185.446 121.483 185.941 122.466C186.182 122.971 186.476 123.437 186.744 123.915C187.025 124.394 187.293 124.872 187.588 125.351L188.511 126.734L188.98 127.425C189.14 127.651 189.314 127.864 189.488 128.09C189.729 128.395 189.957 128.714 190.185 129.033C190.412 129.353 190.626 129.672 190.881 129.977L191.523 130.762C191.764 131.054 192.032 131.333 192.313 131.599C192.594 131.865 192.889 132.104 193.183 132.357C193.772 132.849 194.308 133.381 194.803 133.952L194.843 134.005L195.486 134.697C195.834 134.843 196.088 135.082 196.235 135.428L197.306 136.398L197.869 136.903C198.083 137.116 198.31 137.316 198.538 137.515C198.592 137.542 198.645 137.581 198.685 137.635C199.207 138.02 199.729 138.406 200.238 138.805C200.76 139.177 201.282 139.562 201.804 139.948C202.313 140.347 202.849 140.706 203.384 141.078L204.187 141.636L204.589 141.915L205.004 142.168C205.071 142.208 205.138 142.248 205.178 142.301C205.365 142.434 205.553 142.553 205.727 142.686C205.767 142.686 205.807 142.7 205.847 142.74L206.891 143.338C206.891 143.338 207.012 143.391 207.065 143.431L208.351 144.096L209.02 144.468C209.194 144.574 209.381 144.667 209.569 144.76C209.636 144.773 209.689 144.8 209.756 144.853L211.081 145.465C211.081 145.465 211.215 145.491 211.282 145.518C212.768 146.183 214.281 146.821 215.82 147.353C219.154 148.549 222.607 149.493 226.128 149.958C229.314 150.384 232.527 150.623 235.74 150.503C238.538 150.37 241.349 150.211 244.133 149.825C247.935 149.293 251.577 148.084 255.191 146.901C256.141 146.581 257.079 146.196 258.029 145.85C258.966 145.465 259.903 145.079 260.854 144.734C261.322 144.547 261.817 144.335 262.273 144.082C262.728 143.83 263.17 143.55 263.518 143.152C263.718 142.939 264.107 142.74 264.428 142.553C267.212 140.932 269.85 139.07 272.38 137.063C272.915 136.624 273.437 136.172 273.946 135.707C274.2 135.481 274.441 135.228 274.682 134.976C274.923 134.723 275.151 134.471 275.378 134.218C275.579 133.992 275.78 133.793 275.994 133.58C276.195 133.367 276.409 133.141 276.61 132.929L277.868 131.612L279.073 130.23L279.676 129.539L280.238 128.821C280.613 128.342 280.987 127.864 281.362 127.372L282.42 125.883C282.594 125.63 282.781 125.391 282.942 125.125L283.424 124.354C283.745 123.836 284.08 123.33 284.388 122.799L285.271 121.203C285.552 120.725 285.793 120.233 286.034 119.741L286.771 118.265C286.958 117.508 287.252 116.83 287.734 116.218C287.949 115.806 288.109 115.381 288.283 114.955L288.819 113.679C288.939 113.307 289.02 112.935 289.274 112.655C289.568 111.791 289.876 110.94 290.117 110.05" fill="black"/>
<path d="M285.325 109.333C285.392 108.96 285.419 108.575 285.526 108.229C286.155 106.076 286.409 103.856 286.61 101.649C286.758 100.439 286.758 99.2293 286.784 98.0195C286.784 97.408 286.744 96.8098 286.731 96.2115C286.731 95.9058 286.717 95.6133 286.691 95.3075L286.624 94.4036C286.57 93.8186 286.557 93.2337 286.517 92.6488C286.476 92.0372 286.45 91.4124 286.409 90.8009L286.383 90.3356L286.343 89.8836L286.249 88.9663C286.155 87.73 285.914 86.5202 285.66 85.3238C285.432 84.473 284.843 83.7152 284.736 82.8511C284.683 82.4922 284.576 82.1199 284.468 81.761C284.335 81.2824 284.201 80.8038 284.067 80.312C283.92 79.8334 283.772 79.3548 283.612 78.8762C283.344 77.9058 282.969 76.9619 282.648 76.0047C282.487 75.5262 282.273 75.0609 282.086 74.5956C281.885 74.1303 281.697 73.665 281.483 73.1997C281.256 72.7477 281.028 72.2957 280.787 71.8437L280.426 71.179C280.305 70.953 280.158 70.7403 280.037 70.5276C278.096 67.3637 275.861 64.3592 273.264 61.7137C270.961 59.374 268.444 57.2204 265.713 55.4257C265.339 55.1598 264.95 54.9205 264.576 54.6812C264.201 54.4287 263.813 54.1894 263.438 53.9368C262.675 53.4582 261.898 53.0062 261.122 52.5276C260.332 52.1022 259.542 51.6502 258.739 51.2381L257.507 50.6532C257.106 50.4671 256.691 50.2677 256.262 50.1081C252.568 48.6192 248.766 47.3297 244.817 46.7049C241.751 46.213 238.645 45.9072 235.526 45.9072C232.394 45.9072 229.208 45.8142 226.102 46.439C225.392 46.5985 224.669 46.7315 223.96 46.9043L221.845 47.4626C220.453 47.9013 219.074 48.34 217.735 48.8984C216.744 49.2706 215.807 49.7226 214.844 50.148L214.482 50.3075L214.134 50.4804L213.425 50.826C212.956 51.0653 212.487 51.278 212.019 51.5306L210.64 52.2883C210.412 52.4213 210.185 52.5409 209.957 52.6739L209.288 53.086L207.949 53.8969C207.508 54.1894 207.079 54.4818 206.651 54.7743C204.281 56.3962 202.059 58.244 200.024 60.2647C198.284 61.9929 196.544 63.7477 195.098 65.7152C193.264 68.2278 191.457 70.7669 190.078 73.5586C188.646 76.4434 187.293 79.3947 186.33 82.4922C186.022 83.6089 185.66 84.7256 185.433 85.8556L185.232 86.7064L185.138 87.1318L185.058 87.5572L184.75 89.2721C184.696 89.5646 184.656 89.8437 184.629 90.1362L184.522 91.0003L184.415 91.8644C184.375 92.1569 184.362 92.4493 184.348 92.7285L184.214 94.47L184.174 96.2115C184.174 96.6236 184.201 97.0358 184.228 97.4479C184.268 98.086 184.322 98.7108 184.335 99.3356C184.362 99.9604 184.375 100.585 184.255 101.237C184.201 101.529 184.188 101.822 184.201 102.101C184.228 102.38 184.295 102.646 184.375 102.912C184.536 103.43 184.803 103.895 185.125 104.294C185.299 104.507 185.5 104.573 185.66 104.268C185.861 103.882 185.995 103.47 185.901 102.872L185.781 102.034C185.741 101.755 185.727 101.476 185.714 101.183C185.674 100.625 185.647 100.053 185.633 99.4951C185.633 98.9368 185.633 98.3651 185.647 97.8068V96.9693L185.714 96.1318C185.754 95.5335 185.66 94.9353 185.687 94.3371C185.888 90.8408 186.45 87.3578 187.467 84.0077C187.575 83.6355 187.682 83.2632 187.789 82.891C187.909 82.5188 188.03 82.1598 188.15 81.7876L188.498 80.6842L188.9 79.5941C189.047 79.2086 189.181 78.8098 189.328 78.4242C189.489 78.0387 189.65 77.6532 189.81 77.2677C189.984 76.8821 190.145 76.4966 190.332 76.1244C190.533 75.7522 190.747 75.3799 190.975 75.021C191.403 74.3164 191.845 73.5985 192.26 72.8674C192.354 72.6812 192.461 72.4951 192.554 72.309C192.662 72.1229 192.769 71.9501 192.876 71.764C193.09 71.3917 193.291 71.0195 193.492 70.6473C193.692 70.2485 193.933 69.8895 194.188 69.5173C194.429 69.1451 194.696 68.7861 194.951 68.4272C195.218 68.0682 195.5 67.7226 195.781 67.377C196.062 67.0313 196.33 66.6857 196.611 66.34C197.146 65.7285 197.668 65.1303 198.123 64.4656C198.445 64.0136 198.846 63.5084 199.288 63.2691C199.663 63.0564 199.984 62.8171 200.279 62.538C200.56 62.2588 200.814 61.953 201.068 61.6074C201.336 61.2219 201.724 60.9028 202.073 60.5838C204.121 58.7492 206.316 57.1007 208.605 55.5985C211.176 53.9102 214 52.634 216.838 51.4641C220.279 50.055 223.866 49.0313 227.521 48.2869C228.592 48.0875 229.676 47.888 230.774 47.8083C231.323 47.7684 231.872 47.7019 232.42 47.6886C232.969 47.6886 233.518 47.662 234.067 47.662C234.348 47.662 234.616 47.6488 234.884 47.662L235.7 47.7019C236.249 47.7285 236.798 47.7418 237.347 47.7817L238.98 47.9279C239.248 47.9545 239.529 47.9678 239.797 48.0077L240.613 48.114L242.059 48.3002L243.491 48.5527C244.455 48.699 245.392 48.9383 246.343 49.1377C246.825 49.2307 247.28 49.3637 247.748 49.4833L249.154 49.8555L250.546 50.281C251.015 50.4139 251.483 50.5468 251.938 50.7197C254.375 51.4907 256.664 52.6473 258.94 53.7241C260.854 54.6015 262.621 55.7448 264.375 56.888C266.825 58.5232 269.06 60.4907 271.028 62.6975C271.59 63.3223 272.153 63.987 272.755 64.6118C273.317 65.2765 273.933 65.888 274.549 66.4863C276.236 68.1347 277.414 70.1953 278.498 72.2558C278.846 72.9737 279.207 73.7049 279.555 74.4095C279.877 75.1406 280.225 75.8585 280.573 76.5897C280.894 77.3208 281.229 78.052 281.537 78.7965C281.818 79.5542 282.112 80.2987 282.393 81.0564C282.46 81.2824 282.541 81.535 282.581 81.761C282.902 84.1406 283.491 86.4272 283.986 88.7802C284.08 89.2721 284.12 89.764 284.147 90.2558C284.161 90.5084 284.174 90.7477 284.174 91.0003C284.174 91.2529 284.187 91.5055 284.214 91.7581C284.455 94.6163 284.482 97.4878 284.388 100.359C284.321 101.476 284.254 102.593 284.067 103.709L283.946 104.547L283.893 104.959L283.812 105.371C283.705 105.929 283.612 106.474 283.531 107.033C283.505 107.272 283.451 107.498 283.384 107.724C283.331 107.95 283.264 108.176 283.21 108.415C283.09 108.867 282.969 109.319 282.822 109.771C282.661 110.21 282.501 110.649 282.34 111.101L282.099 111.765C282.019 111.978 281.925 112.204 281.831 112.417C280.948 114.703 280.011 116.977 278.886 119.17C278.685 119.542 278.484 119.928 278.284 120.287C278.069 120.659 277.842 121.018 277.614 121.377C277.387 121.736 277.159 122.095 276.918 122.454L276.169 123.491L275.673 124.195C275.513 124.435 275.325 124.647 275.151 124.887L274.094 126.256C273.344 127.133 272.634 128.037 271.845 128.875C271.59 129.154 271.336 129.446 271.068 129.712C270.787 129.978 270.493 130.231 270.185 130.457C269.957 130.63 269.743 130.816 269.542 131.015C269.435 131.108 269.341 131.214 269.248 131.321C269.154 131.414 269.047 131.52 268.94 131.613C268.538 132.012 268.15 132.424 267.708 132.796C267.333 133.116 266.932 133.395 266.557 133.7C266.169 133.993 265.794 134.312 265.392 134.591C264.991 134.87 264.602 135.163 264.214 135.442C264.013 135.588 263.826 135.734 263.625 135.881L263.023 136.293C262.581 136.599 262.126 136.904 261.671 137.197L260.252 138.008C260.011 138.141 259.783 138.287 259.542 138.407L258.819 138.779C258.337 139.031 257.855 139.284 257.373 139.537C255.044 140.72 252.581 141.677 250.078 142.474L248.538 142.94C248.284 143.02 248.016 143.086 247.762 143.152L246.985 143.352L246.209 143.538C245.941 143.604 245.687 143.671 245.419 143.711C244.884 143.804 244.361 143.897 243.826 143.977C240.573 144.429 237.28 144.655 234.013 144.535C233.21 144.535 232.42 144.375 231.617 144.309C230.948 144.269 230.292 144.216 229.636 144.176C228.98 144.136 228.311 144.096 227.668 143.95L226.718 143.791C226.477 143.764 226.236 143.737 225.995 143.711C225.754 143.671 225.513 143.618 225.285 143.565C224.817 143.458 224.348 143.339 223.866 143.219C223.304 143.099 222.769 142.94 222.22 142.794C221.925 142.754 221.631 142.687 221.336 142.621C221.055 142.541 220.761 142.435 220.479 142.342C219.917 142.142 219.342 141.943 218.779 141.757C218.512 141.757 218.244 141.677 217.989 141.57C216.785 141.145 215.607 140.613 214.429 140.108L213.344 139.59L212.541 139.231C212.273 139.111 212.019 138.965 211.765 138.832C211.242 138.553 210.72 138.3 210.212 138.021L208.699 137.144L208.324 136.931L207.949 136.692L207.213 136.226L206.477 135.761C206.236 135.615 205.995 135.442 205.767 135.282L204.348 134.312C203.438 133.607 202.501 132.943 201.658 132.158L201.068 131.64L200.774 131.374L200.493 131.095L199.382 129.991L199.101 129.712L198.833 129.42L198.311 128.848L197.789 128.277L197.521 127.984L197.267 127.678C196.611 126.867 195.928 126.083 195.326 125.232L194.857 124.607C194.696 124.395 194.549 124.195 194.402 123.969L193.532 122.68C193.277 122.308 193.05 121.909 192.809 121.523L192.113 120.353C191.885 119.955 191.684 119.556 191.47 119.157C191.269 118.758 191.042 118.359 190.841 117.947L190.667 117.801L190.439 117.336C190.185 117.203 190.105 116.977 190.145 116.711L189.81 116.033C189.435 115.607 189.275 115.062 189.087 114.517L188.779 113.826C188.485 113.52 188.378 113.148 188.378 112.723C187.816 111.659 187.401 110.489 187.146 109.319C187.026 108.655 186.865 107.99 186.704 107.339L186.584 106.847C186.557 106.687 186.53 106.514 186.504 106.342C186.463 106.009 186.423 105.677 186.423 105.331C186.423 105.145 186.37 104.932 186.303 104.76C186.129 104.308 185.808 104.254 185.727 104.72C185.62 105.358 185.5 105.983 185.446 106.647C185.446 106.82 185.419 106.98 185.433 107.152C185.433 107.325 185.459 107.498 185.486 107.684C185.54 108.043 185.62 108.429 185.741 108.827C185.808 109.053 185.874 109.293 185.955 109.519L186.182 110.21C186.33 110.675 186.477 111.141 186.611 111.606L186.704 111.965L186.812 112.31C186.878 112.536 186.959 112.776 187.026 113.015C187.16 113.48 187.293 113.959 187.414 114.438C187.481 114.677 187.575 114.903 187.682 115.142L188.257 116.538C188.458 117.003 188.672 117.455 188.873 117.921L189.181 118.612L189.342 118.957L189.516 119.29L190.198 120.646C190.413 121.098 190.68 121.536 190.921 121.975C191.176 122.414 191.43 122.853 191.684 123.291C191.965 123.717 192.247 124.142 192.528 124.568C192.809 124.993 193.09 125.418 193.411 125.817C193.853 126.375 194.228 126.987 194.67 127.545L195.245 128.277C195.473 128.542 195.714 128.795 195.968 129.034C196.222 129.274 196.504 129.5 196.758 129.726C197.026 129.952 197.293 130.191 197.534 130.43C197.655 130.55 197.775 130.669 197.896 130.802C198.016 130.922 198.137 131.055 198.244 131.188L198.271 131.241L198.86 131.879C199.181 132.012 199.422 132.225 199.542 132.557L200.506 133.448L201.015 133.913C201.216 134.113 201.417 134.299 201.631 134.485C201.684 134.511 201.724 134.538 201.765 134.591C202.247 134.937 202.715 135.296 203.184 135.668C203.666 136.027 204.134 136.373 204.616 136.731C204.857 136.904 205.085 137.09 205.326 137.263L206.048 137.768L206.771 138.287C207.012 138.46 207.253 138.633 207.508 138.792C207.574 138.832 207.628 138.872 207.668 138.925C207.842 139.045 208.003 139.164 208.177 139.284C208.217 139.284 208.257 139.297 208.284 139.337L209.234 139.895C209.234 139.895 209.342 139.949 209.395 139.988L210.573 140.6L211.189 140.946C211.35 141.039 211.51 141.145 211.684 141.225C211.751 141.238 211.805 141.265 211.845 141.305L213.05 141.876C213.05 141.876 213.17 141.903 213.237 141.916L213.746 142.155L214.268 142.381L215.299 142.82C215.981 143.126 216.691 143.365 217.387 143.631C220.439 144.748 223.585 145.638 226.811 146.077C229.73 146.476 232.675 146.702 235.62 146.596C238.177 146.476 240.76 146.343 243.304 145.997C246.785 145.505 250.118 144.389 253.424 143.299C254.295 143.006 255.151 142.661 256.021 142.342C256.865 141.983 257.735 141.637 258.605 141.318C259.047 141.145 259.489 140.959 259.917 140.72C260.332 140.494 260.734 140.214 261.055 139.842C261.229 139.63 261.59 139.457 261.885 139.297C264.428 137.795 266.838 136.08 269.14 134.219C269.622 133.82 270.104 133.395 270.573 132.969C271.028 132.531 271.456 132.065 271.871 131.587C272.045 131.387 272.246 131.188 272.434 130.988L272.996 130.39C273.384 129.978 273.772 129.579 274.147 129.167L275.231 127.891C275.406 127.678 275.606 127.466 275.767 127.253L276.276 126.588C276.61 126.149 276.972 125.711 277.293 125.259C277.922 124.342 278.592 123.438 279.154 122.48L279.596 121.762C279.743 121.523 279.89 121.284 280.024 121.045L280.827 119.582C281.082 119.144 281.282 118.692 281.523 118.24C281.751 117.788 281.978 117.349 282.193 116.884C282.34 116.179 282.621 115.554 283.063 114.996C283.411 114.225 283.719 113.44 284.053 112.669C284.147 112.324 284.227 111.978 284.468 111.739C284.736 110.955 285.017 110.157 285.231 109.346" fill="black"/>
<path d="M277.079 132.448C276.878 132.674 276.717 132.847 276.369 132.98H276.329L275.954 133.18C276.008 133.299 275.954 133.366 275.566 133.406L275.017 133.725L274.763 133.884C274.763 133.884 274.763 133.884 274.776 133.884L275.044 134.084C275.044 134.084 275.111 134.11 275.111 134.124C275.7 134.389 276.142 134.655 276.597 134.934C276.824 135.081 277.039 135.227 277.266 135.373C277.373 135.453 277.494 135.519 277.614 135.626C277.694 135.679 277.694 135.692 277.735 135.719L277.828 135.799C277.828 135.799 277.855 135.825 277.855 135.852L277.962 135.985C277.962 135.985 277.989 135.985 278.002 135.985L278.257 136.144C278.257 136.144 278.297 136.144 278.297 136.171L278.605 136.357L278.752 136.477L278.859 136.583C278.859 136.583 278.899 136.583 278.899 136.61L279.18 136.835C279.18 136.835 279.221 136.835 279.247 136.835L280.198 137.607C280.546 137.886 280.854 138.205 281.188 138.497C281.51 138.79 281.844 139.082 282.192 139.361C282.514 139.614 282.808 139.867 283.116 140.132C283.424 140.398 283.719 140.677 284.026 140.93C284.294 141.156 284.549 141.395 284.789 141.661C285.017 141.927 285.245 142.206 285.472 142.472C285.619 142.658 285.793 142.831 285.968 142.991C286.142 143.163 286.316 143.323 286.49 143.496C286.838 143.828 287.186 144.16 287.44 144.573C287.721 144.998 288.056 145.384 288.243 145.889C288.337 146.155 288.444 146.394 288.846 146.394C288.953 146.394 289.006 146.5 289.06 146.567C289.314 146.886 289.569 147.191 289.796 147.524C290.037 147.856 290.278 148.175 290.479 148.534C290.653 148.827 290.88 149.093 291.162 149.319C291.282 149.412 291.349 149.545 291.443 149.664L291.951 150.422L292.433 151.18C292.594 151.432 292.741 151.672 292.889 151.924C292.969 152.057 293.022 152.15 293.089 152.27L293.183 152.443C293.183 152.443 293.196 152.482 293.21 152.496C293.21 152.496 293.21 152.522 293.223 152.536C293.223 152.536 293.237 152.589 293.25 152.629C293.25 152.669 293.263 152.695 293.263 152.748C293.263 152.841 293.277 152.934 293.263 153.041C293.33 153.121 293.357 153.2 293.357 153.267C293.344 153.347 293.29 153.413 293.183 153.48C293.156 153.573 293.129 153.666 293.089 153.759C293.049 153.852 293.036 153.945 292.982 154.038C292.982 154.131 292.982 154.211 292.822 154.251C292.768 154.437 292.688 154.623 292.621 154.809C292.621 154.902 292.661 155.022 292.607 155.101C292.299 155.567 292.246 156.138 291.965 156.643C291.831 156.923 291.684 157.189 291.55 157.481C291.403 157.76 291.269 158.053 291.081 158.319C291.001 158.451 290.907 158.584 290.8 158.677C290.546 158.89 290.291 159.09 290.01 159.262C289.876 159.355 289.743 159.448 289.609 159.542C289.475 159.635 289.354 159.728 289.234 159.847C289.073 160.007 289.113 160.446 288.859 160.499C288.752 160.512 288.658 160.565 288.578 160.618C288.35 160.751 288.096 160.858 287.842 160.964C287.587 161.057 287.32 161.124 287.065 161.203C286.543 161.336 286.021 161.469 285.539 161.669C285.325 161.775 285.097 161.868 284.87 161.934C284.642 162.014 284.415 162.094 284.187 162.16C283.719 162.293 283.263 162.44 282.781 162.559C282.581 162.612 282.366 162.679 282.152 162.719C281.938 162.759 281.724 162.812 281.51 162.852C281.081 162.958 280.653 163.011 280.225 163.118C279.743 163.224 279.261 163.224 278.765 163.224C278.27 163.197 277.788 163.184 277.306 163.211C277.039 163.211 276.771 163.211 276.503 163.197C276.235 163.197 275.968 163.171 275.7 163.131C275.432 163.104 275.164 163.064 274.897 163.038H274.709C274.709 163.038 274.669 163.025 274.629 163.011L274.482 162.971C274.482 162.971 274.361 162.945 274.308 162.932C273.545 162.706 272.808 162.293 272.072 161.881C271.322 161.469 270.773 160.698 270.01 160.299C269.301 159.927 268.605 159.542 267.869 159.209C266.798 158.717 265.807 158.119 264.803 157.508C264.12 157.082 263.411 156.683 262.701 156.285C262.099 155.939 261.604 155.447 260.974 155.128C260.184 154.729 259.542 154.104 258.792 153.652C258.002 153.174 257.346 152.522 256.65 151.937C255.633 151.1 254.629 150.249 253.652 149.385C253.558 149.305 253.451 149.265 253.357 149.199C253.076 148.986 252.741 148.84 252.701 148.348C252.674 147.909 252.286 147.909 251.751 148.109C251.604 148.162 251.443 148.268 251.363 148.468C251.255 148.72 251.215 148.933 251.363 149.053C251.885 149.505 252.273 150.05 252.715 150.568C252.835 150.701 253.023 150.754 253.156 150.861C253.933 151.539 254.736 152.19 255.486 152.895C255.82 153.214 256.209 153.453 256.57 153.719C256.958 154.011 257.413 154.224 257.721 154.649C258.016 155.075 258.444 155.327 258.913 155.54C259.395 155.753 259.756 156.138 260.171 156.471C260.359 156.617 260.533 156.776 260.787 156.83C260.961 156.869 261.135 156.936 261.162 157.149C261.202 157.508 261.416 157.601 261.684 157.627C261.831 157.654 261.965 157.72 262.072 157.8C262.728 158.252 263.371 158.744 264.08 159.143C264.856 159.595 265.526 160.206 266.302 160.672C267.239 161.23 268.176 161.802 269.207 162.214C270.412 162.692 271.363 163.61 272.527 164.261C272.795 164.407 273.049 164.553 273.344 164.673C273.491 164.739 273.625 164.806 273.786 164.859L274.026 164.952L274.187 165.005C274.187 165.005 274.321 165.032 274.375 165.045C274.535 165.072 274.696 165.085 274.856 165.112L275.298 165.165C275.593 165.191 275.874 165.218 276.168 165.218C276.557 165.218 276.945 165.258 277.32 165.285C277.708 165.298 278.096 165.298 278.471 165.245C278.792 165.205 279.1 165.165 279.421 165.138C279.743 165.098 280.051 165.085 280.372 165.019C281.255 164.872 282.139 164.819 283.063 164.766C283.33 164.753 283.598 164.713 283.852 164.646C284.107 164.567 284.361 164.447 284.575 164.274C284.883 164.048 285.191 163.889 285.539 163.782C285.887 163.689 286.235 163.61 286.597 163.543C286.717 163.516 286.838 163.49 286.958 163.45C287.079 163.41 287.199 163.37 287.32 163.33C287.547 163.237 287.788 163.158 288.002 163.025C288.217 162.892 288.431 162.759 288.632 162.626C288.846 162.493 289.046 162.347 289.247 162.2C289.314 162.16 289.368 162.107 289.448 162.107C289.876 162.081 290.225 161.921 290.546 161.695C290.854 161.469 291.121 161.19 291.362 160.884C291.47 160.765 291.603 160.685 291.751 160.605C291.898 160.525 292.032 160.446 292.152 160.326C292.808 159.674 293.384 158.93 293.745 158.066C294.013 157.401 294.374 156.776 294.535 156.072C294.669 155.474 294.963 154.968 295.151 154.384C295.271 153.998 295.325 153.586 295.298 153.147C295.271 152.708 295.218 152.27 294.977 151.751C294.963 151.698 294.937 151.672 294.923 151.645L294.87 151.552C294.87 151.552 294.803 151.432 294.763 151.366C294.696 151.246 294.629 151.113 294.575 151.007C294.441 150.781 294.334 150.555 294.2 150.329C294.026 150.023 293.839 149.744 293.652 149.465C293.464 149.186 293.25 148.92 293.036 148.654C292.889 148.481 292.768 148.295 292.701 148.056C292.621 147.71 292.233 147.577 292.059 147.285C291.751 146.806 291.429 146.327 291.028 145.915C290.573 145.463 290.251 144.905 289.823 144.44C289.287 143.895 288.806 143.283 288.283 142.738C287.855 142.286 287.4 141.861 287.012 141.355C286.731 140.97 286.423 140.598 286.101 140.225C285.78 139.867 285.459 139.508 285.124 139.149C284.964 138.976 284.856 138.737 284.709 138.564C284.441 138.258 284.053 138.112 283.799 137.806L283.585 137.607C283.33 137.46 283.143 137.234 282.942 137.022L282.554 136.689C282.192 136.57 282.032 136.197 281.737 135.998C281.617 136.025 281.55 135.985 281.483 135.932L280.586 135.2L280.305 134.974C280.01 134.775 279.702 134.602 279.408 134.403L278.953 134.124L278.739 133.991C278.739 133.991 278.739 133.991 278.712 133.991C278.645 133.977 278.551 133.964 278.444 133.937C278.337 133.911 278.203 133.871 278.096 133.818C278.096 133.818 278.123 133.791 278.136 133.778C278.297 133.672 277.159 132.316 277.065 132.435" fill="black"/>
<path d="M272.125 149.889C272.125 149.889 272.245 149.849 272.259 149.889C272.326 150.088 272.593 150.075 272.754 150.181C272.915 150.301 273.169 150.328 273.383 150.407C273.437 150.421 273.477 150.447 273.504 150.487C273.611 150.673 273.611 150.966 273.798 151.072C273.865 151.112 274.2 150.886 274.16 151.019C274.16 151.072 274.16 151.112 274.173 151.125C274.374 151.404 274.253 151.976 274.521 152.189C274.762 152.388 274.949 152.641 275.204 152.827C275.431 152.986 275.632 153.186 275.9 153.305C276.194 153.452 276.261 153.797 276.529 153.97C276.81 154.169 276.944 154.502 277.225 154.688C277.453 154.847 277.587 155.073 277.747 155.273C277.921 155.472 277.801 155.924 278.015 156.084C278.216 156.23 278.417 156.39 278.671 156.496C279.032 156.642 279.314 156.881 279.581 157.107C279.769 157.267 279.996 157.4 280.224 157.533C280.411 157.639 280.465 157.878 280.692 157.972C280.974 158.078 281.067 158.357 281.308 158.503C281.563 158.65 281.656 158.942 281.817 159.181C282.058 159.514 282.299 159.833 282.553 160.165C282.58 160.192 282.633 160.192 282.66 160.205C282.754 160.271 282.901 160.271 282.741 160.59C282.593 160.883 282.848 160.777 283.263 160.458C283.383 160.364 283.517 160.245 283.638 160.085C283.798 159.873 283.905 159.726 283.865 159.7C283.718 159.58 283.704 159.328 283.651 159.115C283.651 159.062 283.53 159.088 283.504 159.048C283.316 158.809 283.129 158.57 282.995 158.291C282.928 158.158 282.821 158.091 282.727 157.998C282.62 157.892 282.446 157.852 282.473 157.639C282.5 157.426 282.366 157.347 282.178 157.307C281.991 157.267 281.964 157.081 281.87 156.948C281.83 156.881 281.804 156.815 281.683 156.828C281.589 156.828 281.522 156.828 281.616 156.695C281.777 156.456 281.683 156.456 281.536 156.483C281.455 156.496 281.415 156.483 281.389 156.443C281.228 156.27 281.094 156.07 280.88 155.924C280.652 155.765 280.572 155.472 280.371 155.286C280.13 155.06 279.889 154.834 279.541 154.701C279.126 154.555 279.113 154.05 278.925 153.704C278.765 153.398 278.577 153.079 278.31 152.867C278.122 152.734 278.055 152.481 277.828 152.388C277.64 152.308 277.506 152.175 277.346 152.069C277.118 151.923 276.984 151.684 276.904 151.404C276.864 151.245 276.77 151.112 276.502 151.152C276.141 151.205 276.114 150.952 276.061 150.713C276.02 150.554 275.98 150.407 275.86 150.314C275.739 150.234 275.619 150.141 275.498 150.062C275.485 150.048 275.458 150.035 275.472 149.995C275.632 149.543 275.405 149.463 275.177 149.384C275.083 149.344 275.15 149.158 275.083 149.091C274.909 148.892 274.708 148.719 274.401 148.666C274.16 148.613 274.026 148.466 273.785 148.426C273.584 148.387 273.544 148.187 273.45 148.041C273.33 147.842 273.075 147.802 272.861 147.709C272.714 147.642 272.62 147.509 272.526 147.39C272.393 147.23 272.219 147.11 272.045 147.004C271.978 146.964 271.937 146.924 271.937 146.805C271.937 146.632 271.723 146.738 271.67 146.645C271.563 146.499 271.455 146.353 271.281 146.286C271.094 146.206 271 146.007 270.826 145.914C270.612 145.794 270.438 145.635 270.237 145.515C270.077 145.409 269.876 145.342 269.769 145.156C269.608 144.877 269.367 144.691 269.153 144.465C269.099 144.412 269.086 144.292 269.046 144.226C268.966 144.119 268.778 144.186 268.698 144.079L268.631 144.026C268.524 144.026 268.47 143.946 268.417 143.867L268.283 143.774C268.122 143.84 268.109 143.627 267.988 143.601C267.921 143.681 267.895 143.667 267.868 143.654L267.573 143.441L267.48 143.375C267.265 143.308 267.065 143.229 266.837 143.162C266.623 143.109 266.369 143.135 266.181 143.042C266.007 142.976 265.833 142.87 265.659 142.79C265.485 142.697 265.298 142.617 265.124 142.524C264.963 142.444 264.802 142.378 264.642 142.311L264.588 142.391H264.535C264.468 142.537 264.454 142.511 264.468 142.364H264.401C264.307 142.511 264.267 142.431 264.227 142.378H264.146C264.066 142.537 264.039 142.497 264.039 142.351C263.892 142.458 263.758 142.524 263.678 142.404C263.571 142.271 263.423 142.404 263.33 142.138C263.33 142.099 263.29 142.112 263.276 142.138C263.209 142.218 263.156 142.511 263.169 142.67C263.209 143.135 263.196 143.667 263.343 143.587C263.517 143.508 263.678 143.587 263.771 143.813C263.785 143.84 263.798 143.853 263.825 143.867C264.146 143.973 264.374 144.305 264.668 144.412C264.722 144.425 264.762 144.491 264.802 144.531L264.869 144.571C264.976 144.611 265.231 144.279 265.271 144.465L265.324 144.545C265.391 144.438 265.431 144.425 265.391 144.585L265.485 144.651L265.539 144.678L265.592 144.731C265.82 144.678 265.94 144.877 266.087 145.01C266.087 145.01 266.087 145.01 266.087 145.037L266.114 145.103C266.114 145.103 266.128 145.076 266.128 145.103L266.208 145.143H266.221L266.315 145.183L266.355 145.223L266.382 145.263C266.409 145.276 266.449 145.302 266.476 145.316C266.489 145.302 266.502 145.289 266.502 145.289C266.596 145.356 266.703 145.435 266.797 145.502C266.904 145.582 266.998 145.661 267.105 145.741C267.212 145.821 267.306 145.901 267.439 145.941C267.667 146.02 267.868 146.153 268.095 146.233C268.296 146.299 268.43 146.472 268.577 146.645C268.765 146.871 269.14 146.845 269.287 147.124C269.367 147.27 269.488 147.363 269.488 147.602C269.488 147.722 269.501 147.828 269.755 147.629C269.822 147.576 269.836 147.629 269.849 147.629C270.037 147.788 270.211 147.948 270.344 148.174C270.398 148.267 270.492 148.32 270.626 148.307C270.679 148.307 270.706 148.347 270.746 148.373C271 148.639 271.268 148.892 271.576 149.104L271.763 149.264C271.897 149.198 271.951 149.237 271.87 149.41L271.964 149.61C271.964 149.61 272.045 149.61 271.964 149.743L272.098 149.902L272.125 149.889Z" fill="black"/>
<path d="M59.6224 164.007C59.9571 164.778 60.3453 165.536 60.6398 166.307C62.3935 171.013 64.4149 175.56 66.2757 180.199C68.3105 185.264 70.4658 190.263 72.5541 195.301C73.0628 196.524 73.5715 197.747 74.04 198.984C76.0481 204.195 77.8821 209.42 79.9838 214.551C80.7334 216.386 81.8312 218.087 82.447 219.962C82.7013 220.746 83.0092 221.557 83.3171 222.341C86.6103 230.796 89.5018 239.424 92.8753 247.839C95.9676 255.55 98.9931 263.3 102.112 270.997C103.852 275.331 105.606 279.665 107.346 283.985C108.404 283.507 109.448 283.028 110.506 282.55L112.607 281.579C114 280.928 115.405 280.276 116.798 279.625C124.2 276.155 131.697 272.978 139.1 269.561C147.266 265.799 155.512 262.223 163.665 258.448C170.037 255.51 176.449 252.665 182.848 249.793C189.301 246.895 195.914 244.329 202.339 241.378C204.936 240.182 207.547 238.985 210.144 237.789C210.532 236.154 210.934 234.532 211.322 232.897C210.76 231.66 210.197 230.411 209.622 229.174C209.1 228.058 208.591 226.928 208.069 225.811C204.12 217.263 200.278 208.662 196.422 200.047C193.772 194.118 191.081 188.189 188.39 182.287C186.074 177.208 183.932 172.05 181.603 167.025C178.631 160.604 175.887 154.077 172.955 147.629C169.916 140.929 167.052 134.109 164.12 127.343L151.456 98.1891C151.081 97.325 150.666 96.4875 150.278 95.6367C149.702 94.3605 149.127 93.1108 148.578 91.8479C148.31 91.2098 148.042 90.585 147.788 89.9336C147.668 89.6145 147.547 89.2822 147.427 88.9631C147.373 88.8036 147.32 88.6308 147.253 88.4712C147.226 88.4048 147.186 88.2718 147.145 88.1522C147.105 88.0325 147.052 87.9129 147.012 87.78C146.891 87.6869 146.771 87.6071 146.65 87.5141L146.503 87.4077L146.409 87.328C146.409 87.328 146.275 87.2349 146.208 87.1817C146.075 87.0887 145.941 86.9956 145.807 86.9026C145.539 86.7164 145.271 86.5436 145.004 86.3708C144.468 86.0252 143.919 85.7194 143.37 85.4402C142.286 84.8819 141.202 84.4565 140.211 84.164C139.662 84.0045 139.381 84.0577 139.823 84.5495C140.385 85.1876 141.068 85.8125 142.273 86.5303C142.915 86.9159 143.558 87.3147 144.2 87.7002L145.151 88.2851L145.633 88.5776L145.901 88.7504L147.989 93.7622L150.144 99.0001C150.68 100.29 151.336 101.552 151.898 102.842C155.178 110.38 158.471 117.917 161.684 125.468C163.116 128.845 164.615 132.142 166.088 135.479C167.667 139.055 169.341 142.617 170.8 146.327C172.206 149.942 173.879 153.598 175.566 157.188C177.333 160.937 178.926 164.792 180.586 168.607C181.335 170.349 182.072 172.077 182.915 173.752C183.504 174.908 184.147 176.251 184.455 177.355C184.977 179.242 185.766 180.864 186.663 182.606C187.172 183.563 187.641 184.626 188.096 185.663C190.693 191.539 193.25 197.428 195.887 203.278C198.832 209.818 201.603 216.465 204.535 223.033L209.019 233.096L208.979 233.256L208.859 233.747L208.618 234.745L208.377 235.742L208.283 236.14L208.256 236.273L203.892 238.307C202.299 239.065 200.693 239.81 199.1 240.567C189.876 244.954 180.412 248.863 171.014 252.997C162.674 256.666 154.321 260.349 146.048 264.137C140.613 266.637 135.097 268.99 129.729 271.529C125.285 273.629 120.787 275.65 116.316 277.724C114.856 278.389 113.397 279.067 111.938 279.731L109.743 280.715L108.765 281.14L108.404 281.3L108.243 280.875L107.761 279.612C107.427 278.747 107.105 277.883 106.771 277.033C106.115 275.304 105.472 273.576 104.816 271.848C103.437 268.139 101.925 264.257 100.251 260.641C97.9623 255.682 96.1015 250.551 94.2006 245.446C92.9021 241.923 91.5902 238.427 90.1712 234.931L85.9275 224.442C85.7133 223.923 85.4858 223.365 85.3385 222.86C83.6919 217.529 81.5233 212.331 79.3412 207.12C78.4309 204.953 77.7482 202.733 76.878 200.513C74.3881 194.198 71.8848 187.91 69.2342 181.675C67.1726 176.849 65.2315 171.904 63.1833 167.065C61.443 162.984 59.9571 158.889 58.3774 154.781C56.3159 149.397 54.0803 144.12 51.8982 138.802C50.3989 135.146 48.9665 131.424 47.5207 127.728C47.1727 126.824 46.8112 125.907 46.4632 125.003C48.1098 124.285 49.7563 123.567 51.4163 122.863L57.1057 120.363C58.7389 119.646 60.3855 118.928 62.0856 118.303C64.5622 117.386 66.8915 116.136 69.3546 115.099C73.5581 113.331 77.775 111.563 81.9249 109.702C86.5701 107.615 91.2689 105.713 95.9275 103.666C101.523 101.207 107.172 98.7874 112.782 96.3413C117.373 94.3472 121.951 92.2999 126.583 90.3856C128.819 89.455 131.068 88.5244 133.304 87.5938L136.664 86.1847L138.337 85.4801L138.752 85.3073L138.859 85.2674L139.06 85.1876L139.154 85.4136L139.18 85.4668L139.274 85.6928L139.488 86.1714L140.318 88.1123L141.992 91.9808C142.728 93.7091 143.397 95.4373 144.133 97.1655C145.352 100.05 146.744 102.789 147.935 105.647L148.846 107.721C149.823 109.768 150.693 111.869 151.577 113.956L153.183 117.612C154.441 120.124 155.405 122.756 156.57 125.309C156.891 125.801 157.159 126.399 157.427 126.997L161.028 135.239L162.152 137.818C164.388 142.804 166.623 147.802 168.872 152.787C171.081 157.68 173.37 162.545 175.539 167.451C179.475 176.344 183.343 185.278 187.239 194.185L192.326 205.87L192.607 206.269L193.102 207.386C193.477 207.811 193.665 208.316 193.745 208.861L194.468 210.483C195.151 211.56 195.633 212.823 196.128 214.059C196.369 214.604 196.623 215.136 196.864 215.681C197.4 216.439 197.734 217.29 197.975 218.18C199.234 220.68 200.479 223.272 201.509 225.864C202.674 228.789 204.12 231.66 205.151 234.585C205.298 234.984 205.512 235.476 205.713 235.848C206.235 236.818 206.61 236.911 206.355 235.941C205.619 233.163 205.07 230.637 203.41 227.127C201.55 223.192 199.769 219.044 198.176 214.937C197.975 214.418 197.748 213.886 197.52 213.368C193.839 204.979 190.385 196.524 186.663 188.136C186.007 186.674 185.405 185.185 184.776 183.709C184.495 183.071 184.227 182.433 183.946 181.795C182.674 178.91 181.028 176.185 179.916 173.273L179.876 173.154C179.622 172.555 179.381 171.957 179.127 171.359C178.712 170.747 178.404 170.096 178.27 169.365C177.882 168.461 177.48 167.544 177.092 166.64C176.891 166.174 176.677 165.696 176.476 165.217C176.235 164.646 175.994 164.061 175.753 163.489C175.686 163.383 175.633 163.263 175.606 163.143C173.33 158.304 171.282 153.372 169.167 148.467C169.1 148.321 169.046 148.174 169.006 148.028C168.832 147.603 168.658 147.177 168.497 146.739C168.444 146.672 168.404 146.592 168.377 146.486C168.042 145.728 167.708 144.984 167.373 144.226C167.306 144.106 167.252 143.987 167.212 143.854C166.811 142.95 166.396 142.046 165.994 141.142C165.78 140.663 165.579 140.171 165.365 139.693C165.204 139.307 165.03 138.908 164.87 138.523C164.803 138.403 164.749 138.27 164.709 138.151C164.307 137.233 163.906 136.329 163.504 135.412C163.437 135.306 163.37 135.186 163.303 135.053L159.287 125.841C156.369 119.167 153.518 112.467 150.519 105.846C147.801 99.8376 145.151 93.8021 142.433 87.8065L141.456 85.6263C141.001 84.616 140.559 83.6057 140.104 82.582C138.859 83.1138 137.614 83.6588 136.356 84.1906L133.464 85.4136C131.536 86.2246 129.595 87.0355 127.668 87.8464C120.399 90.904 113.263 94.2541 105.994 97.2453C102.152 98.8272 98.3237 100.502 94.4549 101.965C92.4871 102.709 90.4255 103.52 88.6451 104.623C88.1364 104.942 87.3064 105.261 86.6236 105.567C80.5193 108.199 74.4149 110.832 68.2703 113.384C65.6465 114.474 63.0361 115.631 60.4792 116.841C59.3815 117.359 58.2302 117.838 57.1057 118.329L44 123.953L47.5073 132.793L50.6399 140.65L53.1432 146.965C53.8527 148.374 54.4283 149.823 54.8166 151.312C55.4859 153.08 56.1552 154.848 56.8246 156.616C57.1459 157.347 57.4538 158.078 57.5742 158.77L59.6224 163.994V164.007Z" fill="black"/>
</g>
<defs>
<clipPath id="clip0_40000713_13103">
<rect width="251.284" height="243" fill="white" transform="translate(44 41)"/>
</clipPath>
</defs>
</svg>
