<svg width="303" height="303" viewBox="0 0 303 303" fill="none" xmlns="http://www.w3.org/2000/svg">
<g clip-path="url(#clip0_40000377_7777)">
<path d="M127.876 78.073C121.654 79.3461 117.685 79.6777 111.487 78.5759C101.817 76.8571 96.8222 74.6693 88.8714 69.1458C83.5972 65.4818 81.2134 64.0335 77.2452 58.2898C75.9686 56.4419 76.1951 55.2024 75.5837 53.4887C73.5108 47.6797 73.0494 45.4009 74.1582 39.3426C75.0402 32.6045 80.2485 29.185 85.4411 25.696C87.0809 24.594 87.3791 25.7235 88.7671 25.4894L88.9651 24.5723C92.9796 19.6742 107.887 18.7556 113.995 19.7075C121.291 20.844 128.327 26.3777 131.698 32.8649C137.087 29.4014 142.126 26.9234 148.258 25.1089C150.614 24.4122 154.861 21.5468 157.302 22.409L157.323 23.0916L157.671 23.0767L158.031 22.3909C159.581 21.8034 167.435 19.9358 169.343 19.4789C171.275 20.0974 173.078 20.4376 175.076 20.7306C177.004 20.7672 181.991 21.6639 181.948 24.1346C182.607 23.4574 182.469 23.3622 183.435 23.3245C187.073 23.1825 194.158 26.512 196.726 28.9997C197.466 29.7158 199.84 32.7455 200.571 33.6681C201.878 35.3458 202.747 35.9197 201.688 38.0758C202.691 38.7582 202.268 37.3115 203.177 39.1018C203.548 40.4778 203.942 41.8483 204.354 43.2125C204.671 44.0207 204.533 44.0914 205.121 44.43C207.341 42.9854 210.771 40.3354 213.237 39.3037C220.732 36.3307 228.495 34.9748 236.462 36.2437C246.672 37.8696 250.312 44.0494 255.632 52.026C259.653 58.0534 262.146 65.8141 257.128 72.1057C256.286 73.7495 250.534 81.126 248.823 81.3245C248.342 80.9307 248.371 80.892 248.074 80.3289L247.749 80.484C247.9 80.8674 247.991 81.1665 248.047 81.5752C247.536 82.3062 247.305 82.3363 247.38 83.0033C247.665 83.1254 247.95 83.2452 248.237 83.363C247.269 84.8445 240.569 93.2773 239.481 93.5352C239.329 92.6721 239.447 92.395 238.944 91.8957L238.44 91.8066C237.711 92.6278 237.141 93.2337 236.351 93.9934C234.847 95.293 234.742 95.4589 232.821 96.0796C230.52 95.6409 228.391 96.2587 225.922 95.9693C224.786 95.8362 225.157 97.2431 223.031 95.743L222.555 95.7699L222.399 96.0613L222.736 96.7731C222.177 97.3344 221.27 97.1294 220.489 97.0688C219.718 97.3701 217.591 97.2381 216.65 97.2255C215.312 96.6644 214.362 96.2243 212.921 95.9422C211.624 95.6881 207.832 95.5226 207.144 94.4758C207.18 93.5427 207.818 93.5085 208.09 92.4208C206.675 91.9409 205.979 93.5818 205.302 94.6385C204.729 94.7301 205.024 94.7301 204.404 94.4353C203.962 93.6706 203.723 92.8727 202.75 93.0345C202.612 93.5874 202.632 93.6102 202.34 94.0895C201.313 93.9541 201.591 93.4149 201.267 93.2888C199.018 92.4092 196.432 91.4015 194.167 90.6599C193.036 90.4546 192.223 89.9263 191.345 89.2319C190.569 88.7195 188.852 87.2836 188.044 86.6509C186.938 87.1127 182.747 89.3185 181.604 89.9709C174.766 93.8707 170.447 94.8275 162.606 95.6219C165.867 99.3887 165.145 102.69 164.69 107.231C164.016 107.527 163.53 107.647 163.113 108.24C163.231 108.857 163.267 108.898 163.208 109.513C162.244 110.945 159.538 112.075 157.904 112.891C160.081 114.658 164.496 117.909 163.349 121.601C163.05 122.566 162.638 122.281 162.667 123.539L163.039 123.833C163.308 124.742 162.324 126.46 161.889 127.394C156.443 131.178 153.028 131.698 146.55 130.275C146.276 130.215 146.163 129.575 146.073 129.312L145.791 129.209C144.157 131.011 135.311 127.782 133.45 126.221C128.504 122.074 125.122 118.559 129.831 112.557C125.799 109.441 122.136 105.462 120.288 100.696C119.858 99.5872 119.114 97.0428 119.561 96.0003L120.402 95.7351L120.491 95.3705C120.148 94.9625 119.281 94.1318 119.701 93.5675C122.228 90.1732 126.1 89.6958 129.781 88.4615C130.794 88.1222 132.804 86.7605 134.045 86.1888C132.361 84.5466 130.094 82.5284 129.133 80.3873C128.689 79.4001 128.435 79.0004 127.876 78.073Z" fill="black"/>
<path d="M137.8 33.6082C141.956 31.6219 146.718 30.6921 150.507 27.91C151.308 27.3216 153.665 25.8268 154.588 25.9677L154.563 26.8082L154.848 27.0026C160.931 26.7922 164.758 24.6366 169.959 23.0645C170.092 23.7036 170.067 23.8259 170.398 24.374C171.667 24.7868 173.322 24.8235 174.686 24.9286C175.44 25.2545 177.349 25.3763 178.231 25.418C181.916 26.8832 183.784 27.3887 187.639 28.2522C192.539 29.349 195.572 32.3467 197.75 36.8409C198.825 35.5236 199.617 35.1606 200.562 33.6508C201.87 35.3324 202.738 35.9076 201.68 38.0686C202.682 38.7526 202.259 37.3026 203.168 39.097C203.539 40.4761 203.933 41.8498 204.344 43.2171L203.415 43.6803C203.747 44.118 203.666 43.99 203.885 44.4884L203.629 44.8301L203.039 44.8181C202.29 44.2952 202.544 44.6479 202.351 43.6576L200.548 44.2294C201.019 45.2032 201.263 45.7225 201.851 46.6157C201.137 47.1889 200.682 47.4055 200.476 48.2834C200.56 48.923 200.644 49.4387 200.761 50.0735C200.653 50.1318 200.202 50.3864 200.103 50.4113C199.75 50.8971 199.485 51.2653 199.162 51.7784L199.266 52.1756C198.759 52.3489 198.076 52.5363 197.642 52.8055L197.135 53.0923C194.622 53.1859 194.208 54.8251 193.161 56.8814C190.89 61.3586 186.777 65.4463 187.164 71.1918C187.847 71.4456 187.594 71.2233 188.033 71.7467C189.075 71.9644 190.577 72.0304 191.344 72.4262L191.285 72.9711C190.774 74.7757 190.684 77.4587 188.682 78.0208L186.811 78.012C186.678 79.2823 186.892 81.737 186.506 82.3714C184.597 83.3977 182.156 84.7068 180.314 85.8702C175.718 88.1851 176.912 88.4005 171.603 89.8587C170.221 90.0354 169.477 90.1175 168.072 90.1283L166.916 90.3422C165.505 90.4134 162.745 90.3868 161.793 91.3885L161.886 92.2556C156.997 88.8355 153.116 87.7976 147.25 87.5312C139.087 87.1603 134.707 83.1655 130.771 76.4308C132.557 74.1782 135.945 72.4112 137.929 69.7572C140.1 66.8533 139.927 65.51 140.475 62.3272C142.002 53.4587 138.268 49.2239 134.806 41.5437C134.203 40.2058 133.215 38.4821 133.07 37.0088C133.5 36.3857 133.974 36.4308 134.89 36.1335C135.909 35.5241 136.921 34.4492 137.8 33.6082Z" fill="white"/>
<path d="M200.508 33.6719C201.834 35.3371 202.715 35.9068 201.641 38.0468C202.658 38.7241 202.229 37.2882 203.151 39.0651C203.527 40.4308 203.927 41.7912 204.344 43.1452L203.401 43.6038C203.738 44.0373 203.656 43.9105 203.878 44.4041L203.619 44.7425L203.02 44.7306C202.261 44.2127 202.518 44.5621 202.323 43.5814L200.494 44.1477C199.879 42.0772 198.512 38.9545 197.656 36.8309C198.746 35.5265 199.549 35.167 200.508 33.6719Z" fill="black"/>
<path d="M202.799 39.1288L203.143 38.9766C203.522 40.3636 203.924 41.7451 204.344 43.1203L203.395 43.5861C203.734 44.0263 203.651 43.8976 203.875 44.3989L203.614 44.7425L203.011 44.7304C202.247 44.2045 202.506 44.5593 202.309 43.5633C202.159 42.4499 201.598 41.4446 201.115 40.4067C201.612 39.9669 202.252 39.5273 202.799 39.1288Z" fill="white"/>
<path d="M202.729 39.1289L203.089 38.9766C203.485 40.3646 203.905 41.7471 204.344 43.1232L203.352 43.5893C202.804 42.7189 202.785 40.2024 202.729 39.1289Z" fill="black"/>
<path d="M200.051 35.9785L200.382 36.1481C200.74 36.6609 200.78 39.4602 200.291 39.8993C199.762 38.9528 198.818 38.1755 198.809 37.2556C199.033 36.5781 199.456 36.3958 200.051 35.9785Z" fill="white"/>
<path d="M187.099 71.0352C187.806 71.2923 187.544 71.0671 187.998 71.5973C189.078 71.818 190.634 71.8847 191.428 72.2858L191.367 72.8379C190.838 74.6663 190.744 77.3847 188.671 77.9543L186.733 77.9453C186.342 76.0611 186.818 72.9706 187.099 71.0352Z" fill="black"/>
<path d="M188.048 71.7285C189.112 71.9422 190.646 72.0069 191.428 72.3953L191.368 72.9301C187.96 73.8644 190.362 74.999 189.322 76.8272C188.68 77.1011 188.708 77.056 187.999 76.9535L187.738 76.5297C187.978 75.1489 187.995 73.1773 188.048 71.7285Z" fill="white"/>
<path d="M197.689 52.815C196.985 52.0457 197.143 52.4612 196.964 51.6047C197.449 50.7335 198.336 49.4945 199.408 49.3555L200.193 50.4227C199.834 50.9081 199.564 51.276 199.235 51.7888L199.341 52.1856C198.826 52.3588 198.131 52.5461 197.689 52.815Z" fill="black"/>
<path d="M204.28 43.1858C204.597 43.9932 204.459 44.0639 205.048 44.4023C207.271 42.9588 210.706 40.3112 213.176 39.2804C220.68 36.3099 228.453 34.9553 236.431 36.223C246.654 37.8475 250.3 44.0219 255.627 51.9916C259.653 58.0138 262.15 65.7678 257.124 72.054C256.281 73.6964 250.522 81.0664 248.809 81.2647C248.326 80.8713 248.356 80.8327 248.059 80.2701L247.733 80.425C247.884 80.808 247.975 81.1068 248.032 81.5152C247.52 82.2456 247.289 82.2756 247.363 82.9421C247.649 83.0641 247.934 83.1838 248.222 83.3015C247.252 84.7817 240.543 93.2072 239.454 93.4649C239.302 92.6026 239.42 92.3257 238.917 91.8268L238.411 91.7378L237.435 91.2483C237.081 91.6129 237.301 91.4936 236.753 91.5668L236.338 91.0713L235.872 90.6781C235.153 90.7117 235.183 90.7497 234.539 90.4581C231.417 91.0975 226.201 92.9296 223.102 93.0281C222.961 93.0326 222.581 92.8512 221.751 92.9088C220.804 93.6647 220.306 93.7944 219.032 93.4744C211.17 91.4984 201.913 91.053 194.882 86.9095C193.586 86.1468 192.598 85.548 191.25 84.9861C192.24 81.7435 191.655 83.4058 190.582 82.354L190.763 81.961C191.787 81.4569 191.991 82.2874 192.788 81.7537C193.294 79.3642 195.05 79.0425 196.493 77.1481C196.987 76.4997 197.639 75.1834 198.031 74.4214L197.386 74.0812L196.432 73.4996L195.956 73.3668C195.494 73.2745 195.05 73.1606 194.601 73.0098C193.13 74.3308 192.856 76.0972 191.166 77.1637C190.185 77.7823 188.499 79.6126 187.466 79.6688C187.242 78.9854 187.317 79.3285 187.541 78.4815C188.005 78.0479 187.983 78.0831 188.592 77.8799C190.597 77.3195 190.688 74.645 191.2 72.846L191.259 72.3028C190.491 71.9083 188.986 71.8426 187.942 71.6255C187.502 71.1038 187.756 71.3254 187.072 71.0724C186.684 65.345 190.804 61.2701 193.078 56.807C194.127 54.7572 194.542 53.1231 197.059 53.0299L197.567 52.7439C198.002 52.4756 198.686 52.2888 199.194 52.1161L199.089 51.7201C199.413 51.2086 199.678 50.8416 200.032 50.3573C200.132 50.3325 200.583 50.0786 200.691 50.0206C200.573 49.3878 200.49 48.8737 200.406 48.2361C200.612 47.3609 201.067 47.145 201.783 46.5736C201.194 45.6833 200.95 45.1657 200.478 44.1949L202.284 43.6249C202.477 44.6121 202.223 44.2604 202.973 44.7817L203.564 44.7937L203.82 44.4531C203.6 43.9562 203.682 44.0838 203.349 43.6475L204.28 43.1858Z" fill="white"/>
<path d="M204.28 43.208C204.597 44.0178 204.459 44.0887 205.048 44.4281C207.271 42.9803 210.706 40.3248 213.176 39.2909C220.68 36.3116 228.453 34.9529 236.431 36.2244C246.654 37.8538 250.3 44.0466 255.627 52.04C259.653 58.0801 262.15 65.8572 257.124 72.1622L257.052 71.8439C256.719 71.975 256.764 71.8998 256.311 71.836C255.728 71.1688 255.919 71.3736 255.991 70.1603C256.039 70.0441 256.447 69.4302 256.542 69.283C256.367 68.4376 256.377 68.4385 255.98 67.6794C255.441 67.6461 255.681 67.5856 255.253 67.8208L255.078 68.7545L254.89 68.3882C254.423 68.7536 254.698 68.6299 253.975 68.5828C254.908 65.6253 256.068 62.332 255.065 59.2196C253.628 55.0852 250.991 51.5883 248.587 47.9986C246.842 45.3906 245.945 42.1782 243.129 40.5042C240.068 40.5776 239.959 40.1089 237.235 39.5414C234.936 39.0621 232.881 40.4942 230.366 39.3892C229.421 38.9742 225.311 41.029 223.056 40.3812C223.009 39.8746 223.043 40.0332 222.857 39.5253C222.177 39.4184 222.476 39.3475 221.926 39.7014C221.427 40.9611 220.569 42.9015 218.942 41.3842C218.783 40.7524 218.758 40.388 218.323 39.903C218.002 40.6815 218.4 41.0311 218.534 42.1984C217.639 42.9316 214.993 43.4687 213.708 44.1852C211.762 45.2714 211.023 47.0825 209.256 48.2978C209.249 48.3021 207.767 48.4296 207.568 48.4469C207.033 49.2522 207.434 49.6468 207.235 50.4976C207.02 51.4114 206.618 50.2507 205.499 50.8619C205.399 52.1934 206.757 52.7785 206.652 53.9385L206.217 54.1635C205.431 55.266 205.159 56.2133 204.955 57.5485C204.394 57.198 204.144 56.9674 203.653 56.5422C202.52 56.2181 201.521 56.5006 200.41 56.8637L200.809 57.8461C200.376 59.186 199.509 61.1951 199.52 62.4451C199.216 62.9964 198.944 63.3741 198.881 63.9961C197.929 66.7371 196.731 66.0321 195.834 68.4451C195.652 69.7229 194.68 70.5923 194.705 71.6332C195.084 72.1757 194.848 71.978 195.433 72.2607L195.956 73.479C195.494 73.3863 195.05 73.2721 194.601 73.1208C193.13 74.4458 192.856 76.2174 191.166 77.2871C190.185 77.9075 188.499 79.7433 187.466 79.7997C187.242 79.1143 187.317 79.4584 187.541 78.6089C188.005 78.1739 187.983 78.2093 188.592 78.0054C190.597 77.4434 190.688 74.7609 191.2 72.9566L191.259 72.4118C190.491 72.016 188.986 71.9501 187.942 71.7324C187.502 71.2092 187.756 71.4314 187.072 71.1777C186.684 65.4332 190.804 61.3462 193.078 56.8698C194.127 54.8138 194.542 53.1749 197.059 53.0814L197.567 52.7946C198.002 52.5255 198.686 52.3381 199.194 52.1648L199.089 51.7677C199.413 51.2547 199.678 50.8866 200.032 50.4009C200.132 50.376 200.583 50.1213 200.691 50.0631C200.573 49.4284 200.49 48.9128 200.406 48.2733C200.612 47.3956 201.067 47.179 201.783 46.6059C201.194 45.7129 200.95 45.1937 200.478 44.2201L202.284 43.6484C202.477 44.6385 202.223 44.2858 202.973 44.8086L203.564 44.8206L203.82 44.479C203.6 43.9807 203.682 44.1087 203.349 43.671L204.28 43.208Z" fill="black"/>
<path d="M199.569 56.5059C199.841 56.6077 200.287 56.8398 200.489 56.7848L200.885 57.7706C200.455 59.1152 199.594 61.1312 199.605 62.3855C199.304 62.9387 199.034 63.3177 198.971 63.9419C198.027 66.6923 196.837 65.9849 195.947 68.4063C195.767 69.6885 194.802 70.5609 194.827 71.6054C195.202 72.1498 194.968 71.9514 195.549 72.2351L196.068 73.4576C195.609 73.3646 195.169 73.25 194.723 73.0982C193.264 74.4277 192.992 76.2055 191.314 77.2789C190.341 77.9015 188.668 79.7436 187.642 79.8002C187.42 79.1124 187.494 79.4576 187.716 78.6052C188.177 78.1688 188.155 78.2043 188.76 77.9997C190.75 77.4357 190.84 74.7439 191.348 72.9334L191.407 72.3867C191.375 70.5471 192.533 69.0902 192.996 67.1204C192.852 66.6014 192.767 66.5198 192.38 66.1513C192.522 65.7101 192.497 65.7913 192.841 65.5055C195.546 63.2543 194.521 62.0679 197.532 58.8417L199.569 56.5059Z" fill="white"/>
<path d="M197.589 58.9601C197.027 58.1242 197.379 58.3048 196.648 58.1078C195.659 58.9384 194.78 59.332 193.504 59.505L193.518 59.1253C193.897 58.6561 194.184 58.2015 194.755 57.9926C197.178 57.108 197.596 54.6354 200.424 55.5554L199.635 56.6113L197.589 58.9601Z" fill="black"/>
<path d="M200.288 55.4619C200.751 54.8649 201.083 54.2328 201.71 53.9688C202.073 54.5751 201.965 54.665 201.967 55.4366C202.996 55.5865 203.109 55.4175 203.637 55.984L203.652 56.4211C202.524 56.1111 201.529 56.3812 200.424 56.7285C200.221 56.7809 199.774 56.5597 199.501 56.4627L200.288 55.4619Z" fill="white"/>
<path d="M202.038 55.4862C203.423 55.4084 204.262 54.5694 206.189 54.1992C205.422 55.2509 205.157 56.1545 204.958 57.4281C204.41 57.0939 204.167 56.8739 203.688 56.4683L203.673 56.0322C203.156 55.4672 203.045 55.6357 202.038 55.4862Z" fill="black"/>
<path d="M193.043 56.7371C194.137 54.7344 194.569 53.138 197.194 53.0469C194.291 54.2093 197.754 55.3988 193.043 56.7371Z" fill="black"/>
<path d="M200.693 50.0488C200.836 50.9399 201.029 51.1317 200.717 51.7243L199.363 52.1246L199.27 51.7324C199.558 51.2256 199.793 50.8621 200.107 50.3824C200.196 50.3578 200.596 50.1063 200.693 50.0488Z" fill="white"/>
<path d="M189.657 65.6595L189.784 65.4023C189.554 64.7025 189.52 64.6341 189.692 63.9164C190.161 63.2575 191.104 62.7434 191.89 62.7324C191.563 63.9544 190.88 64.7521 190.521 66.4226L189.657 65.6595Z" fill="white"/>
<path d="M208.217 44.5137C209.588 45.5904 209.274 46.3922 208.688 47.7426C208.143 47.6365 208.343 47.7004 207.872 47.3929C207.655 46.4906 208.008 45.4463 208.217 44.5137Z" fill="white"/>
<path d="M257.01 62.2715C257.367 62.3758 257.393 62.4281 257.715 62.6173C257.989 63.6457 257.786 64.6597 257.677 65.731C257.37 65.4584 257.139 65.1945 256.858 64.8987C256.538 63.8443 256.759 63.3607 257.01 62.2715Z" fill="white"/>
<path d="M190.506 66.2267C189.963 66.9869 189.762 67.6159 188.8 67.226L188.661 66.6673C189.015 65.7344 188.732 66.1248 189.611 65.5L190.506 66.2267Z" fill="white"/>
<path d="M193.108 60.1953C194.189 60.4309 195.035 60.8156 194.867 62.0404C194.265 61.8816 194.018 61.7426 193.452 61.4912C192.917 60.7311 193.034 61.1466 193.108 60.1953Z" fill="white"/>
<path d="M255.117 68.6868L255.291 67.7504C255.719 67.5147 255.479 67.5753 256.018 67.6087C256.414 68.3699 256.404 68.369 256.579 69.2167C256.484 69.3644 256.076 69.98 256.029 70.0965C255.956 71.3131 255.766 71.1078 256.348 71.7768C256.8 71.8408 256.755 71.9162 257.088 71.7847L257.16 72.1039C256.318 73.7557 250.567 81.1683 248.856 81.3677C248.374 80.972 248.404 80.9332 248.107 80.3673L247.782 80.5231C247.933 80.9084 248.024 81.2089 248.08 81.6196C247.569 82.3542 247.338 82.3844 247.413 83.0548C247.698 83.1774 247.983 83.2978 248.27 83.4162C247.302 84.905 240.602 93.379 239.514 93.6382C239.362 92.7709 239.48 92.4924 238.978 91.9906L238.473 91.9011L237.498 91.4089C237.145 91.7755 237.364 91.6556 236.817 91.7292L236.403 91.2308C237.161 90.055 237.853 90.7985 238.245 88.9972C239.123 87.4291 241.512 85.029 242.811 83.4439C244.055 81.0953 247.438 77.278 249.117 74.8627C250.759 72.503 252.499 71.4081 254.015 68.5146C254.737 68.5618 254.463 68.6859 254.929 68.3195L255.117 68.6868Z" fill="black"/>
<path d="M242.797 83.4902L242.861 83.7065C241.955 85.1193 240.831 87.9748 242.377 89.3159C241.714 90.0492 240.702 91.3795 239.645 91.3529C239.259 90.895 239.304 91.136 239.345 90.6494C239.921 90.1997 240.185 89.9987 240.835 89.6189L240.74 89.2735C239.654 89.0026 238.024 90.3353 237.496 91.2505C237.143 91.6077 237.362 91.4908 236.816 91.5625L236.403 91.077C237.159 89.9314 237.85 90.6558 238.241 88.9008C239.117 87.373 241.501 85.0346 242.797 83.4902Z" fill="black"/>
<path d="M242.887 83.7207C243.334 84.2478 243.675 84.5237 243.783 85.2169C243.547 85.7979 243.255 85.992 242.81 86.4067C242.544 87.2764 242.556 87.3985 243.127 88.157C242.946 88.8738 242.855 88.9134 242.431 89.4866C240.972 88.108 242.032 85.173 242.887 83.7207Z" fill="white"/>
<path d="M255.016 68.6692L255.189 67.7477C255.614 67.5156 255.376 67.5753 255.911 67.6082C256.304 68.3573 256.295 68.3564 256.468 69.1907C256.374 69.336 255.969 69.9418 255.922 70.0565C255.486 70.6704 255.281 71.1541 254.67 71.2664C254.499 70.5175 254.838 69.4583 255.016 68.6692Z" fill="white"/>
<path d="M251.772 72.8809L253.47 74.9479L253.224 75.118C253.011 75.103 252.798 75.0902 252.582 75.0797C249.977 74.9521 250.252 77.2434 247.989 79.242C247.631 79.4862 247.411 79.5943 247.03 79.8C246.722 78.2104 250.594 74.5537 251.62 73.1004L251.772 72.8809Z" fill="white"/>
<path d="M245.444 80.7227C246.317 80.8637 246.039 80.6558 246.551 81.1373C246.5 82.0985 245.411 83.3662 244.795 84.2455C244.388 84.4687 244.605 84.4327 244.138 84.3436C243.681 83.165 244.568 81.5414 245.444 80.7227Z" fill="white"/>
<path d="M200.4 56.745C201.528 56.3773 202.544 56.0911 203.695 56.4195C204.194 56.8501 204.448 57.0837 205.019 57.4386C205.184 58.7756 204.164 61.9306 202.933 62.6517C202.497 62.6081 202.164 62.5624 201.731 62.4895L201.086 62.7255L200.964 63.0355C202.081 63.6685 202.051 63.2484 202.79 64.1231C202.672 64.8552 202.818 64.5051 202.152 65.1135C201.597 65.2069 201.551 65.2439 201.003 65.1762L201.471 64.8338C200.658 64.6985 199.781 65.2014 198.809 65.2702C198.92 64.8196 198.88 64.4284 198.846 63.9691C198.91 63.3391 199.187 62.9566 199.495 62.3981C199.484 61.1321 200.365 59.0972 200.805 57.7401L200.4 56.745Z" fill="black"/>
<path d="M200.8 57.8906C201.916 60.4267 201.241 60.6532 199.501 62.5034C199.49 61.2496 200.364 59.2345 200.8 57.8906Z" fill="white"/>
<path d="M196.005 68.5C198.099 69.505 198.509 68.3541 200.024 69.5733C200.551 69.7375 200.351 69.5907 200.654 69.9697C200.322 70.3774 199.997 70.6162 199.961 71.0392L199.544 71.0931C199.134 72.6264 198.986 73.2272 197.541 74.0353L196.597 73.4738L196.126 73.3456L195.608 72.1729C195.03 71.9008 195.263 72.0911 194.889 71.5689C194.864 70.5669 195.826 69.73 196.005 68.5Z" fill="black"/>
<path d="M195.991 68.5C198.06 69.5097 198.465 68.3534 199.962 69.5783C199.039 69.7558 197.455 69.9321 196.809 70.4319C196.558 71.3049 196.341 71.6357 195.6 72.1902C195.028 71.9168 195.258 72.108 194.889 71.5833C194.864 70.5767 195.814 69.7358 195.991 68.5Z" fill="black"/>
<path d="M196.502 73.4796C196.799 71.6435 197.394 70.7214 199.501 71.1314C199.083 72.6438 198.933 73.2364 197.462 74.0334L196.502 73.4796Z" fill="white"/>
<path d="M198.883 63.8867C198.917 64.3418 198.956 64.7294 198.846 65.1758C199.81 65.1076 200.681 64.6093 201.487 64.7435L201.023 65.0826L200.343 65.3663L200.4 65.6345C201.058 65.9376 201.499 66.0664 202.038 66.5261L202.015 66.8875C200.649 67.6408 199.753 67.0898 199.354 67.7436C200.08 68.3721 200.685 68.7453 200.973 69.631C200.628 69.879 200.784 69.8269 200.548 69.8833C200.24 69.4882 200.443 69.6412 199.906 69.47C198.362 68.1991 197.944 69.3989 195.811 68.3512C196.715 65.9298 197.924 66.6372 198.883 63.8867Z" fill="black"/>
<path d="M234.558 90.528C235.57 90.0437 237.162 89.4524 238.248 89.0254C237.851 90.6994 237.149 90.0085 236.38 91.1011L235.907 90.7336C235.18 90.7651 235.209 90.8005 234.558 90.528Z" fill="black"/>
<path d="M199.962 71.0352C199.978 72.4391 199.335 73.7225 198.095 74.4947L197.425 74.153C198.94 73.312 199.095 72.6869 199.525 71.0912L199.962 71.0352Z" fill="black"/>
<path d="M175.053 20.7578C176.994 20.7932 182.015 21.6593 181.972 24.0457C179.603 24.7898 176.163 23.0082 175.053 20.7578Z" fill="black"/>
<path d="M186.411 82.3379C186.59 83.1613 186.676 83.3198 186.446 84.1468C185.827 84.8566 185.701 84.8715 184.832 85.2975C184.471 85.9553 184.473 85.6542 184.555 86.2442C183.456 85.7685 182.162 85.5704 181.152 86.2587C181.026 86.1379 180.533 85.88 180.358 85.7804C182.158 84.6357 184.544 83.3477 186.411 82.3379Z" fill="black"/>
<path d="M161.772 92.0937L161.676 91.2263C162.662 90.2243 165.52 90.2509 166.981 90.1797L166.873 90.4231C165.89 90.4505 165.555 90.4587 164.85 91.2238C163.503 92.1932 164.416 91.7653 163.592 93.178C162.84 93.0486 162.386 92.5715 161.772 92.0937Z" fill="black"/>
<path d="M172.978 22.1406C174.921 23.0711 176.62 23.9766 178.282 25.3695C177.398 25.3282 175.484 25.2073 174.728 24.8841L174.971 24.6447L174.769 24.4393C173.853 23.5012 173.676 23.2345 172.978 22.1406Z" fill="white"/>
<path d="M217.508 96.8335C217.266 96.3686 217.261 96.3993 217.213 95.8844C218.139 95.5456 219.084 95.8031 220.037 95.8991L220.331 95.9273L220.489 96.4455L220.439 97.1363C219.661 97.4326 217.517 97.3028 216.568 97.2904C216.908 97.1654 217.184 97.0013 217.508 96.8335Z" fill="white"/>
<path d="M220.489 96.4062L220.439 97.1273C219.661 97.4367 217.517 97.3011 216.568 97.2881C216.908 97.1577 217.184 96.9864 217.508 96.8112C218.639 96.8516 219.69 97.0598 220.489 96.4062Z" fill="black"/>
<path d="M232.712 96.1758C233.238 95.057 233.498 94.0471 234.461 93.4195C235.246 93.3398 235.691 93.6943 236.403 94.0728C234.83 95.3829 234.721 95.5501 232.712 96.1758Z" fill="black"/>
<path d="M191.429 89.2559C192.334 89.2896 195.089 89.1868 195.58 89.4999C195.273 90.1761 194.939 90.1744 194.149 90.6397C193.058 90.4408 192.275 89.9288 191.429 89.2559Z" fill="white"/>
<path d="M168.134 89.9941C169.52 89.9829 170.254 89.8986 171.617 89.7168L171.824 90.3414C171.293 91.3794 170.497 91.783 169.433 91.4451C169.33 91.0172 169.214 90.6553 169.031 90.2577C168.665 90.1314 168.514 90.0615 168.134 89.9941Z" fill="black"/>
<path d="M181.05 86.2701C182.077 85.5404 183.392 85.7505 184.509 86.2548C183.239 87.8069 182.23 87.7817 181.05 86.2701Z" fill="white"/>
<path d="M164.905 91.2719C165.564 90.4485 165.876 90.4397 166.795 90.4102C167.18 91.3504 167.276 91.1997 167.173 92.06C166.176 92.5853 165.669 91.9582 164.905 91.2719Z" fill="white"/>
<path d="M136.03 33.8717C136.443 33.6949 137.198 33.704 137.69 33.6719C136.813 34.5168 135.802 35.5966 134.785 36.2089L133.769 35.671C134.872 35.3754 135.64 35.016 136.03 33.8717Z" fill="black"/>
<path d="M136.075 33.6719C135.677 34.8452 134.894 35.2138 133.769 35.517C134.287 34.0957 134.727 34.0981 136.075 33.6719Z" fill="white"/>
<path d="M109.174 23.6389L108.736 22.5805C109.132 22.0022 108.882 22.2338 109.556 21.9102C110.305 21.973 110.251 21.9859 110.844 22.4636C111.001 23.1651 110.932 23.0532 110.754 23.8135C111.237 23.7943 111.9 23.7432 112.365 23.776C112.909 22.9073 112.684 22.9975 113.475 22.5599C114.701 22.7205 114.839 23.3723 115.107 24.4705C115.502 24.4266 115.898 24.3929 116.294 24.3694C119.276 24.2124 122.825 27.1873 124.952 29.1036C125.686 31.4027 126.33 33.0584 127.542 35.1388C124.213 38.5789 122.749 40.5664 121.575 45.3351C119.14 55.234 120.571 64.5323 125.798 73.2385L123.444 74.6583C120.773 74.7139 118.155 74.967 115.426 74.9564C104.208 74.9123 91.9862 67.8206 83.6658 60.731C80.0185 57.1046 77.7526 49.066 77.9694 44.1953C78.1792 39.4822 81.35 33.7316 85.5549 31.6406C88.2525 30.299 90.9134 28.2254 93.1108 26.3164C98.2606 25.9459 102.61 21.5316 109.174 23.6389Z" fill="white"/>
<path d="M109.09 23.5726L108.63 22.5548C109.046 21.9987 108.783 22.2214 109.492 21.9102C110.278 21.9706 110.221 21.983 110.844 22.4423C111.009 23.117 110.937 23.0093 110.75 23.7405C109.916 23.781 109.875 23.7423 109.09 23.5726Z" fill="white"/>
<path d="M112.32 23.7759C112.869 22.937 112.642 23.0242 113.44 22.6016C114.678 22.7566 114.817 23.3861 115.087 24.4467C114.007 24.2931 113.284 24.2693 112.32 23.7759Z" fill="white"/>
<path d="M133.315 89.7273C134.743 88.7974 136.169 89.3758 137.465 90.3146L138.056 90.8247C139.695 91.1619 141.322 91.48 142.905 92.0249C145.088 92.7761 147.204 93.8488 149.428 94.4411C149.611 93.9232 149.552 94.0522 149.566 93.4727C151.353 91.6197 154.072 93.7903 155.199 95.4374L157.235 95.6576C158.433 96.8757 159.484 98.3334 160.523 99.6975C160.288 101.055 160.173 104.947 159.728 105.542L159.201 105.363C158.564 105.724 159.667 106.973 158.934 108.357C158.058 108.805 157.545 108.399 156.508 108.469C154.883 108.58 155.976 109.675 155.186 110.474C146.89 104.839 140.757 102.839 132.245 109.881C126.377 106.113 125.107 104.014 124.313 97.1323C127.192 91.8549 128.817 93.3618 133.386 91.7013C133.039 91.419 132.63 91.1268 132.268 90.8545L132.246 90.4771C132.656 90.1588 132.874 89.9969 133.315 89.7273Z" fill="white"/>
<path d="M149.59 93.6074C151.376 91.8858 154.092 93.9025 155.219 95.4328C154.616 95.5413 154.049 95.4522 153.433 95.4017C151.857 95.1644 150.99 94.9302 149.453 94.5072C149.636 94.026 149.577 94.1459 149.59 93.6074Z" fill="white"/>
<path d="M149.453 94.5639C149.633 94.0691 149.575 94.1924 149.588 93.6387C151.141 94.8694 152.757 93.8742 153.373 95.4838C151.821 95.2398 150.967 94.9989 149.453 94.5639Z" fill="black"/>
<path d="M133.446 89.7449C134.863 88.7803 136.279 89.3803 137.565 90.3542L138.151 90.8835C136.791 90.8907 134.525 90.7816 133.517 91.7929C133.172 91.5 132.766 91.1968 132.407 90.9143L132.385 90.5229C132.792 90.1926 133.008 90.0246 133.446 89.7449Z" fill="black"/>
<path d="M133.308 89.7636C134.737 88.7621 136.163 89.3851 137.46 90.3962L137.037 90.6397C135.639 90.6346 134.574 90.4016 133.308 89.7636Z" fill="white"/>
<path d="M125.971 42.2521C127.062 41.5786 128.928 40.2062 130.14 40.3757C131.677 41.3338 131.327 42.3988 132.112 43.8031C133.077 45.5293 134.154 47.0912 134.972 48.9076C137.2 53.8515 138.082 60.4828 135.04 65.3268C133.342 67.9815 131.094 70.2428 128.447 71.9586C126.659 68.2694 124.303 62.7586 123.786 58.6437C123.554 56.7993 124.291 54.2141 124.05 52.3526C124.043 52.298 123.554 52.0794 123.588 52.0915C122.536 51.7201 122.822 52.1671 122.237 51.4112L122.284 51.0268C122.993 50.7537 123.05 50.8476 123.847 50.8839L124.065 50.6089C123.478 49.7523 122.654 49.2426 122.751 48.711C123.47 48.6526 123.923 48.6302 124.643 48.63C124.928 47.6476 123.577 45.8513 123.072 44.9237C123.474 44.6012 123.253 44.6913 123.719 44.6215L124.142 44.2964C124.246 43.4685 124.094 43.2666 124.531 42.5032C125.241 42.1465 125.184 42.151 125.971 42.2521Z" fill="white"/>
<path d="M123.621 44.6163L124.051 44.2938C124.158 43.4725 124.003 43.2722 124.448 42.515C125.171 42.1611 125.113 42.1656 125.915 42.2659C126.247 42.6656 126.38 42.8404 126.838 43.0967C126.962 44.1422 126.103 44.7135 125.446 46.1279C124.826 45.5656 124.332 45.0745 123.621 44.6163Z" fill="black"/>
<path d="M139.837 114.166C140.006 114.939 140.045 115.769 140.521 116.257L141.462 115.86C142.036 116.105 142.042 116.26 142.413 116.794C143.822 116.859 152.649 115.934 154.566 115.771C154.595 115.248 154.609 115.278 154.856 114.807C155.415 114.925 154.913 116.179 155.202 116.376C158.342 118.514 162.337 121.091 157.765 124.554C151.873 129.016 136.23 126.552 131.924 120.822C132.824 117.797 132.995 116.31 136.197 115.291C137.63 114.758 138.349 114.506 139.837 114.166Z" fill="white"/>
<path d="M139.818 114.166C139.98 114.93 140.018 115.75 140.478 116.232L141.386 115.84C141.94 116.082 141.945 116.235 142.303 116.763C139.135 117.044 138.604 117.216 136.306 115.278C137.688 114.751 138.383 114.502 139.818 114.166Z" fill="white"/>
<path d="M142.66 109.556L142.755 109.376C143.289 108.405 143.395 107.623 144.657 107.714C146.195 109.938 147.688 109.13 148.53 111.164C147.279 112.098 141.526 112.478 139.796 112.55C139.238 112.121 138.483 111.496 137.882 111.192L137.453 111.201L137.229 110.95C137.791 110.407 137.869 110.584 138.935 110.58C139.054 109.004 139.866 108.283 141.535 108.51C141.921 108.952 141.908 109.093 142.098 109.661L142.66 109.556Z" fill="white"/>
<path d="M142.764 109.557L142.858 109.377C143.382 108.405 143.487 107.623 144.726 107.714C146.236 109.94 147.703 109.131 148.53 111.167C148.004 111.002 147.519 110.684 146.767 110.468C145.424 110.082 144.71 110.542 143.625 110.048C143.195 109.688 143.301 109.786 142.764 109.557Z" fill="black"/>
<path d="M142.764 109.529L142.852 109.353C143.345 108.395 143.444 107.625 144.609 107.714C144.306 108.848 144.18 108.991 143.574 110.013C143.169 109.658 143.269 109.755 142.764 109.529Z" fill="white"/>
<path d="M137.879 111.157L137.452 111.166L137.229 110.912C137.788 110.362 137.866 110.541 138.926 110.537C139.045 108.941 139.852 108.21 141.513 108.44C141.896 108.887 141.883 109.03 142.072 109.606C140.008 111.161 139.597 110.514 137.879 111.157Z" fill="black"/>
<path d="M160.754 106.785L161.215 107.128C161.123 107.91 160.374 108.721 159.86 109.553L159.597 109.513L159.37 109.127C159.56 108.358 160.301 107.439 160.754 106.785Z" fill="white"/>
<path d="M50.8064 64.7964C55.1948 62.9803 66.2681 62.0974 70.8052 64.1278C72.5143 64.8926 74.2172 66.2122 75.8116 67.1676C76.8218 67.7729 80.5233 69.0891 80.9485 69.9497C82.0358 72.1507 82.3956 72.9494 84.0408 74.8848C83.8927 76.3476 83.547 78.1959 83.6806 79.5463C84.7141 80.3616 87.5333 79.3784 89.692 81.237C91.8977 83.0371 94.1908 84.7932 96.2657 86.7421C97.3196 87.7319 98.2605 89.6219 99.2401 90.582C101.756 93.0491 102.969 95.7043 104.836 98.5216C107.399 102.238 110.446 106.373 112.161 110.562C113.201 113.102 114.246 117.591 114.54 120.379C115.612 130.554 106.529 134.15 99.001 136.147C97.8031 136.49 96.2259 136.99 95.0425 137.218L94.3495 137.933C99.4993 139.859 99.6657 143.957 100.782 148.78C101.323 151.118 100.889 153.021 101.046 155.323C100.068 157.02 99.2704 157.766 99.4264 159.546L99.2244 159.748L98.4219 159.296C97.462 159.877 97.9981 161.163 96.6515 160.834C96.1933 160.722 95.9361 160.7 95.4622 160.68L95.2725 160.829L96.1072 161.524C95.4901 162.921 91.929 164.369 90.394 163.887C90.1894 163.823 89.648 163.051 89.4984 162.841C88.6662 163.658 87.1068 164.633 86.4985 163.087C86.7896 162.134 86.6678 162.449 87.4493 161.684C85.858 161.535 84.4503 161.009 83.0705 161.319L81.7504 161.506C77.7305 159.893 73.7922 156.755 73.372 152.106C72.8067 145.85 76.2692 142.926 80.2722 138.902C80.5272 138.646 81.2111 138.971 81.9258 138.09C80.6399 137.036 81.0028 137.592 80.5464 136.014L80.3438 136.052C80.2037 136.722 80.2127 137.108 80.1946 137.781C79.064 139.082 77.6563 137.244 76.1191 138.338C74.9511 139.17 72.5903 139.015 71.1824 139.128C64.7956 139.65 58.5377 137.141 52.9832 134.225C48.4599 131.85 45.2365 125.278 43.8904 120.559C41.7512 113.061 45.0337 105.858 48.7367 99.4709C44.16 97.3647 41.7331 97.4256 38.4511 92.7844C35.4482 88.5379 34.4706 84.3257 35.3878 79.1822C35.9617 75.9634 42.9411 68.8115 45.7495 67.0884C47.4336 66.3881 49.1495 65.5714 50.8064 64.7964Z" fill="black"/>
<path d="M66.4338 66.3463C67.8562 66.5482 67.6145 66.2336 68.2188 64.8086L68.5417 64.8568C69.2511 66.0722 68.3447 66.1949 69.13 66.9754L69.4773 67.0019C73.2228 67.324 72.9828 71.0197 78.5322 71.8879C79.3051 74.4347 78.4669 73.7334 80.4919 75.9867L80.3353 76.7356C80.1062 77.3914 79.979 78.0297 79.4782 78.4711C78.7592 78.3998 78.2005 78.3584 77.4669 78.4634C64.9724 80.2497 57.8099 87.0598 50.3964 97.3284C44.6912 95.4846 41.14 93.9904 38.9272 88.0262C37.7926 84.9677 37.9293 83.7252 38.4125 80.5499C40.3115 78.0931 42.358 75.9621 44.4063 73.6395C44.4189 73.625 44.5019 72.3596 44.5093 72.2412C45.9462 71.4797 50.0444 68.7766 50.6321 68.6048L50.9511 68.3866C52.0536 67.6387 51.9009 67.779 53.2188 68.0425C55.2268 67.1961 56.3931 66.5381 58.5677 66.3309L62.9047 66.3185L66.4338 66.3463Z" fill="white"/>
<path d="M96.5068 135.142C97.3308 134.838 97.8534 134.617 98.6419 134.23L98.8659 134.449C98.8461 135.121 98.7619 135.57 98.9429 136.193C97.7821 136.525 96.2536 137.008 95.1068 137.229C93.6242 137.136 93.5814 137.325 92.9463 136.01L93.5531 136.234C94.2067 135.274 95.425 135.297 96.5068 135.142Z" fill="black"/>
<path d="M96.406 135.152C95.951 136.349 94.5644 136.351 93.4077 136.281C94.0712 135.289 95.3078 135.313 96.406 135.152Z" fill="white"/>
<path d="M50.3559 66.6293C51.059 66.0574 51.5068 65.4751 52.3562 65.2695L52.6957 65.4584L52.8317 66.0857C52.9309 66.494 53.2291 67.6043 53.2768 67.9659C51.9344 67.7164 52.09 67.5835 50.9669 68.2918L50.642 68.4985C49.9219 68.0234 49.9249 68.0073 49.356 67.3657C49.6282 67.1355 50.0547 66.8475 50.3559 66.6293Z" fill="black"/>
<path d="M52.8154 66.0925L53.2031 65.7305C55.094 65.848 56.9107 66.2789 58.5814 66.3607C56.4143 66.5635 55.252 67.208 53.2509 68.0368C53.2043 67.6629 52.9125 66.5148 52.8154 66.0925Z" fill="black"/>
<path d="M45.8965 67.0701C47.5453 66.3791 49.2252 65.5733 50.8475 64.8086L50.9705 65.2958C50.6028 65.6693 50.4432 65.8126 50.0318 66.1366C50.2169 66.5267 50.0897 66.3699 50.3958 66.6211C50.1056 66.8484 49.6949 67.1482 49.4327 67.388C47.6983 66.5644 47.7548 67.5992 46.3954 67.8069L45.8965 67.0701Z" fill="black"/>
<path d="M62.9639 66.393C63.4124 65.3364 63.4425 65.136 64.1749 64.3512C65.0015 64.0398 64.5984 64.0423 65.4265 64.34C65.9886 65.0841 66.1652 65.464 66.4234 66.4236L62.9639 66.393Z" fill="black"/>
<path d="M87.4391 161.676C88.1016 162.052 88.8614 162.46 89.4871 162.877C88.6553 163.726 87.0968 164.739 86.4888 163.133C86.7798 162.142 86.658 162.471 87.4391 161.676Z" fill="black"/>
<path d="M92.7774 135.846C93.4373 137.275 93.4818 137.069 95.0222 137.17L94.3245 137.921C93.3523 137.803 91.6521 137.311 91.332 136.258L91.5046 135.996L92.7774 135.846Z" fill="white"/>
<path d="M80.6419 75.8789C81.5183 76.3229 82.219 76.5442 82.7986 77.3856L82.7178 77.716C81.9323 77.801 81.1575 77.1905 80.4922 76.6958L80.6419 75.8789Z" fill="white"/>
<path d="M76.4676 91.2491C79.0314 88.0623 80.3319 86.1548 81.2895 82.1074C83.5395 82.8707 86.5712 83.6767 88.5009 85.0318C94.034 88.926 96.9485 94.8282 100.405 100.418C102.345 103.554 104.834 106.819 106.407 110.099C108.686 114.85 110.498 123.187 106.507 127.414L106.884 127.769C106.898 128.63 106.939 128.621 106.545 129.433C105.754 130.001 106.177 129.867 105.255 129.913C104.551 129.506 104.529 129.473 103.966 128.948C102.753 129.51 97.5102 131.531 96.2942 131.693C95.9058 133.016 93.913 134.969 92.6662 135.385C91.7539 134.855 91.7115 134.278 91.4164 133.223C90.518 133.243 88.7495 133.463 88.0628 133.291C86.355 133.326 83.0266 134.189 81.1427 134.433C67.7378 136.168 46.4894 135.193 47.7995 116.583C48.2846 109.694 51.6075 105.6 55.0736 99.8887C59.8863 100.964 67.9651 98.8985 71.879 95.8218L71.7858 95.6383C72.0576 94.7622 72.3037 95.1698 72.2372 94.269C71.2823 93.8528 71.7728 93.9335 70.7029 94.0643C72.2953 92.6897 73.4342 91.5516 74.905 90.0533C75.1114 90.4657 75.1997 90.9247 75.6498 91.0842C76.0593 91.2295 75.8925 91.1946 76.3295 91.1797L76.4676 91.2491Z" fill="white"/>
<path d="M75.0081 89.9492C75.2146 90.3614 75.3029 90.8202 75.7531 90.9797C76.1627 91.1248 75.9959 91.09 76.4329 91.0751L76.5711 91.1445C75.2834 92.9087 73.8855 94.5671 71.9815 95.7151L71.8882 95.5318C72.1601 94.656 72.4063 95.0635 72.3398 94.163C71.3847 93.747 71.8753 93.8277 70.8052 93.9584C72.3979 92.5845 73.537 91.4468 75.0081 89.9492Z" fill="black"/>
<path d="M88.103 133.29C90.0509 132.743 93.9443 132.167 96.1753 131.693C95.7944 133.016 93.8402 134.968 92.6174 135.384C91.7228 134.854 91.6812 134.277 91.3917 133.222C90.5107 133.243 88.7765 133.462 88.103 133.29Z" fill="black"/>
<path d="M106.42 127.311L106.777 127.671C106.79 128.545 106.829 128.536 106.456 129.36C105.708 129.937 106.108 129.801 105.236 129.848C104.57 129.435 104.55 129.401 104.017 128.868L106.42 127.311Z" fill="black"/>
<path d="M94.0169 156.846C92.1971 158.052 90.9592 158.855 88.7846 159.229C84.3606 159.81 79.3217 158.728 78.2824 153.755C77.4042 149.553 82.6768 141.507 86.7603 140.92C88.5988 141.854 90.2056 141.294 91.8842 142.473C96.5465 145.747 97.466 151.992 94.3656 156.614L94.0169 156.846Z" fill="white"/>
<path d="M58.1201 95.5307C59.0578 94.6128 59.9409 93.3205 60.8732 92.3189C64.3519 88.5818 67.4019 85.6761 72.3472 84.1406C73.6308 83.742 76.7381 82.8514 77.9311 83.4749C78.2306 84.7326 75.6233 88.8456 74.8501 90.0501C73.3892 91.557 72.258 92.7016 70.6762 94.0841C69.5053 94.6133 68.3132 95.5011 67.1872 96.0066C64.5698 97.1818 61.1382 97.3399 58.3117 97.5593L58.1201 95.5307Z" fill="white"/>
<path d="M98.2663 152.649C97.7453 152.056 97.4115 151.823 97.3286 150.991L97.534 150.605C98.7813 150.608 99.1358 151.272 99.1737 152.491C98.9359 152.972 98.9683 152.948 98.6529 153.373L98.2663 152.649Z" fill="white"/>
<path d="M96.1753 145.07C97.3797 145.933 98.0022 148.472 98.251 149.914C96.9272 149.021 96.7595 146.915 96.1753 145.07Z" fill="white"/>
<path d="M39.6124 75.8789C39.9633 76.0268 39.778 75.9173 40.1307 76.2602C39.975 77.2931 39.2924 78.3428 38.7756 79.296L38.4917 79.3385L38.2856 79.0701C38.3555 77.8482 38.8513 76.8337 39.6124 75.8789Z" fill="white"/>
<path d="M94.0996 156.828L94.4305 156.602C95.2165 156.921 95.268 156.877 95.8124 157.585C95.9872 158.472 96.0278 158.054 95.6905 158.884C95.0686 159.348 95.1188 159.324 94.3549 159.369C94.6404 158.667 94.7977 158.363 94.9179 157.596C94.5878 157.134 94.5652 157.155 94.0996 156.828Z" fill="black"/>
<path d="M98.2759 152.682L98.7123 153.425C98.0995 153.912 97.584 154.423 96.8672 154.527C97.0293 153.831 97.7383 153.238 98.2759 152.682Z" fill="white"/>
<path d="M122.795 314.042L122.79 314.04C122.392 314.744 121.67 315.291 121.05 315.837L121.119 316.199C121.678 316.371 121.961 316.391 122.374 316.791C122.779 319.228 122.827 323.133 122.988 325.629C123.257 329.787 125.39 343.928 123.207 347.093C122.437 347.46 121.491 347.673 120.64 347.519C120.281 347.455 120.207 347.259 120.056 346.935C118.236 343.048 117.399 336.272 116.7 332C113.344 311.504 112.178 292.546 113.069 271.756C113.333 265.613 113.489 259.407 114.51 253.33C115.492 247.488 117.771 241.436 120.355 236.096C123.186 230.248 127.501 224.487 131.708 219.562C134.362 216.453 138.94 212.616 140.463 208.774C142.229 204.317 133.395 191.061 131.328 186.403C130.726 185.047 130.175 183.467 130.354 181.967C130.629 179.66 132.387 178.098 132.948 175.976C134 171.992 133.004 168.026 134.619 164.007C136.37 159.648 139.823 157.108 144.052 155.356C146.1 154.507 150.757 152.933 152.849 153.917C153.433 154.191 153.807 154.669 153.988 155.276C154.748 157.811 146.662 168.462 144.949 171.114C143.852 172.814 142.901 174.53 142.011 176.349C142.268 177.321 142.707 178.074 141.846 178.723C141.316 178.651 141.261 178.641 140.804 178.321C133.985 173.546 149.811 160.228 149.315 156.857C149.24 156.83 149.168 156.803 149.093 156.776C140.399 155.244 134.557 170.167 137.752 175.937C136.616 177.327 136.441 177.935 135.737 179.573C135.446 180.252 134.619 180.18 133.785 180.303C132.922 184.513 138.099 191.316 139.756 195.083C141.714 199.536 143.01 204.292 145.11 208.704C144.713 199.993 143.045 201.093 140.61 193.918L140.508 193.613C140.838 192.735 141.153 191.837 141.472 190.954C144.418 193.224 148.858 197.769 148.633 201.694C149.043 202.244 149.478 202.45 149.618 202.64C151.368 205.027 150.981 209.783 151.065 212.441C157.042 213.55 159.301 213.009 164.909 215.713C164.685 211.921 164.067 210.444 163.492 207.025C163.297 205.864 164.705 197.036 165.425 195.484C165.794 194.69 166.516 193.959 167.44 193.758C168.137 193.606 168.361 193.968 168.993 194.409C172.52 192.486 173.509 187.341 174.343 183.804C171.578 176.014 165.384 168.422 161.597 160.997C161.461 160.731 159.611 159.498 159.231 159.243C159.297 158.355 159.849 157.525 160.277 156.718C158.291 156.041 156.39 155.981 154.649 155.251L154.517 154.921C155.409 153.634 160.82 154.247 162.049 154.778C163.938 155.594 164.501 159.664 165.482 161.262C166.335 162.655 167.499 164.074 168.343 165.493C171.341 170.381 175.633 176.287 177.335 181.796C179.606 189.135 177.064 196.009 169.518 198.253C169.86 205.077 169.423 210.607 169.387 217.39C174.302 217.996 179.688 222.883 183.249 226.293C190.056 232.811 190.713 244.596 192.273 253.325C192.841 259.018 195.205 265.649 195.698 271.208C196.678 282.256 198.691 295.216 198.573 306.112C198.121 305.743 197.903 305.63 197.412 305.332L195.861 305.23L195.533 303.553C195.447 303.087 195.451 302.632 195.431 302.155C195.354 295.806 194.131 290.141 193.534 284.021C192.173 269.247 188.752 254.576 185.388 240.171C183.455 231.883 177.093 225.879 170.498 221.118C168.203 219.46 166.955 217.885 164.347 216.442C159.546 216.754 154.205 215.819 149.279 215.647C148.681 218.168 147.988 218.987 146.166 220.654C145.766 219.725 145.072 218.566 144.565 217.659C139.151 220.394 136.416 225.204 133.081 229.91C131.381 232.309 129.431 234.112 127.774 236.804C120.811 248.119 121.662 261.796 121.654 274.541C121.661 279.555 122.419 281.362 121.715 286.657L121.665 288.379C121.618 290.646 121.6 292.723 121.351 294.985C121.45 297.863 121.691 301.141 121.979 304.047C121.984 304.096 121.409 304.804 121.317 304.913L121.454 305.275L122.102 306.32C122.096 308.022 122.164 308.931 122.362 310.626C122.472 311.864 122.602 312.823 122.795 314.042Z" fill="black"/>
<path d="M120.775 299.968L120.864 300.18C120.693 301.097 120.84 301.357 121.089 302.292C122.015 301.772 120.408 296.483 121.398 294.984C121.493 297.886 121.727 301.19 122.007 304.119C122.012 304.169 121.454 304.883 121.365 304.992L121.498 305.357C120.956 305.791 120.701 306.055 120.046 306.286L119.653 306.037C119.212 304.648 119.782 303.12 119.47 301.564C120.283 301.017 120.438 300.835 120.775 299.968Z" fill="black"/>
<path d="M119.476 301.443C119.477 300.082 119.41 298.469 119.694 297.174L119.907 297.061C120.383 298.006 120.44 298.773 120.623 299.855C120.327 300.717 120.191 300.898 119.476 301.443Z" fill="white"/>
<path d="M195.349 302.153C196.46 301.06 196.217 299.902 196.892 299.367L197.194 299.425C197.176 300.574 196.769 302.102 195.982 302.97L195.453 303.519C195.365 303.063 195.37 302.619 195.349 302.153Z" fill="white"/>
<path d="M121.776 286.682L121.724 288.296C121.541 288.029 121.519 288.058 121.24 287.846C120.207 288.271 120.587 288.36 119.47 288.228C119.848 287.157 120.676 286.989 121.776 286.682Z" fill="black"/>
<path d="M116.707 294.359C117.286 292.602 117.012 288.689 117.46 287.834C118.064 289.334 117.108 288.351 117.96 290.266C118.167 295.519 118.059 300.589 118.253 305.849C118.336 308.09 119.067 312.578 119.005 314.448L118.717 315.741L117.983 314.29C117.518 309.89 116.628 298.57 116.707 294.359Z" fill="white"/>
<path d="M116.721 294.293C116.605 289.326 117.047 284.325 117.132 279.359C117.151 278.267 117.193 277.189 117.368 276.108L117.576 276.072C118.817 278.867 118.151 286.901 118.029 290.201C117.14 288.286 118.137 289.269 117.507 287.77C117.04 288.624 117.326 292.536 116.721 294.293Z" fill="white"/>
<path d="M117.579 258.312C118.655 260.569 117.689 268.101 117.654 270.993L117.226 270.998C117.119 268.317 117.1 260.726 117.579 258.312Z" fill="black"/>
<path d="M120.919 253.24C121.619 253.682 121.532 253.883 121.546 254.664C121.18 255.531 121.185 255.477 120.403 256.008L119.932 255.55C119.9 254.76 120.499 253.96 120.919 253.24Z" fill="white"/>
<path d="M122.101 242.861L122.238 243.008C122.222 243.813 121.43 245.045 121.006 245.86C120.571 245.316 120.706 245.618 120.623 244.908C120.983 243.89 121.314 243.676 122.101 242.861Z" fill="white"/>
<path d="M147.788 215.414C147.979 215.45 148.33 215.569 148.528 215.629C148.567 216.281 148.056 216.795 147.627 217.49C147.063 217.421 147.283 217.573 146.916 217.094C147.021 216.354 147.369 216.005 147.788 215.414Z" fill="white"/>
<path d="M190.163 130.033C190.363 129.135 190.749 127.145 191.162 126.371C193.977 121.099 198.073 115.11 203.05 111.677C203.47 111.388 211.168 107.708 211.461 107.691C214.367 107.525 220.724 106.06 223.169 106.588C223.655 106.692 224.134 106.811 224.611 106.947L225.835 106.094C232.927 107.711 236.964 109.69 242.156 115.069C243.848 116.822 243.639 117.447 245.866 118.274C248.74 122.848 249.862 125.935 250.593 131.258C251.224 135.871 248.965 136.837 247.807 141.227C246.109 142.742 244.082 144.139 242.863 145.994C242.349 145.865 242.345 145.742 241.895 145.327C241.77 144.604 241.677 144.91 242.045 144.355C243.037 144.066 243.469 144.122 243.748 143.099C243.271 142.019 243.024 141.74 243.221 140.583C244.288 140.244 244.411 139.405 244.742 138.44C245.478 137.766 245.351 137.31 245.337 136.383L244.672 135.087C244.883 134.594 245.115 134.128 245.349 133.646C249.122 125.615 242.393 124.15 242.259 118.797C242.256 118.691 242.259 118.585 242.259 118.479C241.929 118.654 241.875 118.711 241.623 118.972C240.663 118.512 236.179 114.285 234.946 113.294C232.991 111.723 233.863 111.637 231.014 111.805C230.516 111.591 229.238 109.851 228.446 109.125L227.279 110.456C226.418 110.471 224.1 110.627 223.462 110.236L221.355 108.963C220.622 109.202 220.917 109 220.429 109.583C220.815 109.858 220.974 109.945 221.396 110.165L221.349 110.376C218.783 109.754 218.577 110.994 217.183 110.723C216.842 110.286 216.604 109.953 216.297 109.493L215.82 109.424C215.325 109.903 215.28 110.511 215.114 111.206C214.526 111.615 211.618 112.339 210.739 112.582C210.569 112.273 210.542 112.203 210.269 111.965C208.648 113.174 205.011 117.547 202.823 117.039L202.527 117.418C202.836 118.126 202.927 118.157 202.759 118.918C201.64 120.139 200.922 119.165 200.443 120.25C200.57 120.804 200.816 121.398 200.384 121.856C197.703 124.71 196.118 128.576 194.329 132.143C193.73 133.745 194.075 133.094 194.157 134.726C194.279 137.175 194.981 139.291 195.669 141.619C194.908 142.204 195.047 142.477 194.288 142.488L193.893 141.887C193.237 141.978 192.647 142.137 192.036 141.939C189.652 139.261 188.96 133.334 190.163 130.033Z" fill="black"/>
<path d="M247.303 133.74C247.582 132.884 247.439 132.818 248.027 132.385C248.554 133.053 248.442 133.717 248.152 134.473C247.691 134.624 247.251 134.784 246.815 134.999L246.87 135.406C246.94 135.961 246.931 136.212 246.917 136.767C246.302 136.73 246.068 136.215 245.494 135.6L245.14 136.347L244.475 135.037C244.686 134.539 244.918 134.068 245.151 133.581C245.86 133.616 246.613 133.628 247.303 133.74Z" fill="white"/>
<path d="M244.475 135.105C244.699 134.648 244.944 134.216 245.192 133.77C245.943 133.802 246.742 133.813 247.473 133.915C246.27 134.102 246.537 133.918 245.681 134.514C245.481 135.191 245.416 135.013 245.556 135.621L245.18 136.307L244.475 135.105Z" fill="black"/>
<path d="M227.404 108.861L228.331 109.109L227.197 110.433C226.36 110.448 224.107 110.603 223.487 110.214C224.079 109.947 224.037 109.965 224.425 109.434C225.486 109.938 226.493 109.422 227.404 108.861Z" fill="black"/>
<path d="M191.947 138.383C192.967 138.902 194.077 140.802 193.956 141.842C193.026 140.943 191.583 139.745 191.947 138.383Z" fill="white"/>
<path d="M202.658 117.394C201.502 116.949 200.988 117.081 199.962 116.254L200.011 116.01C201.13 116.095 201.938 116.568 202.96 117.032L202.658 117.394Z" fill="white"/>
<path d="M224.41 109.364C225.596 108.453 225.955 108.539 227.408 108.835C226.491 109.353 225.478 109.829 224.41 109.364Z" fill="white"/>
<path d="M191.89 129.71C192.296 128.006 194.068 127.999 195.58 127.773C195.027 128.891 194.391 130.555 193.911 131.464C193.843 130.536 193.973 129.599 193.553 128.948C192.697 129.008 192.725 129.175 191.89 129.71Z" fill="white"/>
<path d="M195.633 124.312C196.4 125.13 196.54 126.259 195.703 127.08C195.242 126.559 195.231 126.498 194.888 125.858C194.98 124.955 195.028 125.155 195.633 124.312Z" fill="black"/>
<path d="M179.824 253.471C181.111 253.55 182.141 253.581 183.173 254.382C185.26 257.853 185.519 265.094 185.951 269.097L187.483 282.408C187.989 287.021 189.117 292.608 189.361 297.017C189.867 306.109 189.784 314.232 190.886 323.322C191.199 326.04 191.627 328.746 192.171 331.426C192.968 335.293 195.153 342.017 194.555 345.495C193.68 345.323 191.996 344.758 191.62 343.847C187.514 333.881 186.749 322.354 185.224 311.741C184.516 306.808 185.009 301.322 184.425 296.368C183.574 289.141 182.918 282.058 182.204 274.835C181.716 268.839 180.717 263.324 179.488 257.471C179.3 256.569 179.667 254.479 179.824 253.471Z" fill="black"/>
<path d="M208.376 159.602C210.085 159.712 211.907 160.164 213.371 161.084C214.641 161.881 216.776 165.069 217.029 166.374L216.796 166.7C216.128 166.65 215.848 166.579 215.205 166.797C214.779 167.484 214.798 167.157 214.888 167.79C215.554 167.72 215.375 167.684 216.004 167.806C215.35 171.524 207.701 173.369 204.507 172.909C204.209 172.866 204.046 172.148 203.942 171.873L203.788 171.757C200.503 173.789 200.549 171.579 196.058 171.588C194.804 170.394 194.48 170.018 193.504 168.596C198.491 163.196 200.698 160.302 208.376 159.602Z" fill="black"/>
<path d="M207.272 162.83C208.979 164.461 209.967 164.05 212.186 163.962C207.99 169.076 208.836 169.263 202.303 168.972C201.477 168.783 200.655 168.539 199.962 168.032C200.69 167.07 203.892 164.879 205.069 164.373C204.696 164.948 203.454 166.304 203.409 166.676C204.665 166.7 205.244 164.628 207.004 163.065L207.272 162.83Z" fill="white"/>
<path d="M115.151 167.088C109.979 172.469 101.044 167.102 101.019 160.364C101.015 159.486 101.486 155.923 102.211 155.506C104.522 154.18 108.339 154.104 110.99 154.064C113.919 154.138 115.668 156.152 117.369 158.134C117.491 159.275 117.758 160.647 117.95 161.797C118.193 162.817 118.622 163.726 117.977 164.622C117.201 165.852 118.386 165.584 117.546 166.493C116.388 166.172 116.713 166.085 115.724 166.39C115.605 166.527 115.211 166.948 115.151 167.088Z" fill="black"/>
<path d="M116.816 162.882L117.947 161.906C118.192 162.928 118.625 163.84 117.974 164.739C117.192 165.972 118.387 165.703 117.539 166.614C116.372 166.293 116.699 166.205 115.703 166.512C115.583 166.649 115.185 167.071 115.124 167.211C114.364 166.654 114.301 167.054 113.704 166.384C114.838 165.275 115.596 164.107 116.505 162.821L116.816 162.882Z" fill="white"/>
<path d="M116.717 162.859L117.923 161.906C118.184 162.905 118.645 163.795 117.952 164.674C117.064 164.606 116.735 164.74 116.241 164.309L116.717 162.859Z" fill="black"/>
<path d="M108.774 158.226L108.908 158.217C109.597 158.571 110.75 158.905 111.514 159.156C112.09 159.759 112.68 160.441 113.243 161.066C112.248 163.145 111.739 163.902 109.679 164.787L106.905 165.367C102.55 158.619 107.63 159.955 108.774 158.226Z" fill="white"/>
<path d="M113.935 158.908C115.275 159.193 115.448 159.599 115.78 160.753C114.732 160.606 114.349 159.7 113.935 158.908Z" fill="white"/>
<path d="M193.97 141.882L194.364 142.488C195.119 142.477 194.981 142.202 195.738 141.611C200.731 150.614 214.457 152.375 223.709 150.122C225.898 149.589 226.859 148.826 228.645 147.542C228.05 148.602 227.178 149.793 227.293 150.911C227.808 151.291 228.218 151.226 228.867 151.249L229.023 151.5C227.894 152.243 224.892 152.666 223.519 152.905C222.699 152.432 222.398 152.055 221.76 151.659C221.851 152.243 221.932 152.499 222.163 153.043C221.995 153.904 222.21 153.592 221.6 154.077C220.892 154.18 220.148 154.311 219.438 154.333C218.443 154.438 217.306 154.64 216.352 154.446C216.157 153.864 216.173 153.798 215.818 153.315C214.839 153.477 215.594 153.98 214.337 154.298C213.72 153.979 213.331 153.69 212.646 153.713C211.92 154.287 211.778 154.604 210.921 154.218C210.819 153.905 210.749 153.603 210.708 153.276C210.555 153.459 209.935 154.169 209.657 154.063C207.862 153.379 206.867 152.976 204.968 152.849C202.055 149.801 201.976 150.606 198.485 148.71C196.658 147.718 193.251 143.805 192.121 141.935C192.729 142.135 193.317 141.974 193.97 141.882Z" fill="black"/>
<path d="M219.39 154.297C219.126 153.168 218.746 152.265 219.838 151.546C220.754 151.507 220.788 151.526 221.702 151.707C221.792 152.272 221.874 152.52 222.103 153.047C221.937 153.882 222.151 153.579 221.543 154.049C220.838 154.148 220.097 154.276 219.39 154.297Z" fill="black"/>
<path d="M241.953 139.684C242.894 139.442 243.834 138.856 244.706 138.383C244.377 139.353 244.255 140.195 243.196 140.536C243 141.698 243.246 141.978 243.719 143.063C243.442 144.091 243.014 144.035 242.029 144.325C241.664 144.883 241.757 144.575 241.881 145.302C241.306 145.648 241.439 145.412 241.299 145.919C240.234 147.416 240.06 147.265 238.233 147.376L237.762 147.607L237.661 148.228C236.717 149.52 234.685 151.336 233.04 150.3L232.943 149.719C233.288 148.747 233.495 148.626 234.23 147.851L233.658 147.347C233.567 147.209 233.473 146.934 233.405 146.768C234.347 145.348 238.292 142.954 239.862 142.052C240.549 141.37 241.308 140.433 241.953 139.684Z" fill="white"/>
<path d="M239.751 142.072L239.933 142.075C240.108 143.2 240.221 142.893 239.826 143.79C238.308 144.681 237.856 143.596 236.889 144.557C236.916 146.084 237.873 144.874 237.033 147.055L237.585 148.233C236.656 149.522 234.657 151.333 233.039 150.3L232.943 149.72C233.283 148.751 233.486 148.63 234.209 147.857L233.646 147.354C233.557 147.217 233.464 146.943 233.398 146.777C234.324 145.36 238.206 142.972 239.751 142.072Z" fill="black"/>
<path d="M233.635 147.345C234.36 146.839 235.695 145.438 236.364 145.301C236.652 146.616 235.26 147.399 234.216 147.838L233.635 147.345Z" fill="white"/>
<path d="M235.779 147.607C236.28 147.862 236.059 147.679 236.403 148.191C236.204 148.923 235.389 149.406 234.739 149.914L234.158 149.889L234.096 149.505C234.577 148.603 234.999 148.321 235.779 147.607Z" fill="white"/>
<path d="M241.953 139.69C242.894 139.447 243.834 138.858 244.706 138.383C244.377 139.357 244.255 140.204 243.196 140.547C241.996 140.643 242.489 141.741 240.047 142.073L239.862 142.071C240.549 141.385 241.309 140.444 241.953 139.69Z" fill="black"/>
<path d="M238.248 147.376C238.468 145.401 239.583 145.134 241.246 145.999C240.204 147.415 240.035 147.272 238.248 147.376Z" fill="black"/>
<path d="M244.517 135.152L245.151 136.439C245.164 137.359 245.285 137.811 244.584 138.48C243.746 138.947 242.843 139.526 241.938 139.765C242.893 137.984 243.835 137.393 244.517 135.152Z" fill="black"/>
<path d="M230.848 147.848C231.518 147.477 231.961 147.122 232.712 147.148C232.498 147.946 231.564 148.229 230.815 148.573C231.065 149.182 231.095 149.144 230.958 149.775L230.533 149.914C229.611 149.488 229.267 149.333 229.253 148.293C229.782 147.737 229.775 147.924 230.848 147.848Z" fill="black"/>
<path d="M81.876 161.404L83.1468 161.215C83.5945 163.033 85.1089 161.877 85.5662 162.914C84.6395 164.117 82.7159 162.114 81.876 161.404Z" fill="black"/>
<path d="M131.2 158.641L148.299 154.758L139.133 164.994L134.726 177.525L131.2 181.585L139.133 198.351L145.832 213.177L124.501 232.944L120.623 217.589V175.054L131.2 158.641Z" fill="black"/>
</g>
<defs>
<clipPath id="clip0_40000377_7777">
<rect width="302.596" height="302.596" fill="white"/>
</clipPath>
</defs>
</svg>
