<svg width="315" height="307" viewBox="0 0 315 307" fill="none" xmlns="http://www.w3.org/2000/svg">
<g clip-path="url(#clip0_40000713_13105)">
<path d="M149.78 118.131C158.79 119.226 156.079 123.871 155.869 126.361C155.705 128.371 153.587 129.666 151.606 130.109C149.625 130.553 147.48 130.517 145.681 131.44C142.532 133.061 141.491 136.981 141.044 140.467C140.898 141.617 140.742 142.848 139.967 143.708C137.885 146.026 133.932 143.69 130.947 144.623C127.46 145.7 127.031 150.272 126.319 153.821C124.402 163.419 115.035 171.006 105.167 170.961C103.56 170.961 101.835 170.716 100.621 169.675C98.6855 168.009 98.7494 165.066 98.9776 162.531C99.7262 154.238 100.502 145.836 103.359 138.004C106.217 130.173 111.439 122.848 118.988 119.199C127.907 114.889 138.424 116.302 148.228 117.805" fill="black"/>
<path d="M115.766 169.683C115.556 169.764 115.309 169.782 115.117 169.9C113.967 170.597 112.634 170.896 111.356 171.24C109.95 171.62 108.49 171.738 107.047 171.756C106.701 171.756 106.354 171.765 106.007 171.792C105.276 171.838 104.546 171.919 103.77 171.892C103.003 171.874 102.191 171.747 101.424 171.394C101.15 171.267 100.931 171.032 100.721 170.796C100.52 170.561 100.329 170.335 100.073 170.19C99.8629 170.063 99.653 169.9 99.4978 169.701C98.594 168.678 98.0737 167.401 97.8089 166.17C97.5351 164.93 97.4803 163.689 97.6081 162.53C97.8363 160.457 97.9824 158.383 98.2745 156.31C98.5301 154.472 98.7766 152.634 99.1691 150.814C99.6073 148.804 99.7716 146.749 100.301 144.757C100.885 142.566 101.369 140.33 102.218 138.202C102.875 136.545 103.515 134.879 104.309 133.268C105.103 131.656 105.66 129.873 106.746 128.388C107.732 127.021 108.846 125.717 110.087 124.576C111.886 122.91 113.775 121.344 115.866 120.067C117.308 119.198 118.86 118.51 120.44 117.958C120.786 117.849 121.124 117.74 121.462 117.623C121.8 117.514 122.128 117.36 122.475 117.269C122.822 117.17 123.16 117.07 123.507 116.98C123.68 116.935 123.854 116.889 124.027 116.853C124.201 116.817 124.383 116.799 124.557 116.772C125.004 116.708 125.451 116.636 125.899 116.554C126.346 116.491 126.793 116.427 127.241 116.355C127.688 116.274 128.135 116.228 128.583 116.192C129.03 116.156 129.477 116.092 129.934 116.102C130.399 116.102 130.874 116.074 131.339 116.047C131.805 116.029 132.271 116.011 132.745 115.993C133.211 115.966 133.686 115.957 134.151 115.948C134.617 115.948 135.091 115.92 135.557 115.948C138.25 116.011 140.925 116.237 143.591 116.545C143.828 116.572 144.056 116.654 144.293 116.69C145.015 116.817 145.699 117.034 146.475 116.772C147.169 116.536 147.772 116.916 148.182 117.55C148.292 117.722 148.31 117.939 148.128 118.13C147.881 118.374 147.626 118.537 147.279 118.483C145.964 118.256 144.631 118.247 143.317 118.202C142.97 118.193 142.623 118.039 142.276 118.003C140.231 117.786 138.195 117.604 136.16 117.604C135.256 117.595 134.361 117.541 133.467 117.523C132.508 117.523 131.531 117.414 130.573 117.668C130.107 117.786 129.623 117.84 129.149 117.894C128.674 117.949 128.181 117.93 127.697 117.958C127.195 117.976 126.693 118.048 126.191 118.148C125.707 118.274 125.214 118.401 124.73 118.528C124.283 118.637 123.872 118.809 123.397 118.818C123.078 118.827 122.704 118.863 122.512 119.135C122.174 119.578 121.754 119.66 121.261 119.687C120.996 119.714 120.732 119.823 120.485 119.931C119.052 120.502 117.737 121.299 116.432 122.113C114.962 123.028 113.721 124.259 112.488 125.463C110.982 126.921 109.658 128.551 108.335 130.208C106.774 132.172 105.925 134.572 105.066 136.898C104.309 138.972 103.715 141.118 103.085 143.236C102.656 144.64 102.483 146.097 102.081 147.501C101.762 148.669 101.552 149.864 101.324 151.05C100.995 152.725 100.849 154.427 100.812 156.147C100.794 157.134 100.712 158.166 100.374 159.126C99.9177 160.439 99.9542 161.833 99.9725 163.173C99.9999 164.087 100.046 164.966 100.091 165.799C100.137 166.641 100.31 167.428 100.657 168.08C100.712 168.18 100.776 168.27 100.867 168.334C100.995 168.406 101.114 168.47 101.223 168.542C101.342 168.596 101.451 168.66 101.561 168.723C101.78 168.832 101.99 168.94 102.218 169.04C102.675 169.248 103.195 169.447 103.798 169.583C104.3 169.701 104.838 169.529 105.386 169.511C106.171 169.511 106.965 169.438 107.75 169.366C108.535 169.275 109.33 169.185 110.124 169.058C111.365 168.877 112.552 168.433 113.748 168.017C114.77 167.673 115.619 167.03 116.468 166.396C117.573 165.572 118.732 164.821 119.782 163.906C120.503 163.282 121.124 162.53 121.681 161.761C122.439 160.719 123.16 159.651 123.781 158.519C123.982 158.139 124.173 157.759 124.246 157.324C124.31 157.007 124.438 156.727 124.584 156.446C124.739 156.165 124.876 155.885 124.968 155.577C125.25 154.527 125.406 153.485 125.67 152.363C125.981 151.131 126.09 149.828 126.529 148.551C126.784 147.781 127.113 147.012 127.569 146.269C128.026 145.527 128.646 144.821 129.45 144.332L129.952 144.051C130.125 143.979 130.308 143.915 130.481 143.843C130.837 143.698 131.212 143.635 131.577 143.58C132.307 143.481 133.001 143.49 133.667 143.499C134.69 143.508 135.657 143.635 136.543 143.662C136.981 143.68 137.401 143.662 137.766 143.607C138.131 143.544 138.433 143.444 138.67 143.282C138.898 143.128 139.035 142.856 139.145 142.63C139.346 142.249 139.665 141.706 139.711 140.982L139.775 140.448C139.921 139.886 139.957 139.289 140.021 138.691C140.076 138.347 140.149 138.003 140.222 137.65C140.541 136.962 140.551 136.183 140.861 135.468C141.016 135.359 141.089 135.196 141.153 135.024C141.454 134.255 141.838 133.494 142.331 132.779C142.495 132.562 142.65 132.335 142.833 132.127C143.362 131.52 144.029 130.995 144.741 130.588C145.453 130.162 146.247 129.891 146.986 129.728C148.465 129.402 149.853 129.456 151.095 129.212C151.378 129.157 151.633 129.094 151.889 129.012C152.144 128.94 152.391 128.84 152.637 128.732C153.121 128.524 153.568 128.243 153.924 127.926C154.29 127.609 154.563 127.238 154.691 126.867C154.773 126.677 154.792 126.486 154.819 126.296C154.846 125.934 154.901 125.59 154.956 125.273C155.056 124.721 155.157 124.232 155.221 123.752C155.285 123.281 155.294 122.847 155.248 122.457L155.339 122.358C155.339 122.285 155.321 122.204 155.312 122.141C155.476 122.005 155.412 121.905 155.23 121.869C155.203 121.769 155.157 121.679 155.12 121.588C155.212 121.308 154.993 121.126 154.81 120.973C154.737 120.891 154.664 120.81 154.582 120.728C154.582 120.601 154.536 120.511 154.454 120.447C154.372 120.402 154.262 120.384 154.144 120.402C153.751 119.968 153.149 119.605 152.491 119.524C151.761 119.433 151.04 119.117 150.255 119.261C150.145 119.279 150.026 119.261 149.926 119.207C149.68 119.071 149.652 118.736 149.926 118.6C150.309 118.41 150.684 118.184 151.085 118.075C151.487 117.949 151.925 117.93 152.409 118.112C152.948 118.311 153.486 118.519 154.034 118.736C154.582 118.954 155.148 119.207 155.695 119.542C155.832 119.633 155.96 119.75 156.07 119.868C156.526 120.375 156.901 121 157.074 121.67C157.266 122.331 157.293 123.01 157.257 123.634C157.22 124.268 157.129 124.866 157.037 125.418C156.992 125.699 156.946 125.961 156.919 126.206C156.91 126.269 156.91 126.323 156.901 126.378V126.468L156.873 126.613C156.855 126.803 156.818 126.984 156.764 127.175C156.618 127.682 156.435 128.189 156.143 128.614C156.015 128.795 155.878 128.976 155.732 129.13C155.394 129.492 154.938 129.701 154.509 129.873C154.08 130.054 153.669 130.18 153.304 130.434L153.276 130.461C153.112 130.552 152.948 130.624 152.783 130.697C152.546 130.633 152.354 130.66 152.208 130.887L151.807 130.995L151.414 131.086L151.012 131.167L150.538 131.276C150.538 131.276 150.474 131.276 150.437 131.294C149.059 131.348 147.772 131.611 146.722 132.091C146.685 132.1 146.658 132.127 146.64 132.154C146.557 132.209 146.475 132.263 146.393 132.317C146.366 132.299 146.347 132.308 146.338 132.326C146.183 132.39 146.037 132.489 145.891 132.571C145.864 132.571 145.836 132.589 145.818 132.616C145.635 132.716 145.48 132.851 145.307 132.96L145.069 133.195C145.015 133.268 144.942 133.322 144.896 133.395C144.869 133.404 144.85 133.431 144.841 133.458C144.695 133.612 144.549 133.766 144.43 133.938C144.394 133.938 144.366 133.956 144.339 133.983C143.91 134.572 143.572 135.242 143.298 135.957C142.997 136.726 142.796 137.559 142.632 138.401C142.586 138.61 142.55 138.827 142.513 139.035C142.477 139.243 142.44 139.461 142.404 139.678C142.331 140.113 142.267 140.556 142.194 140.991C142.039 141.824 141.893 142.793 141.327 143.752C141.19 143.988 141.016 144.214 140.824 144.431C140.633 144.631 140.423 144.821 140.185 144.984C139.72 145.31 139.181 145.527 138.661 145.636C137.748 145.817 136.926 145.78 136.15 145.744C135.42 145.69 134.69 145.636 133.959 145.581C133.019 145.518 132.152 145.445 131.431 145.617C131.34 145.636 131.248 145.663 131.166 145.699L130.901 145.789C130.728 145.862 130.573 145.961 130.408 146.052C130.107 146.278 129.833 146.532 129.623 146.876C129.185 147.573 128.802 148.424 128.738 149.384C128.71 149.873 128.656 150.38 128.217 150.787C128.09 150.905 128.08 151.122 128.044 151.294C127.889 152.082 127.752 152.897 127.606 153.721C127.542 154.128 127.441 154.581 127.359 155.006C127.25 155.432 127.168 155.866 127.049 156.292C127.003 156.473 126.948 156.654 126.894 156.835C126.83 157.016 126.766 157.188 126.693 157.36C126.556 157.714 126.373 158.049 126.173 158.365C126.008 158.646 125.871 158.945 125.725 159.235C124.575 161.625 122.977 163.798 121.024 165.581C120.586 165.989 120.147 166.387 119.682 166.767C119.262 166.912 118.942 167.157 118.742 167.564C118.358 167.881 117.966 168.198 117.555 168.497C117.363 168.587 117.171 168.687 117.098 168.913L116.459 169.312L115.802 169.683H115.766Z" fill="black"/>
<path d="M146.539 180.241C146.43 180.35 146.284 180.44 146.229 180.567C146.065 180.984 145.782 181.328 145.517 181.681C145.243 182.025 144.914 182.342 144.65 182.686C144.495 182.876 144.321 183.048 144.148 183.22C143.974 183.392 143.81 183.564 143.609 183.718C143.226 184.026 142.86 184.343 142.45 184.614C142.258 184.75 142.075 184.895 141.902 185.058C141.71 185.221 141.528 185.384 141.345 185.556C141.254 185.637 141.162 185.728 141.062 185.818C140.962 185.9 140.861 185.972 140.761 186.054C140.56 186.208 140.35 186.362 140.14 186.497C139.912 186.615 139.674 186.724 139.437 186.823C139.09 186.968 138.597 186.669 138.305 186.896C138.177 186.995 138.031 187.05 137.885 187.104C137.484 187.204 137.091 187.33 136.68 187.457C136.269 187.566 135.859 187.665 135.439 187.738C134.608 187.883 133.768 187.937 132.974 187.81C131.531 187.584 130.18 187.339 128.902 187.14C127.798 186.968 126.693 186.968 125.634 187.095C125.041 187.167 124.493 187.385 124.037 187.683C123.571 187.982 123.206 188.344 122.877 188.734C122.512 189.159 122.256 189.811 121.992 190.49C121.855 190.834 121.727 191.196 121.554 191.559C121.389 191.921 121.179 192.31 120.896 192.681L120.723 192.899C120.668 192.971 120.586 193.043 120.522 193.107C120.394 193.252 120.23 193.378 120.066 193.514C119.901 193.641 119.7 193.75 119.518 193.849L119.207 193.967L119.052 194.021L118.897 194.057C118.486 194.157 118.021 194.166 117.628 194.085C117.226 194.012 116.88 193.885 116.56 193.741C115.921 193.442 115.41 193.234 114.835 193.025C114.269 192.817 113.721 192.582 113.228 192.247C112.324 191.631 111.42 191.006 110.571 190.309C109.348 189.295 108.061 188.372 106.801 187.412C105.934 186.751 105.094 186.054 104.282 185.338C103.579 184.723 102.757 184.261 102.1 183.6C101.26 182.758 100.256 182.124 99.3976 181.3C98.9594 180.866 98.4756 180.495 97.9917 180.114C97.7453 179.924 97.4988 179.743 97.2614 179.553L97.0606 179.399L96.8324 179.209C96.6772 179.082 96.522 178.955 96.3668 178.829C96.0747 178.575 95.7552 178.331 95.4722 178.068L96.5037 177.054L97.0058 176.547L97.3801 176.158C97.8822 175.633 98.366 175.089 98.8499 174.546C98.9503 174.428 99.0964 174.347 99.2059 174.238C99.5437 173.903 99.9453 173.632 99.9727 173.025C100 172.491 100.484 172.355 101.132 172.464C101.315 172.491 101.497 172.6 101.598 172.817C101.725 173.098 101.78 173.342 101.625 173.514C101.032 174.175 100.584 174.954 100.073 175.696C99.9362 175.895 99.6989 175.995 99.5345 176.176C99.1237 176.638 98.6947 177.09 98.2656 177.543L98.1013 177.715C98.1013 177.715 98.083 177.733 98.0739 177.742H98.0648L98.0465 177.778L97.9735 177.869C97.9278 177.923 97.9005 177.978 97.8731 178.023C97.9005 178.041 97.9461 178.059 97.9826 178.077C98.0557 178.113 98.0922 178.141 98.1287 178.186L98.1561 178.222H98.1652L98.2017 178.267L98.2839 178.34L98.6216 178.639C99.1055 179.064 99.5254 179.562 100.155 179.843C100.758 180.114 101.242 180.567 101.671 181.074C102.136 181.59 102.73 181.943 103.296 182.333C103.551 182.514 103.816 182.677 103.989 182.957C104.108 183.147 104.272 183.338 104.528 183.31C104.966 183.265 105.167 183.491 105.341 183.799C105.441 183.962 105.587 184.089 105.733 184.198C106.582 184.831 107.458 185.42 108.289 186.072C109.211 186.814 110.298 187.339 111.265 188.018C112.443 188.833 113.639 189.612 114.762 190.517C116.012 191.495 118.021 192.482 118.523 191.975C118.66 191.903 118.778 191.803 118.915 191.613C119.052 191.423 119.189 191.187 119.317 190.898C119.582 190.318 119.828 189.621 120.184 188.888C120.422 188.408 120.641 187.883 121.024 187.358C121.389 186.851 121.846 186.398 122.384 186.099C123.261 185.601 124.155 185.257 125.059 185.085C126.328 184.868 127.56 184.741 128.829 184.696C129.541 184.668 130.272 184.75 130.892 185.094C131.741 185.565 132.663 185.556 133.549 185.529C134.151 185.511 134.736 185.465 135.293 185.501C135.859 185.529 136.415 185.511 136.963 185.411C137.045 185.402 137.137 185.384 137.201 185.329C137.374 185.194 137.538 185.031 137.712 184.922C137.885 184.804 138.068 184.741 138.241 184.641C138.597 184.451 138.99 184.37 139.364 184.189C139.519 184.125 139.647 184.008 139.766 183.881C139.875 183.745 139.985 183.6 140.122 183.491C140.898 182.885 141.628 182.206 142.413 181.509C142.495 181.445 142.568 181.373 142.641 181.309C142.714 181.237 142.778 181.156 142.851 181.083C142.988 180.929 143.125 180.775 143.262 180.621C143.527 180.295 143.773 179.96 144.056 179.653C144.285 179.381 144.458 179.073 144.613 178.756C144.75 178.43 144.878 178.104 145.015 177.778C145.353 176.918 145.873 176.14 146.293 175.307C146.585 174.736 146.768 174.112 146.959 173.487C147.197 172.636 147.516 171.821 147.817 170.988C147.918 170.716 148.009 170.436 147.991 170.119C147.973 169.666 148.329 169.322 148.429 168.897C148.584 168.163 148.73 167.43 148.995 166.733C149.296 165.954 149.369 165.112 149.607 164.315C149.908 163.355 150.109 162.369 150.346 161.4C150.447 161.001 150.556 160.603 150.657 160.205C150.748 159.806 150.83 159.399 150.867 158.991C150.93 158.358 151.022 157.742 151.104 157.117C151.186 156.493 151.277 155.877 151.36 155.243C151.396 154.935 151.36 154.618 151.387 154.311C151.433 153.795 151.679 153.324 151.706 152.817L151.761 152.445C151.898 152.092 151.907 151.712 151.925 151.341C151.962 151.124 151.989 150.906 152.017 150.689C152.236 150.254 152.108 149.775 152.208 149.322C152.336 149.24 152.345 149.141 152.364 149.032C152.428 148.543 152.482 148.054 152.528 147.565L152.574 147.104C152.72 146.216 152.875 145.329 153.003 144.451C153.14 143.582 153.386 142.722 153.45 141.843C153.514 141.047 153.56 140.25 153.596 139.453C153.614 138.656 153.623 137.86 153.642 137.063C153.66 136.366 153.614 135.678 153.605 134.989L153.715 134.908V134.709C153.916 134.618 153.879 134.528 153.715 134.446V134.157C153.925 133.948 153.843 133.731 153.797 133.514V133.224C153.998 133.07 153.961 132.925 153.797 132.78C153.925 132.319 154.043 131.848 153.879 131.404C153.715 130.906 153.843 130.372 153.541 129.901C153.505 129.838 153.505 129.747 153.541 129.675C153.623 129.485 153.952 129.412 154.135 129.557C154.664 129.965 155.267 130.345 155.212 131.006C155.157 131.739 155.203 132.491 155.458 133.224C155.486 133.314 155.495 133.414 155.504 133.505C155.522 133.885 155.55 134.265 155.568 134.654C155.595 135.035 155.632 135.424 155.659 135.804C155.687 136.185 155.732 136.574 155.732 136.954C155.732 137.334 155.732 137.724 155.714 138.104C155.696 138.376 155.732 138.647 155.741 138.91V139.263C155.723 139.788 155.23 140.286 155.367 140.811L155.385 140.838L155.404 141.164C155.248 141.273 155.221 141.391 155.394 141.526L155.376 142.024L155.358 142.287C155.358 142.396 155.358 142.495 155.358 142.604C155.34 142.622 155.34 142.64 155.358 142.667C155.121 143.536 155.157 144.442 155.13 145.329C155.13 145.356 155.13 145.383 155.148 145.411L155.175 145.646C155.175 145.646 155.139 145.673 155.157 145.691L155.102 146.099C155.102 146.099 155.084 146.144 155.093 146.162L155.011 146.651L154.993 146.914V147.131C154.993 147.131 154.975 147.176 154.993 147.203L154.929 147.701C154.929 147.701 154.883 147.737 154.874 147.765C154.819 148.317 154.755 148.878 154.682 149.431C154.609 150.037 154.546 150.635 154.482 151.241C154.409 151.848 154.308 152.445 154.171 153.034C154.043 153.568 153.943 154.111 153.833 154.655C153.715 155.189 153.596 155.732 153.459 156.257C153.331 156.719 153.249 157.199 153.176 157.67C153.094 158.14 153.03 158.62 152.966 159.1C152.866 159.743 152.692 160.377 152.51 161.011C152.327 161.635 152.154 162.269 152.081 162.921C152.008 163.609 151.816 164.279 151.852 164.994C151.871 165.356 151.852 165.737 151.433 165.981C151.314 166.054 151.314 166.207 151.277 166.325C151.003 167.394 150.711 168.462 150.501 169.557C150.401 170.019 150.246 170.472 150.008 170.897C149.908 171.079 149.862 171.287 149.798 171.477C149.315 173.088 148.831 174.7 148.128 176.266C147.991 176.629 147.827 176.982 147.671 177.335C147.425 177.525 147.306 177.76 147.379 178.077C147.261 178.385 147.16 178.693 147.032 179.001C146.941 179.109 146.859 179.218 146.95 179.399C146.804 179.689 146.667 179.988 146.503 180.268" fill="black"/>
<path d="M46.4311 200.929C46.5589 200.892 46.705 200.883 46.8054 200.802C47.3714 200.295 48.1108 200.078 48.759 199.715C49.471 199.326 50.247 199.055 50.9864 198.738C51.169 198.656 51.3425 198.575 51.5068 198.466C52.1823 198.004 52.7666 197.398 53.506 197.045C53.7708 196.918 54.2363 197.135 54.4189 196.891C54.5011 196.782 54.6015 196.71 54.7019 196.646C55.8248 195.931 56.7194 194.817 57.9062 194.202C58.9925 193.64 60.0424 193.016 61.1561 192.49C61.649 192.255 62.1329 192.029 62.6258 191.793C63.1188 191.567 63.6209 191.35 64.1321 191.159C65.2641 190.734 66.25 190.028 67.3638 189.593C68.5962 189.104 69.7464 188.443 71.0062 188.009C71.49 187.828 71.983 187.656 72.4577 187.456L73.1698 187.158L73.8909 186.868C74.8586 186.488 75.7167 185.754 76.73 185.474C77.6795 185.238 78.6197 184.994 79.5874 184.867C80.9933 184.659 82.3535 184.414 83.6863 184.115C84.5992 183.916 85.5121 183.717 86.3976 183.464C87.1644 183.246 87.8126 182.794 88.5337 182.486C88.7711 182.395 88.9811 182.259 89.191 182.133C89.401 181.988 89.6018 181.843 89.8027 181.68C90.2043 181.363 90.5878 181.028 91.0168 180.729C91.9023 180.114 92.6509 179.308 93.6186 178.692C94.3032 178.267 95.1066 177.904 96.0012 177.823C96.2203 177.814 96.4485 177.787 96.6676 177.823L97.0054 177.859C97.1149 177.868 97.2245 177.914 97.334 177.941C97.7722 178.031 98.1922 178.239 98.5573 178.475C98.6851 178.556 98.7855 178.692 98.8951 178.792C99.242 179.1 99.4611 179.48 100.027 179.516C100.538 179.552 100.584 179.996 100.401 180.603C100.356 180.766 100.237 180.947 100.018 181.037C99.735 181.164 99.4976 181.209 99.3424 181.055C98.7947 180.485 98.1465 180.059 97.5897 179.851C97.4436 179.788 97.3614 179.634 97.2245 179.579C96.8228 179.444 96.412 179.362 96.0012 179.426C95.5813 179.489 95.1522 179.679 94.7323 179.942C94.358 180.177 93.9472 180.412 93.5455 180.684C93.1165 181.001 92.6144 181.245 92.2857 181.761C91.9754 182.25 91.4824 182.594 90.9347 182.884C90.6517 183.038 90.3869 183.228 90.1313 183.427C89.8574 183.627 89.6018 183.853 89.3188 184.034C89.0632 184.206 88.8076 184.369 88.4881 184.414C88.269 184.432 88.0317 184.487 87.9495 184.722C87.7943 185.12 87.5022 185.184 87.1644 185.166C86.9727 185.166 86.8084 185.22 86.6349 185.274C85.6947 185.609 84.7635 185.917 83.8141 186.089C82.7551 186.288 81.7692 186.678 80.7742 186.913C79.56 187.194 78.3641 187.529 77.1135 187.737C76.3831 187.864 75.6893 188.117 75.0321 188.452C74.7034 188.615 74.3748 188.787 74.0461 188.959C73.7175 189.131 73.3889 189.312 73.0602 189.466C72.4668 189.756 71.8734 190.046 71.2892 190.326C70.6958 190.598 70.1024 190.879 69.4908 191.114C68.6875 191.422 67.9663 191.92 67.1355 192.174C66.4509 192.4 65.821 192.717 65.1546 192.988C64.2325 193.378 63.3744 193.894 62.5619 194.5C62.0964 194.844 61.576 195.161 60.9552 195.225C60.0971 195.315 59.4855 195.858 58.8556 196.356C58.4265 196.7 57.9883 197.045 57.4954 197.28C57.0024 197.524 56.5095 197.769 56.0165 198.022C55.9435 198.059 55.8613 198.095 55.8248 198.176C55.3592 198.982 54.5924 199.308 53.8164 199.616C53.4969 199.743 53.3052 200.087 53.0131 200.268C52.1641 200.775 51.3151 201.264 50.3839 201.608C49.6628 201.879 49.0237 202.296 48.3117 202.586C47.7092 202.83 47.2618 203.292 46.7871 203.699C46.1572 204.233 45.4178 204.605 44.724 205.048C44.2493 205.356 43.8476 205.754 43.4459 206.153C42.9165 206.696 42.3322 207.185 41.8027 207.728C41.6293 207.909 41.4558 208.09 41.3646 208.344C41.2367 208.724 40.7986 208.824 40.5977 209.15C40.2508 209.693 39.8857 210.218 39.4657 210.707C39.0093 211.268 38.6989 211.92 38.2972 212.518C38.0599 212.88 37.8317 213.251 37.6126 213.622L37.2839 214.184L36.9735 214.763C36.8001 215.071 36.6266 215.388 36.4532 215.696C36.2797 216.004 36.1154 216.329 36.015 216.674C35.8507 217.199 35.659 217.715 35.4581 218.222C35.2573 218.729 35.093 219.254 34.9104 219.77C34.8282 220.023 34.81 220.304 34.7369 220.567C34.6091 220.992 34.3079 221.345 34.2075 221.78L34.0979 222.088C33.9153 222.368 33.8514 222.685 33.7784 223.002C33.7145 223.183 33.6597 223.364 33.605 223.545C33.3402 223.88 33.395 224.324 33.2307 224.686C33.1029 224.732 33.0664 224.822 33.039 224.913C32.9112 225.32 32.8016 225.737 32.6921 226.153L32.5825 226.542C32.4547 226.914 32.3269 227.285 32.1991 227.656C32.0804 228.027 31.9618 228.398 31.8339 228.77C31.5875 229.503 31.2497 230.209 31.0945 230.961C30.7659 232.319 30.565 233.704 30.3642 235.08C30.2912 235.678 30.2273 236.284 30.1542 236.891L30.0355 236.945L29.999 237.117C29.7982 237.172 29.8165 237.253 29.9716 237.344L29.9351 237.597C29.7069 237.751 29.7617 237.95 29.7799 238.149L29.7343 238.403C29.5243 238.512 29.5426 238.638 29.6886 238.792C29.4878 239.173 29.3326 239.571 29.4239 239.978C29.5152 240.44 29.3052 240.884 29.5243 241.336C29.5517 241.4 29.5426 241.472 29.4969 241.536C29.3874 241.69 29.0496 241.699 28.8853 241.545C28.4289 241.11 27.8811 240.694 28.0454 240.132C28.1367 239.815 28.1732 239.499 28.1915 239.173C28.2098 238.847 28.1824 238.512 28.1093 238.177C28.0911 238.095 28.1002 238.005 28.1093 237.923C28.1459 237.588 28.1641 237.253 28.1824 236.918C28.2006 236.583 28.2189 236.248 28.2371 235.904C28.2737 235.225 28.301 234.546 28.4471 233.885C28.4928 233.65 28.4928 233.414 28.511 233.179L28.5475 232.871C28.6297 232.409 29.1592 232.047 29.0953 231.567L29.077 231.549L29.0953 231.259C29.2596 231.187 29.3052 231.087 29.15 230.943L29.2231 230.508L29.2687 230.282L29.2961 230.001C29.2961 230.001 29.3235 229.965 29.3052 229.947C29.6339 229.213 29.716 228.435 29.853 227.647C29.8621 227.62 29.853 227.602 29.8438 227.574V227.366C29.8438 227.366 29.8804 227.348 29.8712 227.33C29.9077 227.212 29.9351 227.095 29.9808 226.986C29.999 226.968 30.0082 226.95 29.999 226.932L30.136 226.515L30.1907 226.289L30.2181 226.099C30.2181 226.099 30.2455 226.062 30.2364 226.044L30.3642 225.619C30.3642 225.619 30.4098 225.592 30.419 225.574C30.5468 225.094 30.6654 224.614 30.8206 224.143C30.9758 223.627 31.1219 223.111 31.268 222.595C31.414 222.079 31.6149 221.572 31.8248 221.083C32.0257 220.639 32.1991 220.186 32.3999 219.734C32.6008 219.29 32.8016 218.846 33.0298 218.412C33.4041 217.651 33.7054 216.846 34.0158 216.049C34.1253 215.777 34.244 215.515 34.3809 215.252C34.527 214.999 34.6822 214.745 34.8282 214.501C35.1386 214.003 35.4125 213.496 35.6407 212.952C35.8872 212.382 36.2067 211.857 36.3436 211.214C36.4075 210.888 36.5445 210.571 37.0009 210.499C37.1287 210.481 37.1744 210.345 37.2383 210.254L37.6491 209.63L37.8499 209.313L38.069 209.005C38.3611 208.597 38.6441 208.19 38.918 207.755C38.9728 207.665 39.0367 207.574 39.1006 207.484C39.1736 207.402 39.2466 207.321 39.3197 207.248C39.4749 207.094 39.6392 206.95 39.8309 206.823C39.9861 206.714 40.0956 206.56 40.2326 206.424C41.2276 205.266 42.3596 204.224 43.5738 203.328C43.8385 203.12 44.1124 202.902 44.3862 202.703C44.6692 202.685 44.8518 202.549 44.9248 202.251L45.5639 201.68C45.6825 201.635 45.7921 201.59 45.783 201.399C46.0112 201.237 46.2394 201.064 46.4676 200.902" fill="black"/>
<path d="M248.409 103.247C248.528 103.356 248.628 103.501 248.774 103.555C249.203 103.745 249.596 103.998 249.961 104.279C250.326 104.569 250.7 104.868 251.047 105.148C251.248 105.302 251.44 105.465 251.631 105.628C251.823 105.791 251.997 105.972 252.179 106.153C252.535 106.506 252.873 106.878 253.22 107.24C253.384 107.421 253.549 107.593 253.74 107.747C254.525 108.39 255.402 108.969 256.022 109.784C256.251 110.074 256.141 110.626 256.47 110.816C256.598 110.907 256.707 111.015 256.808 111.133C257.337 111.767 257.93 112.364 258.487 112.998C259.044 113.632 259.574 114.302 259.93 115.062C260.103 115.406 260.258 115.76 260.423 116.104C260.569 116.448 260.742 116.81 260.879 117.145C261.162 117.824 261.445 118.494 261.701 119.182C262.148 120.404 262.641 121.608 263.006 122.849C263.426 124.225 264.138 125.484 264.595 126.833C265.097 128.326 265.79 129.748 266.274 131.251C266.649 132.428 267.142 133.551 267.58 134.7C268.027 135.859 268.858 136.873 269.232 138.059C269.579 139.155 269.926 140.251 270.191 141.364C270.583 142.985 271.094 144.56 271.606 146.145C271.952 147.231 272.272 148.336 272.564 149.44C272.82 150.391 273.276 151.269 273.495 152.229C273.778 153.451 274.317 154.574 274.655 155.778C275.002 157.027 275.577 158.205 276.033 159.418C276.7 161.165 277.348 162.913 277.968 164.678C278.023 164.832 278.023 165.004 278.069 165.167C278.206 165.656 278.242 166.172 278.754 166.543C279.21 166.878 279.073 167.394 278.635 167.901C278.516 168.037 278.324 168.137 278.087 168.091C277.777 168.037 277.539 167.947 277.475 167.711C277.22 166.824 276.773 166 276.371 165.158C276.261 164.941 276.28 164.669 276.197 164.434C275.704 163.085 275.23 161.726 274.655 160.396C274.399 159.807 274.226 159.191 274.025 158.585C273.806 157.933 273.678 157.245 273.267 156.647C272.865 156.068 272.683 155.38 272.555 154.683C272.427 153.958 272.08 153.297 271.806 152.618C271.679 152.31 271.542 152.012 271.533 151.658C271.533 151.414 271.496 151.151 271.259 151.025C270.857 150.807 270.811 150.481 270.83 150.119C270.839 149.911 270.775 149.721 270.711 149.531C270.337 148.462 269.926 147.421 269.606 146.335C269.25 145.122 268.666 143.99 268.274 142.795C267.79 141.346 267.288 139.916 266.941 138.413C266.539 136.656 265.58 135.108 264.841 133.469C264.193 132.011 263.536 130.554 263.024 129.051C262.687 128.064 262.185 127.131 261.911 126.126C261.682 125.293 261.363 124.497 261.089 123.682C260.706 122.532 260.176 121.445 259.574 120.386C259.227 119.78 258.907 119.119 258.862 118.385C258.825 117.878 258.67 117.435 258.469 117.018C258.25 116.602 257.985 116.221 257.702 115.841C257.52 115.578 257.319 115.325 257.145 115.062C256.954 114.809 256.789 114.537 256.634 114.257C256.324 113.695 255.995 113.152 255.639 112.627C255.584 112.545 255.53 112.464 255.438 112.419C254.498 111.957 253.996 111.187 253.421 110.418C253.183 110.101 252.763 109.965 252.471 109.702C251.641 108.933 250.782 108.209 249.97 107.385C249.815 107.231 249.65 107.077 249.477 106.932C249.304 106.787 249.13 106.66 248.948 106.515C248.592 106.235 248.226 105.99 247.879 105.692C247.286 105.212 246.556 104.976 245.862 104.714C244.94 104.379 244.109 103.872 243.196 103.501C242.886 103.365 242.557 103.265 242.229 103.184C242.064 103.138 241.9 103.102 241.736 103.066L241.234 102.966C240.33 102.785 239.435 102.622 238.531 102.45C238.23 102.405 237.92 102.369 237.609 102.441C237.381 102.486 237.162 102.459 236.934 102.405C236.824 102.378 236.706 102.351 236.596 102.324C236.541 102.314 236.487 102.305 236.432 102.296H236.35C236.35 102.296 236.322 102.296 236.304 102.296L236.003 102.324H235.857L235.784 102.342C235.765 102.342 235.765 102.369 235.756 102.387C235.72 102.45 235.692 102.505 235.656 102.568L235.628 102.604L235.565 102.713C235.519 102.794 235.464 102.876 235.418 102.957C234.962 103.682 234.725 104.524 234.36 105.32C234.14 105.8 233.93 106.298 233.721 106.787C233.52 107.267 233.337 107.765 233.145 108.254C232.844 109.06 232.488 109.865 232.287 110.726C231.968 112.047 231.52 113.351 230.973 114.664C230.836 114.99 230.763 115.343 230.617 115.678C230.37 116.23 229.905 116.638 229.612 117.154C229.53 117.272 229.448 117.398 229.357 117.507C229.028 117.815 228.791 118.177 228.517 118.539C228.344 118.738 228.161 118.919 227.969 119.11C227.467 119.381 227.166 119.879 226.7 120.178C226.545 120.151 226.436 120.223 226.326 120.305C225.842 120.649 225.349 120.957 224.82 121.228C224.655 121.31 224.491 121.391 224.318 121.473C223.314 121.88 222.255 122.143 221.196 122.26C220.155 122.369 219.123 122.278 218.128 122.224C216.33 122.152 214.513 121.934 212.76 121.455C211.994 121.255 211.236 120.993 210.487 120.721L210.451 120.585L210.241 120.486C210.223 120.277 210.122 120.268 209.967 120.368C209.867 120.323 209.766 120.278 209.666 120.223C209.547 119.933 209.291 119.888 209.054 119.816C208.954 119.761 208.862 119.698 208.771 119.644C208.716 119.39 208.561 119.336 208.324 119.399C207.95 119.01 207.557 118.657 207.073 118.467C206.79 118.367 206.562 118.186 206.325 118.023C206.078 117.86 205.841 117.706 205.539 117.634C205.457 117.616 205.384 117.543 205.348 117.471C205.247 117.272 205.421 116.991 205.676 116.964C206.032 116.928 206.379 116.864 206.699 116.864C207.018 116.864 207.31 116.928 207.557 117.163C208.114 117.679 208.808 118.068 209.584 118.222C209.684 118.24 209.766 118.286 209.857 118.331C210.56 118.684 211.309 118.928 212.058 119.137C212.815 119.336 213.564 119.499 214.312 119.689C214.577 119.761 214.851 119.761 215.116 119.798C215.234 119.816 215.353 119.825 215.463 119.843C215.974 119.933 216.449 120.44 216.996 120.323L217.024 120.305L217.361 120.287C217.471 120.44 217.599 120.477 217.727 120.305H218.229H218.493L218.804 120.268C218.804 120.268 218.849 120.287 218.868 120.268C219.762 120.413 220.648 120.205 221.469 119.961C221.497 119.961 221.515 119.942 221.533 119.915L221.734 119.816C221.734 119.816 221.771 119.834 221.78 119.816C221.908 119.78 222.035 119.752 222.163 119.716C222.191 119.716 222.209 119.716 222.227 119.698C222.382 119.662 222.528 119.617 222.684 119.562C222.766 119.535 222.839 119.499 222.912 119.463L223.094 119.363C223.094 119.363 223.14 119.363 223.158 119.336C223.304 119.273 223.45 119.209 223.597 119.146C223.624 119.155 223.651 119.164 223.679 119.155C224.153 118.91 224.61 118.621 225.039 118.313C225.988 117.634 226.728 116.746 227.476 115.859C228.161 115.044 228.663 114.094 229.193 113.116C229.649 112.256 229.923 111.296 230.206 110.336C230.589 109.023 231.274 107.801 231.648 106.425C231.694 106.244 231.758 106.063 231.813 105.882C231.867 105.71 231.922 105.538 231.977 105.357C232.086 105.003 232.178 104.65 232.223 104.27C232.269 103.881 232.36 103.482 232.826 103.274C232.963 103.22 232.99 103.057 233.054 102.93C233.182 102.659 233.31 102.378 233.447 102.106C233.593 101.807 233.675 101.635 233.976 101.101C234.104 100.875 234.241 100.649 234.369 100.413L234.469 100.241L234.515 100.151C234.515 100.151 234.533 100.114 234.542 100.114H234.944C235.418 100.114 235.893 100.096 236.386 100.078H236.514H236.614C236.678 100.078 236.742 100.078 236.806 100.078C236.934 100.078 237.071 100.096 237.199 100.114C237.463 100.142 237.719 100.187 237.975 100.277C238.194 100.35 238.422 100.35 238.641 100.386C240.485 100.558 242.32 100.947 244.064 101.59C244.465 101.717 244.858 101.871 245.25 102.016C245.469 102.26 245.725 102.369 246.063 102.305C246.401 102.414 246.738 102.523 247.058 102.649C247.177 102.74 247.304 102.831 247.487 102.74C247.806 102.876 248.117 103.039 248.427 103.202" fill="black"/>
<path d="M161.648 112.298C161.712 112.271 161.812 112.271 161.83 112.217C161.922 111.882 162.287 111.737 162.497 111.492C162.615 111.356 162.752 111.239 162.907 111.13C163.063 111.021 163.227 110.931 163.382 110.822C163.455 110.768 163.519 110.714 163.565 110.641C163.738 110.324 163.784 109.899 164.067 109.654C164.167 109.564 164.578 109.754 164.569 109.573C164.569 109.5 164.587 109.446 164.624 109.41C164.797 109.174 164.888 108.867 164.989 108.55C165.089 108.242 165.199 107.934 165.436 107.744C165.865 107.4 166.23 106.983 166.678 106.666C167.089 106.404 167.481 106.114 167.928 105.906C168.175 105.788 168.385 105.625 168.586 105.453C168.786 105.281 168.987 105.109 169.234 104.991C169.754 104.711 170.201 104.331 170.749 104.104C170.959 104.023 171.16 103.905 171.352 103.787C171.553 103.679 171.753 103.57 171.954 103.461C172.155 103.353 172.319 103.163 172.484 102.963C172.648 102.773 172.821 102.583 173.05 102.529C173.47 102.42 173.89 102.312 174.337 102.275C174.656 102.239 174.967 102.203 175.277 102.158C175.588 102.103 175.88 102.04 176.181 101.977C176.592 101.877 177.021 101.868 177.45 101.85C177.815 101.841 178.135 101.632 178.5 101.66C178.974 101.723 179.394 101.515 179.851 101.524C180.088 101.524 180.316 101.469 180.545 101.415C180.773 101.361 181.001 101.288 181.229 101.243L182.224 101.044C182.553 100.981 182.891 100.944 183.228 100.899C183.292 100.899 183.347 100.935 183.411 100.944C183.594 100.962 183.776 101.062 183.941 100.682C184.087 100.338 184.269 100.609 184.415 101.162C184.452 101.316 184.479 101.524 184.443 101.741C184.406 102.031 184.36 102.23 184.269 102.23C183.941 102.23 183.63 102.429 183.32 102.574C183.238 102.61 183.146 102.52 183.055 102.529C182.553 102.592 182.06 102.683 181.585 102.837C181.375 102.909 181.147 102.891 180.928 102.918C180.691 102.936 180.444 102.864 180.234 103.09C180.033 103.307 179.796 103.298 179.531 103.226C179.267 103.154 179.038 103.298 178.801 103.371C178.691 103.407 178.591 103.47 178.454 103.389C178.363 103.335 178.262 103.298 178.235 103.489C178.198 103.805 178.08 103.769 177.925 103.67C177.842 103.606 177.769 103.615 177.705 103.633C177.514 103.679 177.331 103.724 177.149 103.769C176.966 103.824 176.783 103.878 176.583 103.905C176.154 103.968 175.788 104.24 175.368 104.349C174.875 104.503 174.383 104.675 173.817 104.684C173.159 104.738 172.758 105.326 172.274 105.689C171.854 106.042 171.434 106.386 170.932 106.594C170.612 106.757 170.393 107.065 170.037 107.164C169.745 107.255 169.489 107.409 169.234 107.554C168.869 107.753 168.586 108.07 168.367 108.441C168.23 108.649 168.084 108.848 167.746 108.83C167.28 108.812 167.152 109.165 167.015 109.482C166.915 109.7 166.824 109.926 166.65 110.062C166.477 110.207 166.294 110.351 166.13 110.505C166.103 110.532 166.075 110.551 166.084 110.605C166.148 110.886 166.103 111.058 166.002 111.193C165.911 111.338 165.765 111.429 165.619 111.528C165.491 111.61 165.564 111.836 165.482 111.954C165.244 112.28 164.971 112.57 164.596 112.796C164.295 112.968 164.131 113.24 163.829 113.421C163.574 113.575 163.528 113.855 163.446 114.118C163.327 114.453 163.026 114.67 162.771 114.933C162.597 115.114 162.497 115.331 162.415 115.566C162.296 115.874 162.132 116.155 161.94 116.427C161.876 116.517 161.821 116.608 161.867 116.753C161.931 116.961 161.639 116.997 161.593 117.151C161.52 117.423 161.447 117.703 161.264 117.93C161.063 118.183 161.045 118.518 160.89 118.79C160.698 119.116 160.552 119.469 160.388 119.804C160.251 120.084 160.068 120.338 160.023 120.655C159.968 121.144 159.804 121.587 159.694 122.058C159.667 122.176 159.712 122.312 159.694 122.429C159.667 122.629 159.438 122.737 159.42 122.936L159.375 123.072C159.256 123.172 159.247 123.326 159.238 123.471L159.155 123.706C158.955 123.806 159.064 124.05 158.964 124.195C158.845 124.195 158.827 124.222 158.818 124.258L158.644 124.792L158.589 124.955C158.434 125.254 158.288 125.562 158.115 125.861C157.941 126.151 157.695 126.413 157.576 126.721C157.357 127.282 157.202 127.871 157.028 128.45C156.955 128.704 156.882 128.957 156.818 129.211H156.709L156.672 129.274C156.481 129.238 156.499 129.274 156.645 129.374L156.599 129.473C156.38 129.473 156.417 129.582 156.426 129.673L156.371 129.772C156.17 129.754 156.179 129.817 156.307 129.935C156.106 130.044 155.942 130.171 155.988 130.379C156.033 130.605 155.805 130.732 155.988 131.003C156.015 131.04 155.988 131.067 155.942 131.076C155.823 131.103 155.513 131.003 155.367 130.886C154.965 130.551 154.481 130.198 154.673 130.017C154.892 129.808 154.947 129.528 154.828 129.193C154.81 129.147 154.828 129.111 154.828 129.084C155.011 128.541 154.938 127.907 155.166 127.382C155.203 127.291 155.194 127.183 155.212 127.074L155.239 126.947C155.312 126.766 155.796 126.739 155.705 126.495H155.686V126.35C155.833 126.35 155.878 126.323 155.723 126.214L155.769 126.033L155.796 125.942V125.816C155.796 125.816 155.823 125.816 155.814 125.797C156.07 125.535 156.07 125.182 156.143 124.847C156.143 124.847 156.143 124.829 156.125 124.811L156.106 124.711C156.106 124.711 156.143 124.711 156.125 124.702L156.189 124.557C156.189 124.557 156.207 124.548 156.198 124.53L156.28 124.367L156.298 124.267V124.186C156.298 124.186 156.326 124.177 156.307 124.159L156.38 123.987C156.38 123.987 156.417 123.987 156.426 123.987C156.49 123.787 156.554 123.588 156.618 123.389C156.764 122.955 156.837 122.493 157.083 122.094C157.302 121.732 157.448 121.352 157.677 120.999C157.877 120.691 157.95 120.329 158.033 119.967C158.16 119.478 158.589 119.134 158.653 118.627C158.69 118.355 158.809 118.12 158.726 117.803C158.681 117.64 158.672 117.477 159.037 117.504C159.137 117.504 159.137 117.441 159.155 117.404C159.32 117.015 159.493 116.644 159.585 116.218C159.63 116.037 159.731 115.883 159.913 115.766C159.986 115.72 160.004 115.639 160.05 115.576C160.315 114.987 160.58 114.389 160.972 113.873L161.2 113.502C161.383 113.502 161.438 113.412 161.319 113.222L161.429 112.859C161.483 112.832 161.529 112.796 161.41 112.669C161.465 112.561 161.538 112.461 161.593 112.352" fill="black"/>
<path d="M163.583 194.336C163.528 194.3 163.483 194.219 163.428 194.237C163.117 194.345 162.807 194.128 162.497 194.092C162.159 194.056 161.821 193.884 161.492 193.775C161.41 193.748 161.328 193.73 161.246 193.748C160.908 193.802 160.534 194.028 160.169 193.938C160.041 193.911 159.941 193.476 159.804 193.594C159.749 193.639 159.694 193.648 159.639 193.657C159.055 193.675 158.407 194.128 157.804 193.983C157.266 193.856 156.718 193.784 156.198 193.585C155.741 193.413 155.276 193.25 154.856 192.987C154.399 192.688 153.833 192.688 153.368 192.399C152.866 192.082 152.281 191.955 151.807 191.584C151.624 191.439 151.423 191.33 151.222 191.213C151.022 191.095 150.821 190.977 150.629 190.869C150.428 190.751 150.182 190.697 149.935 190.642C149.689 190.588 149.433 190.515 149.278 190.334C149.123 190.171 148.977 190.008 148.831 189.845C148.694 189.673 148.566 189.483 148.456 189.293C148.137 188.723 147.753 188.234 147.425 187.718C147.306 187.546 147.206 187.356 147.114 187.165C147.023 186.975 146.923 186.785 146.859 186.577C146.74 186.233 146.421 186.007 146.366 185.626C146.275 185.165 145.964 184.821 145.864 184.377C145.772 183.915 145.453 183.544 145.279 183.109C145.143 182.801 145.024 182.494 144.905 182.177C144.777 181.86 144.686 181.543 144.586 181.217C144.567 181.163 144.604 181.09 144.595 181.036C144.577 180.855 144.668 180.656 144.266 180.547C143.901 180.447 144.157 180.23 144.695 180.013C144.841 179.949 145.051 179.904 145.27 179.913C145.562 179.913 145.763 179.931 145.772 180.013C145.809 180.321 146.037 180.592 146.238 180.864C146.293 180.936 146.211 181.036 146.238 181.117C146.275 181.235 146.311 181.344 146.348 181.461C146.393 181.57 146.43 181.679 146.475 181.796C146.567 182.014 146.649 182.24 146.786 182.439C146.895 182.62 146.923 182.829 146.987 183.028C147.06 183.236 147.041 183.49 147.297 183.625C147.553 183.752 147.598 183.969 147.589 184.223C147.571 184.495 147.799 184.639 147.927 184.839C147.991 184.929 148.064 185.002 148.027 185.146C148 185.246 148 185.346 148.182 185.309C148.502 185.237 148.493 185.355 148.438 185.527C148.402 185.617 148.438 185.681 148.465 185.735C148.675 186.025 148.895 186.305 149.077 186.622C149.269 186.993 149.67 187.175 149.917 187.491C150.081 187.673 150.246 187.854 150.401 188.044C150.565 188.225 150.72 188.424 150.848 188.659C151.012 188.931 151.277 189.076 151.551 189.194C151.843 189.293 152.144 189.357 152.418 189.465C152.674 189.556 152.92 189.646 153.158 189.746C153.395 189.845 153.632 189.963 153.852 190.099C154.144 190.289 154.509 190.307 154.783 190.543C155.011 190.742 155.276 190.832 155.531 190.977C155.887 191.176 156.298 191.231 156.718 191.185C156.964 191.167 157.193 191.185 157.375 191.475C157.622 191.864 157.978 191.756 158.306 191.674C158.535 191.62 158.763 191.566 158.973 191.629C159.192 191.683 159.402 191.738 159.621 191.783C159.658 191.783 159.685 191.801 159.721 191.756C160.077 191.321 160.388 191.439 160.707 191.566C160.844 191.62 160.972 191.421 161.127 191.412C161.547 191.403 161.967 191.412 162.387 191.602C162.707 191.747 163.035 191.738 163.364 191.883C163.638 192.009 163.912 191.883 164.176 191.819C164.532 191.747 164.888 191.901 165.244 191.982C165.491 192.037 165.737 192 165.984 191.973C166.313 191.937 166.65 191.955 166.979 192C167.088 192.018 167.198 192.018 167.308 191.91C167.472 191.756 167.627 192 167.791 191.973C168.074 191.919 168.357 191.874 168.631 191.937C168.942 192.009 169.252 191.883 169.572 191.919C169.946 191.964 170.329 191.946 170.704 191.955C171.014 191.964 171.315 192.027 171.626 191.937C172.1 191.792 172.566 191.765 173.041 191.683C173.159 191.665 173.269 191.566 173.387 191.539C173.579 191.484 173.771 191.656 173.963 191.602H174.099C174.236 191.665 174.382 191.62 174.519 191.575H174.766C174.939 191.711 175.113 191.511 175.286 191.548C175.323 191.656 175.359 191.656 175.405 191.656L175.962 191.62H176.135C176.473 191.647 176.811 191.665 177.149 191.72C177.477 191.774 177.815 191.91 178.144 191.91C178.746 191.91 179.349 191.846 179.951 191.801C180.216 191.783 180.481 191.756 180.736 191.729L180.764 191.828H180.837V191.846L180.179 193.766C180.262 193.612 180.216 193.621 180.097 193.73L180.015 193.666C180.079 193.458 179.969 193.467 179.878 193.449L179.805 193.367C179.878 193.177 179.805 193.168 179.668 193.268C179.613 193.041 179.531 192.86 179.321 192.833C179.075 192.806 179.02 192.544 178.691 192.607C178.646 192.607 178.627 192.58 178.627 192.534C178.627 192.408 178.847 192.154 179.011 192.064C179.476 191.819 179.951 191.457 180.061 191.692C180.189 191.946 180.444 192.073 180.791 192.055C180.837 192.055 180.864 192.073 180.901 192.091C181.028 192.172 181.156 192.245 181.302 192.317L183.119 193.186L180.837 193.675C180.417 193.766 179.997 193.92 179.586 193.902C179.486 193.902 179.385 193.947 179.285 193.974L179.157 193.992C178.965 193.992 178.764 193.549 178.573 193.721V193.739L178.445 193.784C178.399 193.639 178.354 193.621 178.308 193.802L178.125 193.829H178.025L177.906 193.874C177.906 193.856 177.888 193.856 177.879 193.874C177.55 193.73 177.222 193.856 176.884 193.92C176.875 193.92 176.866 193.92 176.856 193.947L176.774 194.001C176.774 194.001 176.765 193.974 176.756 193.983H176.601C176.601 193.983 176.583 193.965 176.573 193.983L176.391 193.965L176.29 193.983L176.208 194.01C176.208 194.01 176.19 194.001 176.181 194.01H175.998C175.998 194.01 175.98 193.974 175.971 193.965C175.761 193.983 175.551 193.992 175.35 194.01C174.903 194.037 174.446 194.146 173.999 194.074C173.588 194.01 173.187 194.028 172.776 193.956C172.42 193.893 172.064 193.974 171.708 194.037C171.224 194.119 170.74 193.856 170.256 194.01C170.001 194.092 169.745 194.074 169.489 194.291C169.362 194.4 169.225 194.472 169.097 194.137C169.06 194.037 169.006 194.074 168.96 194.074C168.549 194.083 168.138 194.092 167.728 194.191C167.554 194.237 167.381 194.209 167.198 194.11C167.125 194.065 167.052 194.083 166.97 194.074C166.349 194.11 165.728 194.137 165.108 194.074H164.688C164.587 193.911 164.496 193.911 164.395 194.11L164.039 194.2C163.994 194.173 163.939 194.146 163.893 194.309L163.546 194.327L163.583 194.336Z" fill="black"/>
<path d="M203.86 90.6893C218.521 108.625 230.032 86.7327 238.961 88.5525C238.961 70.9064 221.771 59.8696 209.547 62.2961C201.185 63.9529 195.151 69.1318 191.408 77.3347L179.266 102.016L178.207 133.017C177.915 141.482 184.598 148.58 193.133 148.879C196.73 148.879 199.697 146.072 199.861 142.505L201.778 100.16C201.696 99.879 195.927 100.16 196.128 97.0542C196.265 95.8862 196.319 94.7092 196.438 93.5413C196.639 91.6852 197.634 90.4358 199.396 89.7658C201.103 89.1048 202.582 89.4308 203.878 90.6983" fill="black"/>
<path d="M190.157 83.1285C189.993 83.3911 189.774 83.6355 189.655 83.9162C188.943 85.6183 187.939 87.1666 187.099 88.8053C186.177 90.589 185.145 92.3092 184.159 94.0657C183.922 94.4912 183.694 94.9168 183.484 95.3604C182.635 97.2255 181.941 99.154 180.982 100.956C180.845 101.209 180.663 101.436 180.462 101.653C180.362 101.762 180.27 101.879 180.17 101.988C180.143 102.015 180.124 102.042 180.097 102.069L180.051 102.106C180.051 102.106 179.996 102.16 179.978 102.187C179.96 102.269 179.96 102.314 179.978 102.504C180.015 102.812 180.024 103.12 180.015 103.437C179.96 106.768 180.371 110.118 180.216 113.441C180.069 116.483 180.006 119.534 179.832 122.577C179.677 125.275 179.567 127.973 179.348 130.662C179.284 131.404 179.248 132.147 179.22 132.898C179.211 133.269 179.23 133.595 179.239 133.948L179.257 134.473C179.266 134.646 179.303 134.818 179.321 134.99C179.376 135.334 179.403 135.678 179.467 136.022L179.704 137.027C179.768 137.371 179.905 137.688 180.006 138.023C180.115 138.349 180.206 138.684 180.352 139C180.499 139.354 180.635 139.716 180.809 140.051L181.366 141.056C181.795 141.689 182.224 142.332 182.753 142.894C183.776 144.034 184.963 145.039 186.259 145.863C188.304 147.14 190.723 147.783 193.124 147.882L193.507 147.855C193.644 147.855 193.781 147.828 193.918 147.801C194.192 147.765 194.457 147.665 194.712 147.584C195.224 147.384 195.698 147.113 196.118 146.787C196.538 146.452 196.894 146.063 197.214 145.655C197.533 145.239 197.78 144.795 198.017 144.333C198.236 143.908 198.355 143.446 198.464 142.975L198.51 142.622L198.537 142.441L198.556 142.215L198.619 141.318C198.711 140.123 198.811 138.937 198.939 137.76C199.295 134.32 199.505 130.87 199.733 127.42C199.888 125.039 200.08 122.658 200.281 120.286C200.454 118.249 200.427 116.194 200.637 114.165C200.911 111.576 200.902 108.978 201.112 106.397C201.221 105.048 201.276 103.699 201.303 102.35L201.322 101.363V100.63L201.331 100.539C201.331 100.521 201.331 100.512 201.331 100.494C201.322 100.485 201.303 100.476 201.294 100.467C201.23 100.449 201.166 100.44 201.112 100.431L200.737 100.394L200.372 100.358C200.217 100.34 200.034 100.322 199.861 100.295C199.359 100.222 198.857 100.141 198.364 99.996C197.862 99.8602 197.36 99.6701 196.885 99.3713C196.419 99.0816 195.963 98.6289 195.744 98.0494C195.634 97.7597 195.589 97.4519 195.589 97.1621C195.589 97.0897 195.589 97.0082 195.598 96.9267L195.616 96.7457L195.643 96.3835C195.726 95.4328 195.762 94.455 195.853 93.4681C195.945 92.4179 196.337 91.3133 197.122 90.4984C197.396 90.2087 197.734 90.0005 198.063 89.8013C198.574 89.4934 199.103 89.2942 199.651 89.1132C200.208 88.9321 200.774 88.7872 201.44 88.6605C202.043 88.5428 202.664 88.7329 203.093 89.0679C203.531 89.412 203.786 89.8828 203.878 90.3445C203.933 90.6071 203.823 90.7972 203.513 90.8063C203.111 90.8153 202.773 90.7881 202.417 90.5799C202.079 90.3898 201.714 90.263 201.34 90.2359C200.966 90.2087 200.582 90.263 200.208 90.3898C199.834 90.5165 199.45 90.7067 199.122 90.924C198.793 91.1413 198.519 91.4038 198.3 91.6754C198.081 91.9742 197.789 92.2368 197.652 92.617C197.551 92.8887 197.497 93.1875 197.46 93.4953L197.442 93.613V93.7488L197.405 94.0204L197.36 94.5727C197.305 95.3151 197.268 96.0757 197.195 96.8543L197.177 97.1078C197.177 97.1078 197.177 97.144 197.177 97.1712V97.2436C197.186 97.3342 197.214 97.4156 197.241 97.4881C197.296 97.6329 197.396 97.7597 197.579 97.8955C197.935 98.1671 198.556 98.3844 199.204 98.5021C199.496 98.5564 199.797 98.6108 200.107 98.647L200.619 98.7104C200.92 98.7466 201.23 98.7737 201.522 98.819C201.824 98.8552 202.098 98.9367 202.308 99.0635C202.408 99.1268 202.508 99.1902 202.591 99.2717C202.609 99.2898 202.627 99.317 202.645 99.3532V99.3713C202.645 99.3713 202.673 99.3532 202.664 99.3622V99.3804L202.682 99.4166L202.746 99.5705C202.791 99.6791 202.846 99.7697 202.874 99.8964C202.883 100.041 202.901 100.168 202.91 100.322L202.864 101.218L202.828 101.861L202.791 102.395L202.718 103.473C202.682 104.197 202.664 104.921 202.718 105.655C202.828 107.085 202.709 108.552 202.527 110.001C202.335 111.513 202.371 113.043 202.326 114.573C202.308 115.261 202.308 115.958 202.161 116.637C202.061 117.108 201.979 117.651 202.143 118.077C202.417 118.801 202.317 119.462 202.143 120.168C202.043 120.558 202.015 120.983 201.997 121.4C201.879 123.754 201.805 126.108 201.623 128.453C201.422 131.078 201.459 133.722 201.303 136.357C201.203 137.941 201.112 139.535 201.002 141.119L200.92 142.305C200.911 142.486 200.874 142.74 200.847 142.966C200.829 143.192 200.774 143.419 200.719 143.645C200.509 144.541 200.126 145.393 199.605 146.135C198.994 147.004 198.227 147.756 197.36 148.353C196.492 148.951 195.497 149.376 194.448 149.594L194.055 149.666L193.854 149.702L193.653 149.72L193.252 149.757H193.151L193.096 149.766H193.042H193.014H192.823C192.321 149.738 191.818 149.72 191.316 149.693C190.814 149.621 190.321 149.548 189.819 149.476C189.326 149.376 188.833 149.231 188.349 149.105C186.633 148.57 184.99 147.756 183.529 146.696C182.06 145.646 180.809 144.297 179.823 142.794C179.476 142.314 179.202 141.789 178.91 141.282L178.691 140.902L178.508 140.503L178.143 139.698C178.006 139.435 177.933 139.145 177.833 138.865L177.559 138.023C177.404 137.452 177.313 136.873 177.212 136.293C177.176 135.804 177.139 135.325 177.093 134.845C177.066 134.609 177.075 134.365 177.075 134.12V133.396C177.075 132.898 177.112 132.473 177.13 132.02C177.157 131.576 177.185 131.124 177.212 130.671C177.376 128.154 177.395 125.628 177.331 123.093C177.294 121.644 177.322 120.114 177.614 118.656C178.015 116.673 177.915 114.663 177.851 112.663C177.805 111.286 177.778 109.91 177.851 108.534C177.933 107.149 178.006 105.772 178.089 104.387C178.098 104.179 178.116 103.962 178.07 103.762C178.006 103.455 177.961 103.147 177.924 102.83C177.888 102.486 177.86 102.332 177.86 101.617C177.933 101.463 177.997 101.3 178.07 101.146C178.107 101.046 178.152 100.956 178.189 100.856C178.262 100.693 178.335 100.53 178.408 100.367C178.563 100.041 178.718 99.7154 178.883 99.3985C179.211 98.7556 179.567 98.1219 179.933 97.4881C180.352 96.7366 180.553 95.8855 180.928 95.0978C182.014 92.8525 183.128 90.6342 184.397 88.4794C185.383 86.8135 186.232 85.057 187.208 83.3911C188.039 81.9877 188.623 80.4848 189.29 79.018C189.728 78.0492 190.203 77.1348 190.714 76.166C190.969 75.6862 191.216 75.2153 191.508 74.7536C191.791 74.2918 192.065 73.821 192.375 73.3774C193.179 72.1189 194.046 70.8785 194.986 69.6924C196.273 68.0989 197.807 66.6956 199.505 65.5367C200.08 65.1655 200.637 64.7671 201.185 64.3415C201.386 64.1786 201.595 64.0337 201.815 63.907C202.043 63.7893 202.271 63.6897 202.508 63.5901C202.746 63.4905 202.983 63.3909 203.211 63.2913C203.449 63.2007 203.686 63.1102 203.914 63.0016C205.484 62.2591 207.155 61.6706 208.862 61.3809C209.328 61.2813 209.83 61.227 210.314 61.1364C210.797 61.064 211.29 61.0278 211.783 60.9735C212.276 60.9554 212.769 60.9101 213.253 60.9192C213.746 60.9373 214.239 60.9192 214.723 60.9916L215.599 61.0821L216.467 61.2179L216.905 61.2904L217.334 61.3809L218.192 61.562C219.324 61.8517 220.456 62.1686 221.533 62.6032C223.313 63.2913 224.984 64.2057 226.636 65.1383C229.183 66.5688 231.456 68.4702 233.428 70.6431C233.675 70.9057 233.921 71.1682 234.168 71.4308C234.414 71.6934 234.67 71.9559 234.889 72.2366C235.071 72.472 235.245 72.7255 235.409 72.97C235.491 73.0967 235.573 73.2235 235.656 73.3502L235.875 73.7396C236.021 74.0021 236.167 74.2556 236.322 74.5182C236.477 74.7717 236.614 75.0433 236.769 75.2878C236.915 75.5413 237.061 75.7948 237.198 76.0483C237.354 76.4557 237.545 76.8541 237.737 77.2434C237.92 77.6328 238.111 78.0311 238.303 78.4295L238.449 78.7826L238.577 79.1448L238.832 79.8691C239.033 80.9374 239.499 81.9334 239.681 83.0017C239.618 83.2372 239.681 83.4816 239.709 83.7351L239.846 84.5862C239.891 84.8669 239.937 85.1566 239.964 85.4463L240.056 86.3064L240.101 86.7501L240.129 87.5197L240.202 89.4663C240.202 89.6383 240.211 89.8284 240.202 89.9733L238.741 89.7288C238.495 89.6926 238.266 89.6745 238.02 89.6383C237.901 89.6202 237.783 89.6111 237.673 89.6111C237.618 89.6111 237.545 89.6111 237.5 89.6111H237.427C237.043 89.6383 236.641 89.6926 236.24 89.8013C235.427 90.0005 234.606 90.3355 233.793 90.7248C232.104 91.5396 230.388 92.5175 228.718 93.5949C227.202 94.5727 225.669 95.5596 224.034 96.4378C222.4 97.3161 220.648 98.0675 218.749 98.4931C217.096 98.8643 215.335 98.9548 213.618 98.656L213.445 98.5202C213.281 98.4931 213.125 98.4387 212.961 98.4025C212.788 98.1762 212.587 98.149 212.331 98.2396L211.984 98.1309L211.646 98.0042C211.546 97.9136 211.437 97.8412 211.327 97.7778C211.217 97.7054 211.099 97.651 210.98 97.5967C210.734 97.4971 210.487 97.4066 210.241 97.307C210.031 97.2074 209.83 97.0897 209.629 96.963C209.41 96.628 209.099 96.474 208.707 96.4197C207.867 95.7044 207.073 94.953 206.206 94.3283C205.22 93.613 204.508 92.6171 203.54 91.9018C203.412 91.8022 203.284 91.6392 203.211 91.4944C203.02 91.1141 203.22 90.8425 203.595 91.0145C203.859 91.1322 204.124 91.2499 204.38 91.3676C204.645 91.4853 204.9 91.594 205.156 91.7298C205.402 91.8656 205.658 92.0104 205.895 92.2006C206.133 92.3907 206.37 92.5989 206.607 92.8615C206.863 93.1603 207.155 93.4319 207.447 93.7035C207.748 93.957 208.05 94.2287 208.387 94.4459C209.036 94.9168 209.748 95.297 210.487 95.5596C210.67 95.632 210.852 95.7226 211.035 95.804C212.486 96.5012 214.066 96.8362 215.636 96.8C217.206 96.7728 218.74 96.3926 220.255 95.8765C220.785 95.6863 221.296 95.4419 221.798 95.1793C222.017 95.0797 222.236 94.962 222.455 94.8443C223.45 94.3554 224.664 94.1743 225.55 93.4319L225.577 93.3957L226.161 92.9792C226.463 92.9611 226.7 92.8343 226.828 92.5446L227.732 91.938L228.206 91.6211L228.763 91.2137C228.809 91.2046 228.855 91.1775 228.882 91.1322C230.635 90.1906 232.241 88.9864 234.168 88.1082C234.231 88.0901 234.286 88.0539 234.332 88.0176C234.496 87.9362 234.661 87.8456 234.834 87.7732C234.87 87.7913 234.907 87.7732 234.944 87.7551C235.263 87.6464 235.583 87.5559 235.92 87.4744C235.975 87.4744 236.03 87.4654 236.085 87.4382C236.495 87.3658 236.906 87.2933 237.335 87.2752L237.536 87.2571L237.646 87.239C237.646 87.239 237.682 87.2571 237.682 87.239H237.737C237.737 87.239 237.764 87.2571 237.764 87.239V87.2118V87.1575V87.0398C237.764 87.0398 237.801 87.0398 237.801 87.0217V86.895L237.783 86.8316L237.755 86.6233L237.664 85.7451L237.618 85.3105L237.545 84.8759L237.399 84.0067C237.144 82.7573 236.815 81.5169 236.358 80.3218C236.158 79.7152 235.893 79.1357 235.646 78.5472C235.528 78.2484 235.373 77.9678 235.245 77.678C235.108 77.3883 234.989 77.0986 234.834 76.8179C234.569 76.3018 234.304 75.7857 233.994 75.2968C233.839 75.0524 233.693 74.7989 233.538 74.5544L233.045 73.8391L232.798 73.477L232.533 73.1329L232.004 72.4358L231.438 71.7658C231.246 71.5394 231.064 71.3131 230.863 71.1049C229.503 69.5838 227.859 68.3162 226.134 67.2298C224.956 66.4964 223.77 65.7721 222.519 65.1564C221.268 64.5498 219.972 64.0337 218.612 63.7349C217.188 63.418 215.736 63.1374 214.303 63.2551C213.938 63.2822 213.573 63.3275 213.208 63.3003C212.842 63.2822 212.477 63.237 212.112 63.074C211.902 62.9744 211.601 63.0468 211.345 63.074C210.77 63.1102 210.213 63.2279 209.656 63.3275L208.807 63.5267C208.524 63.5991 208.241 63.6534 207.958 63.744C207.402 63.916 206.836 64.0699 206.306 64.2963L205.494 64.6132C205.229 64.7399 204.973 64.8667 204.708 64.9844C204.261 65.1836 203.823 65.428 203.385 65.6363C202.928 65.8355 202.499 66.0799 202.052 66.2791C201.659 66.4421 201.322 66.7227 200.956 66.9581C198.099 68.9953 195.78 71.7205 193.945 74.7445C193.745 75.0886 193.562 75.4417 193.361 75.7948C193.16 76.1389 192.987 76.5101 192.813 76.8722C192.43 77.3068 192.184 77.8138 192.111 78.4114L191.271 80.3218C191.115 80.5753 190.96 80.8288 190.997 81.1185L190.111 82.9836L190.157 83.1285Z" fill="black"/>
<path d="M179.833 252.284C179.942 252.32 180.061 252.401 180.17 252.383C180.846 252.275 181.522 252.492 182.197 252.519C182.936 252.555 183.667 252.727 184.406 252.827C184.589 252.854 184.762 252.872 184.945 252.854C185.703 252.8 186.451 252.564 187.2 252.637C187.464 252.655 187.738 253.08 188.003 252.963C188.113 252.908 188.231 252.899 188.35 252.89C189.573 252.836 190.806 252.311 192.029 252.356C192.586 252.374 193.152 252.374 193.718 252.383C194.001 252.383 194.275 252.383 194.558 252.392C194.64 252.392 194.685 252.392 194.731 252.392H194.886C194.987 252.392 195.096 252.392 195.197 252.374C195.562 252.347 195.936 252.266 196.283 252.121C196.63 251.985 196.977 251.813 197.296 251.587C197.661 251.342 197.926 250.98 198.118 250.6C198.31 250.21 198.428 249.803 198.538 249.395C198.657 248.988 198.657 248.318 198.684 247.739C198.702 247.141 198.73 246.543 198.803 245.946C198.921 245.013 198.921 244.081 198.967 243.148C199.013 242.207 198.638 241.238 198.757 240.305C198.866 239.436 198.967 238.567 199.149 237.707C199.414 236.457 199.533 235.199 199.67 233.94C199.761 233.071 199.889 232.211 200.035 231.342C200.154 230.599 200.071 229.848 200.227 229.115C200.428 228.173 200.354 227.222 200.501 226.281C200.647 225.303 200.564 224.307 200.583 223.32C200.61 221.899 200.637 220.477 200.665 219.065C200.665 218.938 200.729 218.82 200.738 218.694C200.784 218.304 200.92 217.933 200.564 217.535C200.245 217.172 200.546 216.847 201.13 216.602C201.295 216.539 201.505 216.521 201.715 216.611C201.989 216.738 202.18 216.865 202.171 217.055C202.107 217.761 202.253 218.476 202.345 219.182C202.372 219.373 202.253 219.554 202.253 219.744C202.235 220.848 202.189 221.944 202.235 223.048C202.253 223.537 202.189 224.026 202.153 224.506C202.116 225.031 201.97 225.547 202.126 226.091C202.272 226.616 202.189 227.15 202.043 227.675C201.888 228.218 201.961 228.789 201.961 229.341C201.961 229.594 201.979 229.848 201.852 230.092C201.76 230.264 201.696 230.455 201.87 230.618C202.162 230.889 202.08 231.134 201.925 231.387C201.843 231.523 201.824 231.686 201.815 231.831C201.76 232.691 201.742 233.551 201.623 234.402C201.496 235.362 201.596 236.331 201.505 237.29C201.395 238.449 201.304 239.608 201.039 240.749C200.729 242.098 201.003 243.474 201.03 244.85C201.057 246.064 201.067 247.286 200.93 248.49C200.902 248.698 200.902 248.879 200.884 249.097C200.857 249.341 200.857 249.595 200.802 249.839L200.729 250.201C200.701 250.319 200.656 250.437 200.619 250.554C200.546 250.79 200.428 251.016 200.309 251.224C199.88 251.912 199.405 252.573 198.784 253.071C198.346 253.415 197.89 253.723 197.415 254.013C196.931 254.285 196.42 254.52 195.872 254.71C195.553 254.801 195.215 254.882 194.877 254.873C194.795 254.873 194.704 254.873 194.631 254.873C194.558 254.873 194.494 254.855 194.43 254.837C194.293 254.81 194.156 254.764 194.019 254.701C193.28 254.375 192.549 254.538 191.81 254.674C191.308 254.764 190.796 254.846 190.285 254.81C189.774 254.783 189.263 254.746 188.761 254.719C188.688 254.719 188.606 254.71 188.533 254.755C187.784 255.226 187.026 255.109 186.259 255C185.94 254.955 185.63 255.154 185.31 255.154C184.397 255.172 183.475 255.154 182.562 254.964C181.85 254.819 181.138 254.828 180.426 254.683C179.824 254.556 179.239 254.683 178.646 254.746C178.454 254.764 178.272 254.774 178.016 254.746C177.897 254.737 177.779 254.728 177.669 254.71C177.55 254.692 177.441 254.665 177.322 254.638C176.866 254.538 176.437 254.339 176.026 254.14C175.469 253.85 174.912 253.551 174.41 253.171C173.735 252.646 173.205 251.931 172.895 251.143C172.794 250.88 172.694 250.627 172.511 250.373C172.365 250.192 172.356 249.975 172.347 249.767C172.338 249.558 172.374 249.341 172.347 249.133L172.329 248.997L172.31 248.888L172.283 248.662C172.265 248.508 172.246 248.363 172.237 248.209C172.21 247.911 172.201 247.603 172.219 247.295C172.256 246.616 172.1 245.946 172.1 245.267C172.1 244.452 172.046 243.637 172.009 242.822C171.982 242.152 172.018 241.482 171.89 240.821C171.699 239.807 171.607 238.784 171.48 237.77C171.452 237.517 171.334 237.281 171.297 237.028C171.224 236.611 171.379 236.195 171.297 235.778L171.279 235.48C171.334 235.172 171.279 234.873 171.206 234.574L171.169 234.04C171.297 233.66 171.087 233.289 171.105 232.917C171.215 232.836 171.206 232.745 171.206 232.655L171.105 231.451L171.078 231.07C171.078 230.337 171.06 229.604 171.078 228.87C171.096 228.146 171.188 227.422 171.16 226.706C171.096 225.403 170.959 224.108 170.85 222.813C170.795 222.252 170.74 221.681 170.695 221.111L170.795 221.039V220.876C170.978 220.794 170.941 220.722 170.777 220.658V220.423C170.968 220.242 170.886 220.07 170.841 219.889V219.653C171.041 219.526 170.996 219.4 170.832 219.291C170.959 218.911 171.051 218.522 170.914 218.15C170.768 217.734 170.914 217.299 170.64 216.901C170.603 216.847 170.612 216.774 170.64 216.711C170.731 216.557 171.06 216.512 171.242 216.638C171.754 216.991 172.347 217.308 172.256 217.824C172.155 218.413 172.237 219.01 172.493 219.59C172.529 219.662 172.529 219.744 172.539 219.816C172.621 221.039 172.977 222.252 173.013 223.474C173.013 223.691 173.077 223.9 173.114 224.117L173.15 224.398C173.169 224.814 172.749 225.258 172.949 225.674L172.968 225.692L173.032 225.955C172.895 226.063 172.876 226.154 173.059 226.245L173.105 226.643L173.123 226.851L173.169 227.096C173.169 227.096 173.15 227.132 173.169 227.15C173.059 227.874 173.223 228.58 173.324 229.287C173.324 229.305 173.324 229.332 173.351 229.35L173.415 229.531C173.415 229.531 173.388 229.558 173.397 229.567V229.902C173.397 229.902 173.397 229.939 173.406 229.957V230.355L173.433 230.563L173.47 230.735C173.47 230.735 173.461 230.772 173.47 230.79L173.488 231.188C173.488 231.188 173.452 231.224 173.452 231.242C173.488 231.686 173.525 232.139 173.561 232.582C173.643 233.551 173.789 234.52 173.771 235.498C173.753 236.385 173.817 237.263 173.78 238.15C173.753 238.92 173.881 239.69 173.981 240.459C174.118 241.5 173.908 242.569 174.109 243.601C174.218 244.153 174.237 244.706 174.474 245.249C174.593 245.52 174.693 245.81 174.364 246.109C174.273 246.19 174.31 246.308 174.319 246.408C174.346 246.851 174.374 247.295 174.41 247.73C174.428 247.947 174.447 248.173 174.474 248.391C174.492 248.499 174.501 248.608 174.52 248.716L174.547 248.879L174.574 249.006C174.611 249.142 174.629 249.278 174.647 249.423C174.657 249.495 174.647 249.568 174.657 249.64C174.657 249.712 174.657 249.785 174.657 249.857C174.638 249.993 174.72 250.102 174.757 250.219C175.204 251.152 176.017 251.876 176.957 252.275C177.176 252.356 177.404 252.42 177.633 252.456C177.77 252.628 177.943 252.664 178.116 252.456L178.819 252.374C178.929 252.401 179.038 252.429 179.13 252.266L179.887 252.247L179.833 252.284Z" fill="black"/>
<path d="M174.337 220.551C174.273 220.487 174.227 220.379 174.136 220.37C173.625 220.297 173.25 219.899 172.812 219.627C172.328 219.328 171.917 218.867 171.552 218.351C171.461 218.233 171.37 218.097 171.26 217.979C171.196 217.916 171.151 217.853 171.087 217.771C171.023 217.69 170.959 217.608 170.904 217.518C170.849 217.427 170.795 217.346 170.749 217.246C170.703 217.155 170.667 217.056 170.63 216.956C170.493 216.558 170.502 216.105 170.685 215.707C170.758 215.571 170.913 215.471 171.078 215.399C171.242 215.318 171.351 215.272 171.379 215.145C171.397 215.037 171.452 214.946 171.516 214.874C171.854 214.476 172.164 214.086 172.511 213.724C172.858 213.371 173.232 213.063 173.661 212.9C174.446 212.619 175.204 212.339 175.989 212.194C176.683 212.067 177.367 211.94 178.061 211.931C178.828 211.922 179.54 211.614 180.298 211.605C181.129 211.587 181.941 211.379 182.772 211.406C183.42 211.433 184.059 211.343 184.698 211.316C185.346 211.289 185.985 210.863 186.642 210.926C187.245 210.99 187.847 211.053 188.441 211.216C189.299 211.442 190.157 211.551 191.015 211.696C191.609 211.796 192.193 211.94 192.768 212.112C193.261 212.257 193.79 212.212 194.265 212.411C194.877 212.674 195.534 212.674 196.146 212.918C196.776 213.172 197.46 213.217 198.127 213.407C199.067 213.697 200.016 214.023 200.893 214.657C200.975 214.72 201.011 214.82 201.075 214.892C201.176 215.01 201.258 215.127 201.367 215.245C201.477 215.354 201.614 215.444 201.869 215.517C202.089 215.598 202.198 215.77 202.134 215.969C202.089 216.16 201.888 216.359 201.614 216.476C201.459 216.54 201.249 216.549 201.03 216.504C200.728 216.449 200.555 216.458 200.537 216.413C200.537 216.313 200.427 216.214 200.29 216.141C200.162 216.06 199.98 216.006 199.806 215.942C199.715 215.906 199.688 215.77 199.605 215.716C199.076 215.417 198.455 215.146 197.78 215.01C197.478 214.946 197.205 214.81 196.912 214.72C196.602 214.62 196.301 214.421 195.927 214.512C195.561 214.602 195.242 214.476 194.931 214.285C194.603 214.095 194.229 214.131 193.873 214.086C193.708 214.068 193.544 214.077 193.398 213.941C193.297 213.851 193.179 213.769 193.051 213.941C192.841 214.213 192.695 214.122 192.549 213.968C192.467 213.878 192.366 213.86 192.266 213.842C191.709 213.76 191.143 213.733 190.586 213.615C189.965 213.48 189.317 213.597 188.687 213.525C187.93 213.443 187.163 213.407 186.396 213.199C185.492 212.963 184.588 213.335 183.694 213.48C182.9 213.615 182.114 213.751 181.32 213.769C180.791 213.769 180.298 213.959 179.768 213.923C179.33 213.887 178.901 213.959 178.472 213.978C177.869 214.014 177.294 214.213 176.756 214.503C176.445 214.675 176.117 214.792 175.724 214.666C175.176 214.494 174.784 214.82 174.428 215.118C174.181 215.327 173.953 215.526 173.688 215.634C173.433 215.752 173.177 215.879 172.986 216.015C172.949 216.033 172.922 216.06 172.94 216.114C172.958 216.187 172.958 216.241 172.967 216.295C172.986 216.35 172.986 216.395 172.995 216.431C172.995 216.467 172.995 216.504 173.013 216.513C173.031 216.513 173.031 216.513 173.04 216.522C173.049 216.531 172.995 216.522 172.931 216.558C172.885 216.594 173.095 216.567 173.086 216.54L173.168 216.648C173.168 216.648 173.223 216.703 173.241 216.739C173.269 216.775 173.305 216.802 173.332 216.839C173.469 216.983 173.625 217.155 173.798 217.355C174.063 217.672 174.464 217.844 174.811 218.133C175.113 218.378 175.514 218.378 175.879 218.441C176.363 218.523 176.811 218.785 177.276 218.984C177.596 219.12 177.952 219.147 178.299 219.193C178.773 219.238 179.23 219.347 179.686 219.455C179.841 219.491 179.997 219.519 180.17 219.437C180.416 219.319 180.617 219.582 180.855 219.582C181.256 219.582 181.667 219.564 182.051 219.672C182.489 219.781 182.945 219.691 183.393 219.754C183.931 219.826 184.47 219.835 185.008 219.863C185.447 219.881 185.894 219.962 186.332 219.863C187.008 219.718 187.683 219.682 188.35 219.573C188.514 219.546 188.669 219.446 188.833 219.401C189.107 219.337 189.381 219.491 189.655 219.41L189.856 219.392C190.057 219.455 190.257 219.392 190.449 219.319L190.796 219.274C191.052 219.401 191.28 219.184 191.526 219.193C191.59 219.292 191.645 219.292 191.7 219.283C191.955 219.238 192.22 219.193 192.476 219.147L192.722 219.102C193.197 219.066 193.663 219.021 194.146 218.984C194.612 218.948 195.105 218.984 195.552 218.885C196.374 218.695 197.168 218.396 197.907 218.079C198.227 217.934 198.537 217.78 198.82 217.608L198.903 217.681L198.994 217.644C199.122 217.789 199.14 217.744 199.103 217.581L199.222 217.518C199.414 217.644 199.459 217.527 199.523 217.445C199.56 217.427 199.605 217.409 199.642 217.391C199.806 217.518 199.852 217.445 199.797 217.273C200.035 217.273 200.281 217.201 200.29 216.992C200.308 216.884 200.345 216.83 200.372 216.766C200.372 216.739 200.391 216.703 200.372 216.676C200.354 216.648 200.327 216.612 200.263 216.585C200.226 216.576 200.235 216.567 200.272 216.567C200.372 216.567 200.71 216.522 200.874 216.585C200.993 216.63 201.121 216.694 201.23 216.775C201.331 216.857 201.431 216.956 201.495 217.056C201.559 217.155 201.596 217.273 201.596 217.382C201.596 217.49 201.55 217.581 201.468 217.662C201.084 217.988 200.792 218.287 200.555 218.731C200.528 218.785 200.473 218.821 200.427 218.849C200.044 219.111 199.679 219.383 199.304 219.627C198.93 219.881 198.537 220.098 198.117 220.225C197.971 220.27 197.844 220.37 197.707 220.433L197.524 220.514C197.232 220.605 196.83 220.252 196.593 220.496V220.514L196.419 220.605C196.319 220.487 196.246 220.478 196.228 220.668L195.963 220.759L195.826 220.795L195.662 220.868C195.662 220.868 195.634 220.859 195.625 220.877C195.105 220.84 194.648 221.058 194.174 221.203C194.156 221.203 194.146 221.212 194.137 221.239L194.019 221.311C194.019 221.311 194 221.284 193.991 221.302L193.763 221.338C193.763 221.338 193.736 221.329 193.726 221.338L193.453 221.366L193.307 221.402L193.197 221.447C193.197 221.447 193.17 221.438 193.16 221.447L192.887 221.483C192.887 221.483 192.859 221.447 192.841 221.447C192.54 221.501 192.229 221.556 191.919 221.601C191.253 221.71 190.586 221.873 189.911 221.845C189.299 221.827 188.687 221.873 188.085 221.818C187.555 221.764 187.026 221.864 186.496 221.927C185.766 222.008 185.054 221.737 184.324 221.864C183.94 221.927 183.557 221.9 183.164 222.081C182.963 222.171 182.753 222.244 182.589 221.891C182.544 221.791 182.461 221.818 182.388 221.809C181.777 221.773 181.165 221.719 180.544 221.746C180.28 221.755 180.015 221.701 179.768 221.565C179.659 221.501 179.549 221.501 179.431 221.483C178.499 221.384 177.568 221.239 176.664 220.967L176.044 220.813C175.943 220.623 175.797 220.587 175.606 220.741L175.058 220.668C174.994 220.623 174.93 220.569 174.811 220.705C174.638 220.65 174.455 220.605 174.282 220.551" fill="black"/>
<path d="M216.248 224.307C216.211 224.361 216.111 224.415 216.129 224.479C216.166 224.66 216.12 224.841 216.047 225.013C215.974 225.185 215.874 225.339 215.828 225.511C215.764 225.692 215.664 225.864 215.554 226.036C215.444 226.199 215.317 226.353 215.207 226.516C215.161 226.597 215.098 226.67 215.079 226.76C214.997 227.132 215.043 227.575 214.796 227.892C214.705 228.001 214.267 227.91 214.312 228.082C214.331 228.155 214.312 228.209 214.276 228.263C214.203 228.399 214.157 228.553 214.112 228.716C214.066 228.87 214.029 229.042 213.984 229.205C213.902 229.531 213.829 229.812 213.637 230.02C213.281 230.4 212.989 230.817 212.624 231.179C212.295 231.496 211.994 231.84 211.61 232.12C211.19 232.428 211.026 232.935 210.652 233.279C210.232 233.651 209.994 234.167 209.575 234.538C209.246 234.828 209.018 235.199 208.753 235.543C208.488 235.887 208.543 236.484 208.214 236.783C207.913 237.055 207.621 237.335 207.265 237.571C206.745 237.906 206.343 238.322 205.923 238.739C205.631 239.02 205.32 239.291 204.992 239.545C204.709 239.762 204.599 240.106 204.289 240.305C203.896 240.55 203.723 240.975 203.376 241.256C203.011 241.546 202.837 241.989 202.582 242.369C202.208 242.913 201.833 243.456 201.468 243.99C201.432 244.035 201.359 244.054 201.313 244.09C201.185 244.216 200.984 244.28 201.167 244.651C201.331 244.986 201.012 244.932 200.482 244.678C200.336 244.606 200.163 244.488 200.017 244.325C199.825 244.108 199.706 243.945 199.761 243.881C199.98 243.637 200.044 243.275 200.144 242.94C200.172 242.849 200.309 242.849 200.354 242.777C200.646 242.36 200.948 241.953 201.185 241.491C201.295 241.283 201.468 241.138 201.614 240.966C201.769 240.785 202.016 240.667 202.025 240.359C202.034 240.061 202.235 239.907 202.481 239.789C202.737 239.662 202.819 239.4 202.965 239.182C203.029 239.083 203.075 238.974 203.239 238.956C203.349 238.938 203.449 238.902 203.358 238.739C203.193 238.458 203.321 238.413 203.504 238.404C203.604 238.404 203.659 238.35 203.705 238.295C203.96 237.996 204.188 237.661 204.49 237.399C204.828 237.1 204.983 236.656 205.293 236.34C205.667 235.95 206.023 235.552 206.516 235.262C207.101 234.918 207.219 234.212 207.539 233.66C207.822 233.171 208.105 232.682 208.516 232.292C208.78 232.039 208.917 231.677 209.246 231.459C209.511 231.287 209.702 231.052 209.94 230.853C210.268 230.572 210.478 230.192 210.634 229.775C210.716 229.531 210.862 229.314 211.2 229.277C211.674 229.223 211.747 228.852 211.857 228.508C211.93 228.272 212.021 228.037 212.176 227.883C212.322 227.738 212.478 227.602 212.605 227.44C212.624 227.412 212.651 227.394 212.624 227.34C212.514 227.095 212.505 226.923 212.56 226.788C212.624 226.661 212.733 226.552 212.852 226.444C212.952 226.353 212.815 226.163 212.852 226.054C212.916 225.891 212.98 225.737 213.053 225.574C213.135 225.42 213.226 225.267 213.363 225.122C213.564 224.886 213.61 224.606 213.783 224.343C213.865 224.234 213.874 224.108 213.856 223.99C213.838 223.872 213.81 223.745 213.774 223.628C213.71 223.32 213.838 223.012 213.893 222.686C213.92 222.469 213.856 222.252 213.774 222.043C213.728 221.898 213.692 221.763 213.655 221.618C213.628 221.482 213.6 221.337 213.573 221.183C213.555 221.084 213.527 220.993 213.39 220.939C213.19 220.875 213.372 220.658 213.281 220.549C213.135 220.359 212.971 220.196 212.897 219.97C212.806 219.716 212.541 219.59 212.386 219.391C212.204 219.137 211.939 218.956 211.683 218.775C211.583 218.702 211.483 218.612 211.364 218.558C211.309 218.521 211.254 218.494 211.19 218.467C211.126 218.449 211.063 218.431 210.999 218.431C210.588 218.404 210.214 218.34 209.839 218.358C209.748 218.367 209.648 218.458 209.556 218.476C209.41 218.512 209.273 218.34 209.118 218.404H209.009C208.899 218.34 208.789 218.404 208.689 218.467C208.625 218.476 208.57 218.494 208.506 218.503C208.351 218.376 208.26 218.603 208.123 218.594C208.068 218.494 208.041 218.503 208.004 218.512C207.867 218.567 207.74 218.621 207.612 218.693L207.493 218.757C207.247 218.829 207 218.938 206.754 219.046C206.452 219.191 206.096 219.264 205.823 219.454C205.32 219.789 204.864 220.187 204.389 220.558C204.179 220.721 203.979 220.893 203.778 221.066L203.696 220.993L203.632 221.029C203.495 220.893 203.486 220.939 203.549 221.093L203.458 221.147C203.276 221.02 203.248 221.129 203.203 221.21L203.102 221.256C202.947 221.129 202.92 221.183 202.965 221.346C202.737 221.319 202.536 221.337 202.454 221.527C202.363 221.745 202.098 221.708 202.089 222.034C202.089 222.08 202.052 222.089 202.007 222.07C201.897 222.025 201.696 221.763 201.651 221.582C201.514 221.084 201.322 220.522 201.587 220.477C201.879 220.432 202.089 220.233 202.18 219.898C202.189 219.852 202.217 219.834 202.244 219.807C202.7 219.472 203.002 218.911 203.486 218.612C203.568 218.558 203.623 218.458 203.696 218.386L203.787 218.295C203.951 218.186 204.362 218.44 204.426 218.186V218.168L204.499 218.06C204.618 218.15 204.663 218.15 204.599 217.969L204.736 217.842L204.809 217.779L204.882 217.679C204.882 217.679 204.901 217.679 204.901 217.661C205.083 217.625 205.22 217.544 205.339 217.426C205.403 217.372 205.457 217.308 205.521 217.245C205.585 217.181 205.658 217.109 205.731 217.046C205.74 217.046 205.75 217.027 205.75 217L205.813 216.901C205.813 216.901 205.841 216.919 205.841 216.901C205.896 216.874 205.95 216.846 206.005 216.819C206.023 216.819 206.033 216.819 206.033 216.801C206.096 216.765 206.169 216.738 206.233 216.711L206.334 216.647L206.407 216.584C206.407 216.584 206.434 216.584 206.434 216.566C206.498 216.529 206.571 216.502 206.635 216.475C206.653 216.493 206.672 216.502 206.681 216.502C206.9 216.394 207.137 216.294 207.374 216.213C207.886 216.032 208.424 215.85 208.981 215.896C209.474 215.95 209.976 215.959 210.442 216.14C210.843 216.276 211.273 216.33 211.702 216.43C211.848 216.466 211.975 216.529 212.112 216.602C212.24 216.683 212.359 216.765 212.478 216.855C212.715 217.037 212.934 217.209 213.208 217.326C213.5 217.453 213.728 217.661 214.103 217.743C214.294 217.779 214.477 217.869 214.312 218.204C214.267 218.304 214.34 218.331 214.376 218.367C214.696 218.748 214.97 219.164 215.28 219.572C215.408 219.744 215.481 219.961 215.454 220.187C215.435 220.287 215.49 220.359 215.508 220.441C215.773 221.093 215.965 221.79 215.974 222.496L216.01 222.976C215.864 223.094 215.864 223.193 216.065 223.302L216.157 223.709C216.129 223.764 216.093 223.818 216.257 223.872V224.28L216.248 224.307Z" fill="black"/>
<path d="M212.286 252.816C212.386 252.834 212.496 252.906 212.587 252.87C212.861 252.761 213.153 252.734 213.436 252.725C213.509 252.725 213.582 252.725 213.655 252.725C213.682 252.725 213.682 252.743 213.701 252.752C213.728 252.771 213.765 252.78 213.801 252.78C213.874 252.78 213.984 252.807 214.148 252.825C214.312 252.843 214.531 252.852 214.75 252.825C214.86 252.816 214.951 252.78 214.979 252.734C215.006 252.689 214.97 252.608 214.887 252.544C214.814 252.481 214.705 252.436 214.614 252.408C214.413 252.345 214.276 252.345 214.248 252.291C214.239 252.273 214.376 252.182 214.449 252.11C214.531 252.028 214.55 251.956 214.422 251.983C214.321 252.01 214.267 252.01 214.212 252.001C214.075 251.983 213.947 252.001 213.81 252.028C213.774 252.028 213.746 252.046 213.71 252.055C213.673 252.064 213.664 252.073 213.582 252.082C213.445 252.092 213.317 252.11 213.18 252.119C212.642 252.173 212.112 252.227 211.601 252.146C210.652 252.001 209.675 251.965 208.707 251.847C207.849 251.738 206.982 251.684 206.115 251.53C205.156 251.367 204.188 251.539 203.23 251.458C203.175 251.458 203.12 251.449 203.065 251.44H203.02C203.02 251.44 202.956 251.422 202.919 251.422C202.855 251.422 202.782 251.422 202.728 251.422C202.709 251.521 202.7 251.612 202.673 251.693L202.609 251.874C202.572 251.965 202.527 252.064 202.481 252.155C202.445 252.245 202.381 252.345 202.326 252.436C202.271 252.526 202.207 252.617 202.134 252.707C201.769 253.178 201.294 253.54 200.838 253.794C200.382 254.047 199.934 254.228 199.487 254.355C199.04 254.491 198.638 254.69 198.181 254.871C197.944 254.971 197.762 255.034 197.561 255.097C197.36 255.161 197.159 255.197 196.967 255.224C196.237 255.288 195.461 255.405 194.676 255.432C193.517 255.478 192.366 255.614 191.207 255.677C190.413 255.722 189.609 255.695 188.815 255.632C188.477 255.595 188.14 255.623 187.802 255.632C187.464 255.641 187.126 255.632 186.798 255.568C186.588 255.523 186.369 255.505 186.159 255.487C185.949 255.469 185.73 255.451 185.52 255.441C185.091 255.414 184.671 255.405 184.242 255.333C183.374 255.152 182.471 255.224 181.585 255.134C180.316 255.043 179.047 254.88 177.787 254.708C177.678 254.69 177.577 254.618 177.468 254.59C177.13 254.5 176.82 254.328 176.409 254.627C176.035 254.898 175.788 254.563 175.66 253.966C175.624 253.803 175.642 253.594 175.761 253.395C175.916 253.133 176.053 252.961 176.217 252.997C176.829 253.133 177.477 253.069 178.107 253.06C178.271 253.06 178.426 253.187 178.591 253.205C179.549 253.314 180.508 253.468 181.476 253.477C181.905 253.477 182.324 253.585 182.744 253.64C183.201 253.685 183.648 253.839 184.123 253.703C184.588 253.576 185.045 253.64 185.501 253.785C185.739 253.857 185.976 253.875 186.223 253.875C186.469 253.866 186.706 253.839 186.944 253.83C187.163 253.83 187.382 253.794 187.592 253.911C187.738 253.993 187.911 254.038 188.039 253.857C188.258 253.549 188.459 253.613 188.687 253.748C188.815 253.821 188.952 253.83 189.08 253.821C189.445 253.794 189.81 253.776 190.185 253.748C190.55 253.712 190.915 253.685 191.289 253.676C192.12 253.649 192.905 253.368 193.736 253.241C194.74 253.096 195.762 252.879 196.867 252.906C197.022 252.906 197.177 252.906 197.332 252.906C197.488 252.897 197.643 252.879 197.771 252.852C197.908 252.825 198.045 252.789 198.172 252.752C198.309 252.707 198.446 252.662 198.574 252.617C199.094 252.408 199.569 252.128 199.898 251.874C200.153 251.666 200.254 251.494 200.354 251.249C200.372 251.177 200.409 251.123 200.427 251.032L200.455 250.951C200.473 250.896 200.482 250.842 200.5 250.788L200.582 250.453C200.683 250.009 200.792 249.575 200.893 249.131C201.084 249.131 201.285 249.131 201.486 249.149C201.815 249.158 202.143 249.167 202.463 249.158C202.728 249.158 203.002 249.158 203.266 249.149C203.622 249.149 203.978 249.149 204.334 249.212C204.919 249.321 205.512 249.339 206.096 249.412C206.918 249.52 207.749 249.475 208.598 249.375C209.081 249.321 209.593 249.321 210.058 249.602C210.688 249.982 211.364 249.873 212.039 249.819C212.505 249.783 212.979 249.765 213.436 249.873C213.692 249.937 213.947 249.991 214.194 250.054L214.732 250.181L215.271 250.335C215.38 250.362 215.481 250.407 215.618 250.398C216.339 250.362 216.969 250.561 217.37 250.824C217.781 251.096 217.973 251.431 218.083 251.784C218.128 251.929 218.229 252.082 218.311 252.254C218.384 252.436 218.457 252.635 218.42 252.834C218.42 253.133 218.283 253.323 218.21 253.513C218.165 253.613 218.11 253.703 218.037 253.794C217.946 253.884 217.882 253.975 217.763 254.047C217.644 254.129 217.553 254.21 217.398 254.283C217.252 254.355 217.106 254.418 216.951 254.491C216.777 254.545 216.595 254.599 216.421 254.654C216.248 254.708 216.038 254.735 215.855 254.771C215.563 254.835 215.271 254.871 214.988 254.925C214.705 254.98 214.422 255.025 214.148 255.061C213.801 255.097 213.491 255.125 213.153 255.116C212.596 255.088 212.094 255.306 211.574 255.432C210.889 255.604 210.186 255.55 209.483 255.55C208.999 255.55 208.534 255.65 208.059 255.731C207.42 255.84 206.772 255.885 206.133 255.894C205.914 255.894 205.704 255.912 205.494 256.039C205.192 256.22 204.855 256.003 204.544 256.057C204.006 256.157 203.467 256.238 202.919 256.211C202.308 256.184 201.714 256.347 201.103 256.347C200.372 256.347 199.642 256.401 198.903 256.419C198.3 256.437 197.698 256.392 197.104 256.501C196.191 256.673 195.269 256.727 194.356 256.818C194.128 256.836 193.909 256.944 193.681 256.972C193.307 257.026 192.932 256.854 192.558 256.917H192.284C192.01 256.854 191.736 256.899 191.463 256.944H190.979C190.641 256.8 190.303 256.99 189.965 256.944C189.902 256.836 189.819 256.827 189.737 256.836H188.651H188.313C187.656 256.781 186.989 256.727 186.332 256.637C185.684 256.555 185.045 256.374 184.397 256.32C183.228 256.22 182.042 256.166 180.855 256.048C180.334 255.994 179.814 255.939 179.294 255.876L179.257 255.767L179.111 255.731C179.084 255.532 179.011 255.55 178.91 255.704L178.691 255.659C178.582 255.432 178.399 255.469 178.235 255.469L178.025 255.405C177.961 255.188 177.842 255.197 177.696 255.333C177.395 255.106 177.084 254.925 176.719 254.934C176.299 254.944 175.98 254.663 175.514 254.771C175.45 254.79 175.387 254.753 175.35 254.699C175.25 254.563 175.35 254.246 175.523 254.12C176.035 253.785 176.482 253.341 176.875 253.576C177.322 253.848 177.851 253.92 178.399 253.821C178.472 253.803 178.536 253.821 178.6 253.821C179.65 254.029 180.754 253.902 181.813 254.056C181.996 254.083 182.188 254.056 182.379 254.056H182.626C182.991 254.101 183.32 254.572 183.703 254.436L183.721 254.418L183.959 254.391C184.032 254.536 184.114 254.572 184.214 254.391H184.561L184.744 254.4L184.963 254.382C184.963 254.382 184.99 254.4 185.008 254.382C185.629 254.572 186.268 254.482 186.898 254.455C186.916 254.455 186.935 254.455 186.953 254.427L187.117 254.382C187.117 254.382 187.135 254.409 187.145 254.4L187.437 254.418C187.437 254.418 187.464 254.436 187.482 254.418L187.829 254.446H188.021L188.176 254.418C188.194 254.436 188.204 254.436 188.222 254.418H188.578C188.578 254.418 188.605 254.473 188.623 254.473C189.016 254.473 189.418 254.473 189.81 254.464C190.668 254.455 191.536 254.364 192.394 254.427C193.17 254.491 193.955 254.464 194.74 254.527C195.425 254.581 196.109 254.482 196.785 254.4C197.707 254.292 198.647 254.518 199.569 254.319C200.053 254.219 200.546 254.201 201.021 253.966C201.258 253.848 201.514 253.748 201.778 254.074C201.851 254.165 201.961 254.129 202.043 254.12C202.828 254.056 203.604 253.993 204.38 253.839C204.709 253.766 205.046 253.757 205.384 253.839C205.53 253.875 205.676 253.839 205.822 253.839C207 253.694 208.169 253.54 209.346 253.459L210.14 253.359C210.341 253.486 210.524 253.468 210.679 253.241L211.327 253.051C211.428 253.069 211.519 253.078 211.574 252.897L212.213 252.771L212.286 252.816Z" fill="black"/>
<path d="M274.153 224.052C273.943 224.07 273.714 224.052 273.523 224.124C272.345 224.568 271.094 224.695 269.88 224.993C268.557 225.319 267.205 225.519 265.873 225.79C265.544 225.854 265.224 225.926 264.914 226.026C263.59 226.451 262.321 227.04 260.97 227.348C260.733 227.402 260.459 227.366 260.194 227.338C260.067 227.329 259.93 227.32 259.811 227.338C259.747 227.338 259.683 227.357 259.628 227.375C259.601 227.375 259.574 227.393 259.546 227.402C259.51 227.411 259.464 227.438 259.418 227.456C259.172 227.574 258.889 227.664 258.615 227.755L258.506 227.692C258.314 227.583 258.122 227.483 257.93 227.375L257.684 227.239L257.492 227.148C257.237 227.022 256.981 226.904 256.725 226.786C256.205 226.551 255.685 226.324 255.164 226.098C254.124 225.645 253.083 225.175 252.124 224.586C250.363 223.509 248.555 222.486 246.802 221.39C245.25 220.412 243.68 219.471 242.174 218.438C240.494 217.298 238.659 216.447 236.961 215.351C235.09 214.147 233.1 213.133 231.228 211.929C229.768 210.987 228.243 210.154 226.737 209.285C225.221 208.407 223.496 207.872 222.017 206.931C221.287 206.46 220.547 205.998 219.817 205.527C218.548 204.74 217.334 203.97 216.257 203.264C215.864 203.01 215.472 202.757 215.088 202.503C216.96 202.078 218.64 201.689 220.246 201.299C221.333 201.046 222.419 200.792 223.514 200.53C225.094 200.158 226.682 199.824 228.271 199.498C229.631 199.217 230.945 198.746 232.315 198.502C234.058 198.194 235.729 197.623 237.463 197.261C239.262 196.89 241.005 196.283 242.776 195.776C245.314 195.052 247.861 194.328 250.399 193.612C250.627 193.549 250.865 193.54 251.093 193.486C251.796 193.323 252.508 193.259 253.101 192.716C253.64 192.227 254.325 192.336 254.954 192.752C255.128 192.87 255.228 193.06 255.137 193.305C255.009 193.631 254.845 193.875 254.507 193.957C253.229 194.273 252.006 194.78 250.773 195.242C250.445 195.36 250.08 195.351 249.742 195.45C247.77 196.012 245.798 196.555 243.845 197.171C242.977 197.451 242.092 197.642 241.206 197.859C240.266 198.103 239.28 198.239 238.367 198.674C237.482 199.09 236.496 199.289 235.51 199.434C234.478 199.579 233.501 199.941 232.506 200.231C232.05 200.358 231.612 200.512 231.128 200.521C230.799 200.521 230.425 200.566 230.197 200.81C229.804 201.227 229.357 201.272 228.846 201.263C228.563 201.263 228.28 201.326 228.006 201.39C226.454 201.788 224.92 202.223 223.35 202.567C222.912 202.666 222.483 202.775 222.045 202.893L221.725 202.983L221.561 203.029L221.479 203.056H221.46L221.333 203.11C221.168 203.183 221.077 203.228 220.876 203.264H220.858C221.013 203.391 221.159 203.508 221.314 203.626L221.351 203.653C221.351 203.653 221.351 203.653 221.433 203.708L221.771 203.925C221.99 204.07 222.218 204.215 222.437 204.369C222.875 204.667 223.314 204.966 223.752 205.283C225.815 206.768 228.179 207.755 230.416 208.95C232.406 210.018 234.396 211.096 236.304 212.291C237.555 213.078 238.897 213.73 240.111 214.581C241.115 215.288 242.165 215.903 243.187 216.564C244.62 217.497 246.136 218.303 247.688 219.045C248.582 219.471 249.486 219.969 250.217 220.684C251.221 221.653 252.471 222.196 253.713 222.766C254.562 223.156 255.411 223.563 256.196 224.07C256.99 224.568 257.784 225.075 258.579 225.573L258.67 225.627C258.67 225.627 258.743 225.673 258.743 225.663C258.761 225.663 258.789 225.663 258.807 225.663C258.852 225.645 258.889 225.618 258.916 225.591C259.017 225.473 258.871 225.464 259.291 225.31C259.583 225.193 259.884 225.093 260.194 225.003C260.806 224.831 261.436 224.704 262.066 224.586C262.641 224.477 263.143 224.124 263.718 223.961C265.343 223.5 266.977 223.056 268.657 222.784C269.953 222.576 271.231 222.205 272.528 221.997C273.623 221.816 274.636 221.399 275.677 221.055C277.037 220.602 278.461 220.358 279.858 220.059C280.826 219.851 281.766 219.543 282.715 219.253C283.994 218.855 285.29 218.52 286.586 218.203C287.015 218.094 287.444 217.986 287.846 217.759C288.439 217.433 289.133 217.497 289.763 217.289C290.84 216.935 291.917 216.582 293.022 216.347C293.643 216.211 294.245 216.03 294.848 215.849C295.149 215.758 295.45 215.668 295.752 215.568L296.126 215.46C296.181 215.442 296.226 215.433 296.281 215.423C296.655 215.351 297.048 215.242 297.422 215.134L297.002 214.916L296.418 214.59C296.354 214.554 295.606 214.183 295.076 213.966C293.314 213.241 291.598 212.427 289.854 211.639C289.425 211.449 288.969 211.331 288.54 211.15C287.819 210.851 287.216 210.353 286.495 210.064L285.993 209.819C285.518 209.502 284.989 209.294 284.468 209.086L283.574 208.651C283.017 208.207 282.305 208.072 281.693 207.728C281.611 207.565 281.465 207.492 281.319 207.42L279.292 206.46L278.662 206.152C277.457 205.509 276.252 204.885 275.056 204.233C273.888 203.59 272.747 202.875 271.551 202.277C269.387 201.191 267.187 200.168 265.005 199.126C264.047 198.674 263.088 198.221 262.139 197.777L262.075 197.632L261.801 197.488C261.765 197.261 261.628 197.225 261.436 197.316L261.043 197.116C260.852 196.79 260.523 196.709 260.204 196.6L259.82 196.383C259.711 196.111 259.492 196.039 259.209 196.075C258.652 195.632 258.058 195.224 257.392 195.007C256.634 194.771 256.004 194.255 255.192 194.147C255.082 194.129 254.964 194.065 254.891 193.984C254.69 193.775 254.781 193.45 255.091 193.413C255.94 193.296 256.771 193.069 257.584 193.594C258.496 194.192 259.519 194.654 260.605 194.943C260.742 194.98 260.87 195.043 260.998 195.106C263.043 196.111 265.215 196.863 267.242 197.904C267.598 198.085 267.972 198.221 268.347 198.375L268.821 198.583C269.524 198.936 270.026 199.679 270.802 199.869H270.839L271.295 200.041C271.396 200.249 271.542 200.349 271.788 200.267L272.464 200.575L272.811 200.738L273.249 200.91C273.249 200.91 273.294 200.955 273.331 200.946C274.454 201.671 275.705 202.15 276.919 202.685C276.955 202.703 276.992 202.712 277.037 202.712C277.147 202.748 277.256 202.784 277.366 202.82C277.366 202.848 277.393 202.866 277.421 202.866L277.968 203.146C277.968 203.146 278.023 203.192 278.06 203.192L278.717 203.536L279.073 203.699L279.365 203.816C279.365 203.816 279.42 203.862 279.456 203.862L280.123 204.197C280.123 204.197 280.169 204.26 280.196 204.278L282.451 205.355C284.085 206.134 285.755 206.858 287.344 207.728C288.786 208.515 290.256 209.231 291.689 210.036C292.94 210.734 294.264 211.304 295.578 211.892C295.998 212.083 296.418 212.291 296.829 212.508C297.468 212.843 298.107 213.178 298.746 213.513C300.161 214.256 301.466 214.944 303.037 215.668C302.89 215.713 302.735 215.768 302.589 215.813C301.822 216.066 300.973 216.32 300.124 216.591C299.275 216.863 298.436 217.144 297.532 217.506C297.304 217.596 297.066 217.687 296.811 217.777C296.738 217.805 296.665 217.832 296.591 217.859C296.528 217.877 296.464 217.895 296.4 217.913C296.144 217.977 295.87 217.986 295.569 217.886C295.405 217.832 295.195 217.922 295.021 217.977C293.433 218.429 291.854 218.873 290.293 219.416C289.626 219.643 288.941 219.815 288.229 219.905C287.928 219.941 287.636 220.041 287.335 220.113C284.943 220.82 282.542 221.517 280.123 222.123L278.489 222.576C278.069 222.531 277.695 222.63 277.384 222.929L276.042 223.4C275.841 223.427 275.65 223.454 275.522 223.663L274.18 224.061L274.153 224.052Z" fill="black"/>
<path d="M150.136 244.975C150.401 244.849 150.602 244.704 150.748 244.559C150.821 244.486 150.876 244.405 150.921 244.323C150.967 244.242 151.003 244.16 151.031 244.052C151.086 243.844 151.095 243.563 151.077 243.237C151.049 242.884 151.031 242.522 151.003 242.169C150.967 241.689 150.93 241.2 150.775 240.729C150.556 240.032 150.72 239.308 150.62 238.592C150.447 237.37 150.264 236.157 150.2 234.925C150.127 233.558 149.853 232.209 149.725 230.842C149.57 229.203 149.342 227.565 149.132 225.935C148.949 224.604 148.822 223.255 148.511 221.942C148.037 219.941 147.608 217.94 147.042 215.994C146.895 215.514 146.676 215.061 146.512 214.599C146.238 213.821 146.165 212.988 145.837 212.236L145.636 211.675C145.499 211.086 145.243 210.543 144.969 210.018C144.823 209.701 144.695 209.375 144.54 209.067C144.385 208.334 143.874 207.764 143.563 207.103C143.591 206.922 143.509 206.768 143.417 206.623C143.025 205.944 142.605 205.301 142.158 204.667C142.011 204.477 141.875 204.278 141.728 204.079C140.916 202.938 139.994 201.869 138.972 200.919C137.967 199.986 136.908 199.081 135.676 198.447C133.439 197.297 130.902 196.709 128.327 196.138C127.195 195.894 126.054 195.649 124.922 195.405L124.822 195.269L124.493 195.188C124.393 194.97 124.247 194.97 124.064 195.097L123.589 194.979C123.306 194.699 122.923 194.69 122.567 194.644L122.101 194.518C121.91 194.273 121.654 194.246 121.371 194.346C120.659 194.02 119.929 193.739 119.153 193.676C118.724 193.639 118.295 193.531 117.829 193.395C117.363 193.259 116.88 193.096 116.332 192.888C116.186 192.825 116.021 192.698 115.93 192.553C115.675 192.173 115.912 191.919 116.259 192.037C116.761 192.173 117.217 192.127 117.637 192.1C118.057 192.073 118.468 192.073 118.961 192.245C120.084 192.643 121.298 192.879 122.521 192.942C122.676 192.942 122.832 192.978 122.978 193.015C124.201 193.295 125.433 193.513 126.666 193.73C127.898 193.947 129.131 194.165 130.363 194.49C130.792 194.608 131.239 194.672 131.678 194.771L132.244 194.916C133.102 195.17 133.795 195.867 134.672 196.03H134.708L135.238 196.193C135.375 196.41 135.548 196.51 135.804 196.428C136.069 196.537 136.324 196.654 136.58 196.781C136.717 196.845 136.845 196.917 136.972 196.989L137.456 197.225C137.456 197.225 137.511 197.27 137.557 197.279C138.798 198.185 140.076 199.017 141.226 200.041C141.263 200.077 141.299 200.104 141.336 200.113L141.655 200.357C141.655 200.357 141.665 200.412 141.701 200.421C141.865 200.593 142.03 200.765 142.185 200.946C142.203 200.982 142.221 201.018 142.267 201.036C142.459 201.245 142.641 201.471 142.815 201.688L143.116 202.023L143.363 202.295C143.363 202.295 143.399 202.367 143.436 202.386C143.609 202.612 143.782 202.838 143.938 203.074C143.938 203.119 143.956 203.155 143.974 203.191C144.531 203.961 145.051 204.758 145.517 205.582C146.539 207.356 147.452 209.212 148.055 211.15C148.603 212.906 149.114 214.663 149.461 216.446C149.753 218.004 150.154 219.543 150.474 221.1C150.912 223.21 150.958 225.355 151.387 227.456C151.615 228.561 151.743 229.692 152.081 230.779C152.254 231.331 152.4 231.92 152.126 232.517C152.044 232.689 152.108 232.925 152.126 233.124C152.336 234.916 152.528 236.7 152.811 238.484C152.93 239.244 152.984 240.014 152.957 240.783C152.948 241.109 152.994 241.444 153.021 241.779L153.131 242.793C153.167 243.146 153.204 243.554 153.167 244.025C153.149 244.26 153.112 244.514 153.03 244.767C152.957 245.03 152.838 245.283 152.692 245.519C152.4 245.989 150.118 244.993 150.118 244.993" fill="black"/>
</g>
<defs>
<clipPath id="clip0_40000713_13105">
<rect width="275" height="196" fill="white" transform="translate(28 61)"/>
</clipPath>
</defs>
</svg>
